<svg width="512" height="512" xmlns="http://www.w3.org/2000/svg">

 <g>
  <title>background</title>
  <rect fill="none" id="canvas_background" height="602" width="802" y="-1" x="-1"/>
 </g>
 <g>
  <title>Layer 1</title>
  <path id="svg_3" d="m256,0c-141.36328,0 -256,114.63672 -256,256s114.63672,256 256,256s256,-114.63672 256,-256s-114.63672,-256 -256,-256zm141.90625,328.09766c0,34.38672 -27.73047,62.26172 -61.92578,62.26172l-53.78516,0l-26.46875,42.64062l-26.46875,-42.64062l-53.23828,0c-34.20312,0 -61.92578,-27.875 -61.92578,-62.26172l0,-160.83594c0,-34.38281 27.72266,-62.26172 61.92578,-62.26172l159.96094,0c34.19922,0 61.92578,27.87891 61.92578,62.26172l0,160.83594zm0,0"/>
 </g>
</svg>