<svg height="480pt" viewBox="0 0 480 480.03499" width="480pt" xmlns="http://www.w3.org/2000/svg"><path d="m316.734375 316.316406c2.878906-3.34375 5.003906-7.265625 6.230469-11.503906 20.125-45.289062 26.003906-95.625 16.855468-144.328125l-28.910156 28.351563c3.320313-27.808594 2.097656-55.96875-3.625-83.386719l-27.199218 21.808593c-4.367188-26.460937-13.527344-51.902343-27.023438-75.078124l-21.386719 27.527343c-12.03125-23.222656-28.40625-43.921875-48.238281-60.976562l-13.816406 31.136719c-19.175782-17.929688-41.53125-32.117188-65.921875-41.832032l-5.277344 32.304688c-24.6875-11.078125-51.066406-17.917969-78.023437-20.226563l-.320313-.328125c2.296875 27.015625 9.121094 53.453125 20.191406 78.203125l-32.25 5.246094c9.695313 24.410156 23.855469 46.796875 41.753907 66.015625l-31.082032 13.890625c17.007813 19.859375 37.671875 36.265625 60.867188 48.335937l-27.480469 21.421876c23.109375 13.511718 48.496094 22.683593 74.902344 27.066406l-21.757813 27.269531c27.347656 5.734375 55.453125 6.960937 83.199219 3.632813l-28.273437 28.96875c48.617187 9.164062 98.871093 3.273437 144.046874-16.890626 4.234376-1.226562 8.152344-3.355468 11.480469-6.238281zm0 0" fill="#5f9548"/><path d="m322.75 311.714844-63.199219-63.3125c27.316407-55.054688 20.894531-98.839844 20.597657-100.726563l-15.808594 2.488281c2.265625 29.742188-3.507813 59.542969-16.71875 86.285157l-32.863282-32.925781c15.3125-29.425782 20.535157-63.0625 14.863282-95.746094l-15.574219 3.683594c4.417969 27.21875.515625 55.136718-11.203125 80.101562l-33.277344-33.351562c9.210938-24.832032 12.550782-51.457032 9.757813-77.792969l-15.839844 2.265625c2.117187 21.210937-.082031 42.632812-6.457031 62.976562l-32.300782-32.378906c5.425782-15.484375 7.335938-31.984375 5.597657-48.300781l-15.839844 2.238281c1.082031 11.144531.226563 22.394531-2.527344 33.25l-41.382812-41.417969-11.351563 11.3125 41.359375 41.441407c-10.828125 2.761718-22.054687 3.621093-33.175781 2.535156l-2.25 15.839844c3.761719.460937 7.546875.675781 11.335938.648437 12.550781.03125 25.011718-2.078125 36.847656-6.242187l32.34375 32.402343c-20.308594 6.351563-41.683594 8.554688-62.863282 6.480469l-2.253906 15.839844c5.816406.714844 11.679688 1.050781 17.542969 1 20.507813.039062 40.855469-3.621094 60.0625-10.800782l33.328125 33.390626c-24.902344 11.738281-52.777344 15.65625-79.949219 11.242187l-3.691406 15.558594c8.117187 1.671875 16.390625 2.457031 24.671875 2.335937 24.652344-.128906 48.929688-6.023437 70.898438-17.207031l32.894531 32.957031c-26.671875 13.242188-56.425781 19.035156-86.121094 16.761719l-1.238281 7.902344-1.265625 7.90625c4.867187.648437 9.773437.945312 14.683593.886719 29.875-.535157 59.230469-7.910157 85.8125-21.558594l63.203126 63.34375zm0 0" fill="#43752e"/><path d="m360.019531 408.035156c-61.855469 0-112-50.144531-112-112v-47.007812c.003907-79.765625 42.746094-153.417969 112-192.992188 69.257813 39.574219 112 113.226563 112 192.992188v47.007812c0 61.855469-50.144531 112-112 112zm0 0" fill="#7a432a"/><path d="m264.019531 264.035156h-16v32c.027344 31.6875 13.464844 61.882813 36.988281 83.117188 23.523438 21.230468 54.9375 31.515625 86.460938 28.308594 9.964844-33.847657 3.375-70.40625-17.78125-98.640626-21.152344-28.238281-54.386719-44.835937-89.667969-44.785156zm0 0" fill="#743b20"/><g fill="#662e13"><path d="m352.019531 120.035156h16v152h-16zm0 0"/><path d="m296.019531 168.035156h16v64h-16zm0 0"/><path d="m408.019531 168.035156h16v56h-16zm0 0"/><path d="m408.019531 240.035156h16v16h-16zm0 0"/><path d="m408.019531 272.035156h16v72h-16zm0 0"/></g><path d="m360.019531 360.035156c0 61.855469-50.144531 112-112 112h-47.007812c-79.765625-.003906-153.414063-42.746094-192.992188-112 39.578125-69.257812 113.226563-111.996094 192.992188-112h47.007812c61.855469 0 112 50.144532 112 112zm0 0" fill="#95573a"/><path d="m77.621094 434.601562c36.527344 24.402344 79.472656 37.429688 123.398437 37.433594h47c41.785157.035156 80.109375-23.210937 99.382813-60.285156 19.277344-37.074219 16.289062-81.796875-7.742188-115.980469-63.640625 85.386719-187.191406 124.808594-262.039062 138.832031zm0 0" fill="#8f4d2e"/><path d="m72.019531 352.035156h248v16h-248zm0 0" fill="#7a3b1d"/><path d="m120.019531 408.035156h40v16h-40zm0 0" fill="#7a3b1d"/><path d="m120.019531 296.035156h152v16h-152zm0 0" fill="#7a3b1d"/><path d="m176.019531 408.035156h96v16h-96zm0 0" fill="#7a3b1d"/><path d="m36.515625 166.433594-21.117187 9.457031c-2.304688 1.03125-3.984376 3.085937-4.539063 5.550781-.550781 2.460938.089844 5.039063 1.730469 6.953125 14.996094 17.496094 32.742187 32.429688 52.542968 44.214844l-17.960937 14c-2.097656 1.640625-3.242187 4.214844-3.054687 6.871094s1.683593 5.042969 3.992187 6.371093c6.015625 3.464844 12.222656 6.6875 18.441406 9.597657l6.78125-14.484375c-2.226562-1.070313-4.453125-2.15625-6.679687-3.265625l17.816406-13.921875c2.140625-1.671875 3.289062-4.320313 3.042969-7.027344-.246094-2.707031-1.851563-5.101562-4.257813-6.363281-19.058594-9.9375-36.363281-22.917969-51.234375-38.433594l21.058594-9.421875c2.367187-1.058594 4.074219-3.199219 4.578125-5.742188.503906-2.542968-.253906-5.175781-2.035156-7.058593-14.96875-15.972657-27.199219-34.300781-36.199219-54.253907l22.128906-3.625c2.453125-.40625 4.582031-1.929687 5.753907-4.125 1.171874-2.195312 1.257812-4.808593.226562-7.074218-9.328125-20.804688-15.507812-42.882813-18.328125-65.503906 22.761719 2.773437 44.964844 9 65.851563 18.460937 2.269531 1.054687 4.902343.984375 7.113281-.1875 2.214843-1.175781 3.75-3.316406 4.148437-5.785156l3.625-22.203125c19.925782 9.03125 38.230469 21.273437 54.183594 36.242187 1.886719 1.78125 4.519531 2.535157 7.0625 2.027344s4.683594-2.21875 5.738281-4.589844l9.34375-21.015625c15.476563 14.914063 28.425781 32.25 38.335938 51.320313 1.261719 2.414062 3.664062 4.015625 6.378906 4.257812 2.710937.242188 5.359375-.914062 7.027344-3.066406l13.847656-17.847656c9.957031 19.394531 16.8125 40.222656 20.328125 61.738281.128906.734375.359375 1.453125.679688 2.128906-16.855469 28.117188-27.539063 59.5-31.34375 92.0625l15.90625 1.832032c7.546874-66.148438 45.472656-125.003907 102.589843-159.207032 64.53125 38.699219 104.011719 108.433594 104 183.679688v47.039062c-.230469 51.367188-37.742187 94.960938-88.503906 102.847656l2.402344 15.832032c58.558593-9.117188 101.832031-59.414063 102.101562-118.679688v-47.039062c.015625-82.625-44.253906-158.921875-116-199.90625-2.464843-1.414063-5.492187-1.414063-7.957031 0-27.726562 15.878906-51.851562 37.339844-70.847656 63.023437-5.152344-22.445312-13.644532-43.992187-25.195313-63.917969-1.332031-2.308593-3.722656-3.800781-6.382812-3.980468-2.65625-.183594-5.230469.972656-6.863281 3.074218l-13.953126 17.976563c-11.738281-19.816406-26.640624-37.578125-44.121093-52.582031-1.917969-1.644532-4.5-2.285156-6.960938-1.726563-2.464843.554688-4.523437 2.242188-5.550781 4.550781l-9.414062 21.078126c-17.980469-15.117188-38.257813-27.269532-60.0625-36-2.257813-.914063-4.808594-.753907-6.929688.441406-2.121094 1.191406-3.585938 3.285156-3.976562 5.6875l-3.625 22.214844c-22.167969-8.789063-45.476563-14.378907-69.222657-16.605469-2.585937-.992188-5.496093-.574219-7.699219 1.101562-2.203124 1.671875-3.386718 4.367188-3.125 7.121094 2.136719 24.414063 7.777344 48.390625 16.746094 71.199219l-22.152344 3.625c-2.402343.394531-4.496093 1.859375-5.683593 3.980468-1.191407 2.121094-1.351563 4.667969-.4375 6.921876 8.707031 21.832031 20.828125 42.136718 35.910156 60.160156zm0 0"/><path d="m229.621094 107.777344-15.574219 3.683594c4.417969 27.21875.515625 55.144531-11.203125 80.109374l-33.285156-33.351562c9.214844-24.832031 12.558594-51.460938 9.765625-77.800781l-15.839844 2.265625c2.117187 21.210937-.082031 42.632812-6.457031 62.976562l-32.300782-32.378906c5.421876-15.484375 7.332032-31.984375 5.597657-48.300781l-15.839844 2.238281c1.082031 11.144531.226563 22.390625-2.527344 33.242188l-41.398437-41.433594-11.335938 11.304687 41.382813 41.472657c-10.832031 2.761718-22.066407 3.621093-33.191407 2.535156l-2.25 15.839844c3.761719.460937 7.546876.675781 11.335938.648437 12.550781.03125 25.015625-2.082031 36.855469-6.25l32.335937 32.410156c-20.304687 6.351563-41.683594 8.554688-62.863281 6.480469l-2.253906 15.839844c5.820312.714844 11.679687 1.050781 17.542969 1 20.507812.039062 40.855468-3.621094 60.0625-10.800782l33.320312 33.390626c-24.898438 11.738281-52.769531 15.65625-79.941406 11.242187l-3.691406 15.558594c8.113281 1.671875 16.382812 2.457031 24.664062 2.335937 24.648438-.128906 48.925781-6.023437 70.890625-17.207031l12.886719 12.910156 11.320312-11.304687-12.871094-12.894532c15.3125-29.429687 20.535157-63.074218 14.863282-95.761718zm0 0"/><path d="m352.019531 120.035156h16v152h-16zm0 0"/><path d="m296.019531 168.035156h16v64h-16zm0 0"/><path d="m408.019531 168.035156h16v56h-16zm0 0"/><path d="m408.019531 240.035156h16v16h-16zm0 0"/><path d="m201.019531 480.035156h47c66.277344 0 120-53.726562 120-120 0-66.273437-53.722656-120-120-120h-47c-82.605469.097656-158.859375 44.335938-199.941406 116-1.40625 2.457032-1.40625 5.476563 0 7.9375 41.066406 71.6875 117.324219 115.953125 199.941406 116.0625zm0-224h47c57.4375 0 104 46.5625 104 104s-46.5625 104-104 104h-47c-75.230469-.09375-144.929687-39.546875-183.726562-104 38.796875-64.457031 108.496093-103.910156 183.726562-104zm0 0"/><path d="m72.019531 352.035156h248v16h-248zm0 0"/><path d="m120.019531 408.035156h40v16h-40zm0 0"/><path d="m120.019531 296.035156h152v16h-152zm0 0"/><path d="m176.019531 408.035156h96v16h-96zm0 0"/><path d="m408.019531 272.035156h16v72h-16zm0 0"/></svg>