<svg height="479pt" viewBox="0 -40 479.98578 479" width="479pt" xmlns="http://www.w3.org/2000/svg"><path d="m377.769531 392.234375c-14.328125-.007813-28.058593-5.742187-38.136719-15.921875-3.074218-3.105469-7.261718-4.851562-11.632812-4.851562s-8.558594 1.746093-11.632812 4.851562c-10.078126 10.179688-23.808594 15.914062-38.136719 15.921875-23.527344-.050781-44.3125-15.339844-51.375-37.785156l-37.496094-118.0625c-3.554687-11.191407-5.359375-22.867188-5.359375-34.609375-.230469-62.472656 50.222656-113.304688 112.695312-113.542969h62.609376c62.472656.238281 112.925781 51.070313 112.695312 113.542969 0 11.742187-1.808594 23.417968-5.359375 34.609375l-37.496094 118.0625c-7.0625 22.445312-27.847656 37.734375-51.375 37.785156zm0 0" fill="#5f9548"/><path d="m368.367188 88.699219c-35.566407 77.351562-118.214844 126.734375-177.289063 153.085937l35.777344 112.664063c5.605469 18.015625 20.242187 31.773437 38.570312 36.25 18.328125 4.476562 37.664063-.980469 50.941407-14.386719 3.074218-3.105469 7.261718-4.851562 11.632812-4.851562s8.558594 1.746093 11.632812 4.851562c13.277344 13.40625 32.609376 18.863281 50.9375 14.386719 18.332032-4.476563 32.96875-18.234375 38.574219-36.25l37.496094-118.0625c3.550781-11.191407 5.359375-22.867188 5.359375-34.609375.175781-58.929688-44.910156-108.125-103.632812-113.078125zm0 0" fill="#568741"/><path d="m369.726562 117.203125c-1.277343.566406-2.558593 1.167969-3.824218 1.808594-23.847656 11.984375-51.957032 11.984375-75.804688 0-1.265625-.640625-2.546875-1.242188-3.824218-1.808594-35.875-14.761719-76.957032 2.023437-92.226563 37.6875-9.808594 21.882813-12.542969 46.285156-7.824219 69.800781.824219 3.953125 1.871094 7.859375 3.136719 11.695313l37.496094 118.0625c7.0625 22.445312 27.847656 37.734375 51.375 37.785156h.320312c14.445313-.53125 28.171875-6.4375 38.488281-16.558594 6.167969-5.5625 15.523438-5.621093 21.761719-.136719 4.953125 4.933594 10.671875 9.039063 16.933594 12.152344 14.074219 6.199219 30.121094 6.117188 44.128906-.226562 14.011719-6.339844 24.65625-18.347656 29.28125-33.015625l37.496094-118.0625c1.269531-3.835938 2.316406-7.742188 3.136719-11.695313 4.71875-23.515625 1.984375-47.917968-7.824219-69.800781-15.269531-35.664063-56.351563-52.449219-92.226563-37.6875zm0 0" fill="#e0e0de"/><path d="m269.152344 362.457031 37.496094-118.0625c16.105468-50.640625-4.933594-105.6875-50.710938-132.671875-27.046875 1.800782-50.875 18.433594-61.890625 43.199219-9.808594 21.886719-12.542969 46.285156-7.824219 69.800781.824219 3.953125 1.871094 7.859375 3.136719 11.695313l37.496094 118.0625c4.351562 13.75 13.996093 25.199219 26.808593 31.816406 7.195313-6.421875 12.542969-14.652344 15.488282-23.839844zm0 0" fill="#d6d6d4"/><path d="m201.769531 392.234375c-14.328125-.007813-28.058593-5.742187-38.136719-15.921875-3.074218-3.105469-7.261718-4.851562-11.632812-4.851562s-8.558594 1.746093-11.632812 4.851562c-10.078126 10.179688-23.808594 15.914062-38.136719 15.921875-23.527344-.050781-44.3125-15.339844-51.375-37.785156l-37.496094-118.0625c-3.554687-11.191407-5.359375-22.867188-5.359375-34.609375-.230469-62.472656 50.222656-113.304688 112.695312-113.542969h62.609376c62.472656.238281 112.925781 51.070313 112.695312 113.542969 0 11.742187-1.808594 23.417968-5.359375 34.609375l-37.496094 118.0625c-7.0625 22.445312-27.847656 37.734375-51.375 37.785156zm0 0" fill="#7eb457"/><path d="m268.953125 128.097656c-50.785156 138.320313-160.800781 181.089844-228.289063 194.273438l10.191407 32.078125c5.605469 18.015625 20.242187 31.773437 38.570312 36.25 18.328125 4.476562 37.664063-.980469 50.941407-14.386719 3.074218-3.105469 7.261718-4.851562 11.632812-4.851562s8.558594 1.746093 11.632812 4.851562c13.277344 13.40625 32.609376 18.863281 50.9375 14.386719 18.332032-4.476563 32.96875-18.234375 38.574219-36.25l37.496094-118.0625c3.550781-11.191407 5.359375-22.867188 5.359375-34.609375.03125-26.996094-9.558594-53.117188-27.046875-73.679688zm0 0" fill="#77ad50"/><path d="m304 232.234375h16v24h-16zm0 0" fill="#95573a"/><path d="m336 232.234375h16v24h-16zm0 0" fill="#95573a"/><path d="m50.105469 147.617188 12.796875 9.601562c3.128906-4.160156 6.691406-7.976562 10.625-11.386719l-10.457032-12.078125c-4.796874 4.148438-9.144531 8.796875-12.964843 13.863282zm0 0" fill="#88c25e"/><path d="m48 201.777344c-.03125-11.457032 2.621094-22.765625 7.742188-33.015625l-14.320313-7.136719c-6.234375 12.464844-9.464844 26.214844-9.421875 40.152344-.003906 9.277344 1.425781 18.503906 4.238281 27.34375l9.363281 29.511718 15.261719-4.800781-9.375-29.550781c-2.316406-7.277344-3.492187-14.867188-3.488281-22.503906zm0 0" fill="#88c25e"/><path d="m151.121094 131.058594c-14.257813.054687-28.414063-2.355469-41.847656-7.128906l5.453124-15.03125c23.566407 8.257812 49.238282 8.257812 72.800782 0l5.457031 15.03125c-13.441406 4.773437-27.601563 7.183593-41.863281 7.128906zm0 0" fill="#69a340"/><path d="m144.328125 122.632812h16v-1.117187c.238281-34.375-12.636719-67.546875-36-92.761719l-11.6875 10.9375c20.449219 22.332032 31.761719 51.539063 31.6875 81.824219zm0 0" fill="#95573a"/><path d="m223.648438 17.035156-.855469-7.441406-5.601563-.847656c-37.191406-5.601563-75.488281 33.785156-70.007812 71.953125l.800781 5.765625c37.246094 10.65625 80.351563-28.894532 75.664063-69.429688zm0 0" fill="#5f9548"/><path d="m296.71875 96.234375h62.5625c13.246094.003906 26.371094 2.542969 38.664062 7.480469-10.785156-.296875-21.503906 1.804687-31.378906 6.152344-1.414062.605468-2.824218 1.3125-4.222656 2.015624-18.792969 9.339844-40.574219 10.628907-60.335938 3.566407l-5.40625 15.058593c23.875 8.53125 50.199219 6.96875 72.902344-4.320312 1.152344-.578125 2.304688-1.152344 3.496094-1.671875 30.089844-12.261719 64.566406.457031 79.488281 29.316406v.042969c.75 1.375 1.441407 2.742188 2.191407 4.472656.609374 1.261719 1.128906 2.542969 1.65625 3.839844l.457031 1.078125c.75 2.113281 1.511719 4.214844 2.269531 6.664063.425781 1.214843.800781 2.527343 1.152344 3.816406l.234375.800781c.261719.925781.460937 1.894531.671875 2.839844l.453125 2.03125c.425781 1.695312.699219 3.472656 1.015625 5.457031.210937 1.320312.417968 2.632812.648437 4.464844 0 .132812.050781.34375.089844.574218l.070313.734376c.078124.632812.121093 1.269531.128906 1.90625.136718 1.421874.289062 2.847656.304687 4.710937.265625 4.707031.160157 9.429687-.3125 14.121094-.054687.800781-.121093 1.550781-.253906 3.109375-.089844.402344-.148437.808594-.179687 1.21875-.058594.316406-.097657.636718-.117188.960937l-.480469 3.101563v.121094c-.078125.335937-.136719.671874-.175781 1.015624l-.082031.496094c-.066407.226563-.121094.457032-.167969.6875-.535156 2.726563-1.214844 5.457032-1.855469 7.945313l-.550781 1.816406c-.257812.796875-.503906 1.597656-.648438 2.152344l-37.535156 118.109375c-.257812.800781-.578125 1.648437-.90625 2.511718l-.542968 1.351563c-.375 1.03125-.824219 2.03125-1.34375 2.992187-.542969 1.097657-1.167969 2.195313-1.679688 3.050782-1.285156 2.105468-2.726562 4.109375-4.3125 6-.789062.9375-1.636719 1.828125-2.535156 2.664062-1.621094 1.660156-3.371094 3.1875-5.234375 4.574219-1.214844.878906-2.398438 1.695313-3.78125 2.496094-.457031.222656-.886719.492187-1.289063.800781-1.433594.757812-2.910156 1.472656-4.398437 2.121094-1.113281.476562-2.296875.886718-3.335938 1.253906-2.3125.75-4.679687 1.324219-7.082031 1.710938-3.632812.601562-7.324219.757812-10.992188.457031-.824218-.054688-1.644531-.167969-2.457031-.335938-.308593-.0625-.621093-.109375-.933593-.136719l-.65625-.078124c-.71875-.085938-1.429688-.222657-2.128907-.402344-2.207031-.457032-4.371093-1.09375-6.480469-1.894532-2.769531-1.140624-5.445312-2.5-8-4.0625-.558593-.378906-1.109374-.738281-2.0625-1.464843-2.183593-1.5-4.222656-3.203125-6.089843-5.082031-.726563-.726563-1.507813-1.394532-2.34375-2l-.277344-.230469c-.617187-.566407-1.308594-1.046875-2.058594-1.425781-.335937-.21875-.691406-.417969-1.054687-.589844-1.039063-.585938-2.132813-1.070313-3.265625-1.441406-1.085938-.457032-2.21875-.78125-3.382813-.976563l-.550781-.125c-.484375-.113281-.976563-.191406-1.472656-.242187-1.890625-.191407-3.796875-.191407-5.6875 0-.574219.035156-1.140625.128906-1.695313.273437-1.332031.246094-2.640625.597656-3.914062 1.054687-.324219.121094-.636719.257813-.945313.417969-1.3125.5625-2.578125 1.238281-3.78125 2.015625-.570312.398438-1.128906.800782-1.601562 1.214844-.863281.613281-1.667969 1.308594-2.398438 2.070312-7.441406 7.472657-17.21875 12.171876-27.703125 13.304688-1.546875.167969-3.152344.058594-4.675781.273438h-.183594c-1.335937 0-2.667969-.066407-4-.207032-.695312-.066406-1.335937-.105468-1.964843-.226562-.210938 0-.914063-.085938-1.121094-.109375-.800782-.242188-1.625-.402344-2.457032-.488281-.476562-.171876-.96875-.292969-1.472656-.359376-.457031-.160156-.929687-.277343-1.40625-.355468-.628906-.128906-1.242187-.316406-1.839844-.550782-1.488281-.457031-2.945312-1.015624-4.351562-1.679687l-6.753906 14.511719c2.023437.941406 4.109375 1.742187 6.242187 2.402344 1.085938.375 2.195313.691406 3.320313.941406.335937.105468.734375.207031 1.222656.335937.226562.054688.457031.097657.6875.128907.882812.253906 1.785156.4375 2.695312.550781.785157.214843 1.589844.347656 2.402344.402343 1.125.199219 2.246094.320313 3.308594.40625 1.929688.199219 3.871094.292969 5.808594.289063.535156.003906 1.070312-.023437 1.601562-.082031 1.527344 0 3.113282-.117188 4.574219-.277344 14.128906-1.535156 27.296875-7.875 37.304687-17.960938.410157-.261718.800782-.554687 1.160157-.878906.273437-.226562.480469-.378906.433593-.351562.398438-.25.820313-.460938 1.253907-.632813l.425781-.191406c.441406-.132813.890625-.242187 1.34375-.328125.898438-.15625 1.8125-.15625 2.710938 0 .289062.070312.800781.230469 1.089843.269531l1.117188.433594c.179687.113281.363281.21875.554687.3125.109375.082031.222656.15625.34375.222656l.117188.097657c.414062.390624.863281.738281 1.347656 1.039062 2.429688 2.453125 5.085938 4.679688 7.925781 6.648438.886719.695312 1.769531 1.296874 2.863281 2.023437 3.398438 2.097656 6.957032 3.917969 10.648438 5.441406 3.039062 1.171875 6.164062 2.09375 9.351562 2.757813 1.207032.28125 2.425782.488281 3.65625.625l.359376.046875c1.382812.269531 2.78125.453125 4.1875.554687 4.945312.378906 9.921874.15625 14.8125-.65625 3.242187-.535156 6.433593-1.320312 9.554687-2.34375 1.542969-.546875 3.078125-1.097656 4.527344-1.730468 2.289062-.992188 4.523437-2.101563 6.695312-3.328126.144531-.085937.351563-.222656.609375-.40625h.0625c1.792969-1.046874 3.527344-2.183593 5.199219-3.410156 2.476563-1.828125 4.800781-3.851562 6.953125-6.046875 1.253906-1.164062 2.433594-2.410156 3.535156-3.71875 2.105469-2.511719 4.023438-5.171875 5.738282-7.960937.796874-1.367188 1.597656-2.832032 2.269531-4.105469.78125-1.46875 1.464843-2.984375 2.050781-4.542969l.574219-1.457031c.449219-1.167969.886719-2.335937 1.222656-3.421875l37.601563-118.402344 1.320312-4.382812c.734375-2.886719 1.480469-5.863282 2.0625-8.800782.089844-.335937.152344-.664062.191406-.917968.066406-.296875.113282-.597656.144532-.898438.050781-.191406.097656-.390625.128906-.582031s.089844-.496094.128906-.746094l.558594-3.679687c.027344-.183594.042968-.371094.046875-.558594l.042969-.320312c.121093-.664063.191406-1.335938.207031-2.007813.144531-1.023437.230469-1.976563.304687-2.871094.535156-5.316406.652344-10.667969.351563-16-.011719-1.660156-.121094-3.316406-.320313-4.960937-.023437-1.207032-.109375-2.410156-.265625-3.609375 0-.28125-.042969-.566407-.117187-.839844 0-.125-.050782-.34375-.089844-.566406-.167969-1.417969-.390625-2.914063-.671875-4.648438-.351563-2.222656-.71875-4.457031-1.230469-6.503906l-.367187-1.640625c-.28125-1.28125-.570313-2.566406-1.144531-4.597656-.449219-1.601563-.914063-3.203125-1.351563-4.441406-.746094-2.402344-1.601563-4.71875-2.578125-7.511719l-.488281-1.3125c-.648438-1.601563-1.289063-3.113281-1.886719-4.359375-.800781-1.921875-1.746094-3.753906-2.625-5.34375l-.105469-.191406-.070312-.113282c-20.457031-40.421875-61.929688-65.882812-107.230469-65.832031h-62.5625c-10.8125-.007813-21.578125 1.449219-32 4.335937l4.28125 15.40625c9.027344-2.488281 18.351562-3.75 27.71875-3.742187zm0 0"/><path d="m304 232.234375h16v24h-16zm0 0"/><path d="m336 232.234375h16v24h-16zm0 0"/><path d="m43.199219 356.875c6.453125 20.679688 23.273437 36.46875 44.320312 41.601562 21.046875 5.132813 43.246094-1.140624 58.496094-16.53125 3.320313-3.207031 8.582031-3.207031 11.902344 0 15.25 15.417969 37.46875 21.710938 58.535156 16.574219 21.070313-5.132812 37.902344-20.941406 44.347656-41.644531l37.496094-118.066406c10.777344-33.851563 6.222656-70.722656-12.476563-100.929688-18.695312-30.207031-49.667968-50.730468-84.773437-56.179687 1.191406-.90625 2.402344-1.792969 3.542969-2.777344 18.777344-15.21875 28.871094-38.695313 27-62.792969l-.855469-7.4375c-.410156-3.582031-3.171875-6.449218-6.734375-6.992187l-5.601562-.800781c-21.210938-2.324219-42.289063 5.417968-56.957032 20.917968-8.8125 8.695313-15.433594 19.359375-19.3125 31.113282-4.953125-8.683594-10.878906-16.773438-17.664062-24.113282l-11.714844 10.914063c10.746094 11.714843 18.992188 25.496093 24.234375 40.503906h-16.289063c-38.648437.308594-74.847656 18.957031-97.535156 50.25-22.683594 31.292969-29.152344 71.5-17.425781 108.324219zm129.441406-323.753906c10.988281-11.804688 26.800781-17.894532 42.871094-16.511719l.160156 1.359375c1.273437 18.792969-6.75 37.011719-21.472656 48.761719-10.578125 9.714843-24.785157 14.476562-39.078125 13.101562v-.253906c-1.734375-17.378906 4.757812-34.566406 17.550781-46.457031zm-51.945313 63.113281h20.953126c1.304687 6.113281 2.125 12.324219 2.457031 18.566406-10.023438-.566406-19.914063-2.554687-29.378907-5.902343l-5.453124 15.03125c27.089843 9.507812 56.609374 9.507812 83.703124 0l-5.457031-15.03125c-8.839843 3.152343-18.058593 5.113281-27.414062 5.824218-.292969-6.203125-1.007813-12.382812-2.136719-18.488281h25.335938c33.546874.300781 64.953124 16.519531 84.625 43.695313 19.671874 27.175781 25.269531 62.078124 15.078124 94.039062l-37.488281 118.058594c-4.753906 15.347656-17.214843 27.078125-32.824219 30.898437-15.605468 3.820313-32.074218-.828125-43.382812-12.242187-4.574219-4.625-10.804688-7.226563-17.308594-7.226563s-12.734375 2.601563-17.308594 7.226563c-11.308593 11.414062-27.777343 16.0625-43.386718 12.242187-15.609375-3.824219-28.070313-15.550781-32.828125-30.898437l-37.488281-118.058594c-10.191407-31.960938-4.59375-66.863281 15.074218-94.039062 19.671875-27.175782 51.082032-43.394532 84.628906-43.695313zm0 0"/><path d="m73.527344 145.832031-10.457032-12.078125c-4.796874 4.148438-9.144531 8.796875-12.964843 13.863282l12.796875 9.601562c3.128906-4.160156 6.691406-7.976562 10.625-11.386719zm0 0"/><path d="m45.601562 258.632812 15.261719-4.800781-9.375-29.550781c-5.832031-18.359375-4.308593-38.265625 4.253907-55.519531l-14.320313-7.136719c-6.234375 12.464844-9.464844 26.214844-9.421875 40.152344-.003906 9.277344 1.425781 18.503906 4.238281 27.34375zm0 0"/></svg>