<svg height="479pt" viewBox="-135 0 479 479.73257" width="479pt" xmlns="http://www.w3.org/2000/svg"><path d="m56.367188 471.734375h-48v-424l24-40 24 40zm0 0" fill="#7eb457"/><g fill="#88c25e"><path d="m56.367188 271.734375h-48v-56zm0 0"/><path d="m56.367188 95.734375h-48v-48zm0 0"/><path d="m16.367188 367.734375h40v-56zm0 0"/><path d="m8.367188 183.734375h48v-48zm0 0"/></g><path d="m152.367188 471.734375h48v-424l-24-40-24 40zm0 0" fill="#5f9548"/><path d="m152.367188 303.734375h48v-56zm0 0" fill="#68a34f"/><path d="m152.367188 127.734375h48v-48zm0 0" fill="#68a34f"/><path d="m192.367188 399.734375h-40v-56zm0 0" fill="#68a34f"/><path d="m200.367188 215.734375h-48v-48zm0 0" fill="#68a34f"/><path d="m56.367188 471.734375h48v-424l-24-40-24 40zm0 0" fill="#5f9548"/><path d="m56.367188 303.734375h48v-56zm0 0" fill="#68a34f"/><path d="m56.367188 127.734375h48v-48zm0 0" fill="#68a34f"/><path d="m96.367188 399.734375h-40v-56zm0 0" fill="#68a34f"/><path d="m104.367188 215.734375h-48v-48zm0 0" fill="#68a34f"/><path d="m152.367188 471.734375h-48v-424l24-40 24 40zm0 0" fill="#7eb457"/><path d="m152.367188 271.734375h-48v-56zm0 0" fill="#88c25e"/><path d="m152.367188 95.734375h-48v-48zm0 0" fill="#88c25e"/><path d="m112.367188 367.734375h40v-56zm0 0" fill="#88c25e"/><path d="m104.367188 183.734375h48v-48zm0 0" fill="#88c25e"/><path d="m56.367188 143.734375c-14.535157-9.6875-33.46875-9.6875-48 0v-24h48zm0 0" fill="#77ad50"/><path d="m152.367188 143.734375c-14.535157-9.6875-33.46875-9.6875-48 0v-24h48zm0 0" fill="#77ad50"/><path d="m104.367188 143.734375c-14.535157-9.6875-33.46875-9.6875-48 0v-24h48zm0 0" fill="#568741"/><path d="m200.367188 143.734375c-14.535157-9.6875-33.46875-9.6875-48 0v-24h48zm0 0" fill="#568741"/><path d="m56.367188 415.734375c-14.535157-9.6875-33.46875-9.6875-48 0v-24h48zm0 0" fill="#77ad50"/><path d="m152.367188 415.734375c-14.535157-9.6875-33.46875-9.6875-48 0v-24h48zm0 0" fill="#77ad50"/><path d="m104.367188 415.734375c-14.535157-9.6875-33.46875-9.6875-48 0v-24h48zm0 0" fill="#568741"/><path d="m200.367188 415.734375c-14.535157-9.6875-33.46875-9.6875-48 0v-24h48zm0 0" fill="#568741"/><path d="m8.367188 95.734375h192v32h-192zm0 0" fill="#4db7e5"/><path d="m8.367188 367.734375h192v32h-192zm0 0" fill="#4db7e5"/><path d="m104.367188 127.734375h96v-32h-64zm0 0" fill="#48add9"/><path d="m104.367188 399.734375h96v-32h-64zm0 0" fill="#48add9"/><path d="m8.367188 479.734375h192c4.417968 0 8-3.582031 8-8v-424c0-1.453125-.398438-2.878906-1.144532-4.121094l-24-40c-1.550781-2.261719-4.113281-3.613281-6.855468-3.613281-2.742188 0-5.308594 1.351562-6.855469 3.613281l-17.144531 28.566407-17.144532-28.566407c-1.550781-2.261719-4.113281-3.613281-6.855468-3.613281-2.742188 0-5.308594 1.351562-6.855469 3.613281l-17.144531 28.566407-17.144532-28.566407c-1.550781-2.261719-4.113281-3.613281-6.855468-3.613281-2.742188 0-5.308594 1.351562-6.855469 3.613281l-17.144531 28.566407-17.144532-28.566407c-1.550781-2.261719-4.113281-3.613281-6.855468-3.613281-2.742188 0-5.308594 1.351562-6.855469 3.613281l-24 40c-.195313.363281-.359375.742188-.488281 1.136719-.121094.242188-.226563.488281-.320313.742188-.21875.726562-.332031 1.480468-.335937 2.242187v424c0 4.417969 3.582031 8 8 8zm8-412.691406 20.6875 20.691406h-20.6875zm96 12.691406v-12.691406l20.6875 20.691406h-20.6875zm-8 24h88v16h-176v-16zm88 288h-176v-16h176zm0-96h-22.609376l22.609376-26.402344zm0-50.960937-32 37.359374v-58.398437h32zm-64.457032 114.960937 16.457032-23.035156v23.035156zm16.457032-50.570313-32 44.800782v-74.230469h32zm-32-61.429687v-10.402344l22.605468 26.402344h-22.605468zm-16 24v24h-22.609376l22.609376-26.402344zm64-84.691406 20.6875 20.691406h-20.6875zm-16-19.308594v8h-20.6875l20.6875-20.691406zm0 24v58.398437l-32-37.359374v-21.039063zm-48 53.039063-32 37.359374v-58.398437h32zm-32-37.039063v-20.691406l20.6875 20.691406zm-16-40v8h-20.6875l20.6875-20.691406zm0 176v16h-16.457032l16.457032-23.035156zm29.238281 16-13.238281-18.5625v-29.4375h32v48zm82.761719-195.3125v-28.6875h32v60.6875zm-48 0v-28.6875h28.6875zm-16 32-32-32v-28.6875h32zm-80-32v-28.6875h28.6875zm32 27.3125v58.398437l-32-37.359374v-21.039063zm-32 45.597656 22.605468 26.402344h-22.605468zm32 42.402344v29.429687l-32 44.800782v-74.230469zm125.238281 80-13.238281-18.5625v-29.4375h32v48zm-157.238281 48h32v56h-32zm48 0h32v56h-32zm48 0h32v56h-32zm80 56h-32v-56h32zm-16-440.449219 16 26.664063v26.472656l-11.3125 11.3125h-20.6875v-37.785156zm-48 0 16 26.664063v26.472656l-29.929688-29.929687zm-48 0 16 26.664063v26.472656l-11.3125 11.3125h-20.6875v-37.785156zm-48 0 16 26.664063v26.472656l-29.929688-29.929687zm0 0"/></svg>