<svg height="480pt" viewBox="0 0 480 480.02369" width="480pt" xmlns="http://www.w3.org/2000/svg"><path d="m412.390625 105.953125-1.34375-10.625c-6.308594-49.894531-48.75-87.304687-99.039063-87.304687-50.289062 0-92.730468 37.410156-99.039062 87.304687l-.546875 4.304687c-5.4375 47.9375-19.574219 94.484376-41.71875 137.351563-11.976563 22.441406-18.386719 47.433594-18.695313 72.871094-.597656 88.367187 70.550782 160.484375 158.914063 161.085937 88.367187.597656 160.488281-70.550781 161.085937-158.917968.035157-24.683594-5.675781-49.035157-16.679687-71.128907-21.808594-42.242187-36.324219-87.863281-42.9375-134.941406zm0 0" fill="#ffb531"/><path d="m416.007812 312.023438c0 57.4375-46.5625 104-104 104s-104-46.5625-104-104 46.5625-104 104-104 104 46.5625 104 104zm0 0" fill="#95573a"/><path d="m340.863281 411.878906c-39.089843 11.378906-81.222656-1.097656-107.816406-31.925781-26.589844-30.828125-32.75-74.335937-15.757813-111.332031 16.992188-37 54.007813-60.679688 94.71875-60.597656 2.480469 0 4.910157.199218 7.351563.367187-9.085937-25.386719-15.445313-51.667969-18.96875-78.398437l-1.34375-10.625c-4.480469-35.285157-27.410156-65.515626-60.183594-79.34375-14.226562 15.273437-23.285156 34.636718-25.894531 55.34375l-.546875 4.304687c-5.441406 47.925781-19.578125 94.457031-41.71875 137.3125-11.976563 22.441406-18.386719 47.433594-18.695313 72.871094-.46875 79.421875 56.90625 147.382812 135.28125 160.238281 22.429688-14.636719 40.847657-34.648438 53.574219-58.214844zm0 0" fill="#f7a116"/><path d="m208.007812 312.023438c-.058593 32.703124 15.296876 63.523437 41.441407 83.171874 26.140625 19.652344 60.015625 25.832032 91.414062 16.683594 24.625-45.691406 25.546875-100.492187 2.464844-146.984375-9.164063-18.316406-17.179687-37.1875-24-56.503906-2.410156-.167969-4.839844-.367187-7.320313-.367187-57.4375 0-104 46.5625-104 104zm0 0" fill="#8f4d2e"/><path d="m268.390625 105.953125-1.34375-10.625c-6.308594-49.894531-48.75-87.304687-99.039063-87.304687-50.289062 0-92.730468 37.410156-99.039062 87.304687l-.546875 4.304687c-5.4375 47.9375-19.574219 94.484376-41.71875 137.351563-11.972656 22.445313-18.382813 47.433594-18.695313 72.871094-.597656 88.367187 70.550782 160.484375 158.914063 161.085937 88.367187.597656 160.488281-70.550781 161.085937-158.917968.035157-24.683594-5.675781-49.035157-16.679687-71.128907-21.808594-42.242187-36.324219-87.863281-42.9375-134.941406zm0 0" fill="#5f9548"/><path d="m311.328125 240.894531c-19.238281-37.574219-32.894531-77.753906-40.542969-119.269531-37.976562 172.71875-164.378906 231.832031-250.035156 252 29.257812 70.390625 104.171875 110.304688 178.914062 95.320312 74.742188-14.984374 128.484376-80.691406 128.34375-156.921874.035157-24.683594-5.675781-49.035157-16.679687-71.128907zm0 0" fill="#568741"/><path d="m68.464844 245.199219-13.257813-8.96875c3.488281-5.144531 6.800781-10.445313 9.863281-15.765625l13.875 8c-3.257812 5.628906-6.785156 11.269531-10.480468 16.734375zm0 0" fill="#68a34f"/><path d="m66 401.824219c-21.335938-24.183594-33.382812-55.160157-33.992188-87.402344-.445312-21.445313 4.273438-42.683594 13.75-61.925781l14.402344 7.054687c-8.363281 16.964844-12.53125 35.691407-12.152344 54.601563.546876 28.433594 11.183594 55.75 30.007813 77.070312zm0 0" fill="#68a34f"/><path d="m420.34375 104.925781-1.359375-10.628906c-4.582031-36.234375-27.199219-67.683594-60.089844-83.558594-32.886719-15.875-71.578125-14.019531-102.800781 4.933594l8.3125 13.671875c26.589844-16.136719 59.539062-17.710938 87.546875-4.1875s47.261719 40.308594 51.160156 71.164062l1.359375 10.625c6.628906 47.992188 21.394532 94.503907 43.664063 137.535157 26.796875 53.703125 19.433593 118.152343-18.785157 164.429687-38.222656 46.273438-100.121093 65.683594-157.921874 49.511719l-4.34375 15.402344c11.726562 3.308593 23.78125 5.304687 35.945312 5.953125 3.039062.160156 6.054688.238281 9.074219.238281 58.125-.007813 112.109375-30.074219 142.722656-79.484375s33.5-111.136719 7.628906-163.1875c-21.464843-41.421875-35.707031-86.203125-42.113281-132.417969zm0 0"/><path d="m319.589844 407.726562 1.25 15.953126c57.734375-4.53125 102.496094-52.328126 103.230468-110.238282.730469-57.910156-42.804687-106.828125-100.40625-112.816406l-1.601562 15.910156c49.398438 5.105469 86.746094 47.042969 86.121094 96.695313-.621094 49.65625-39.011719 90.640625-88.519532 94.503906zm0 0"/><path d="m159.007812 479.785156c3.050782.160156 6.085938.238282 9.113282.238282 58.125-.027344 112.109375-30.097657 142.726562-79.507813 30.617188-49.40625 33.519532-111.132813 7.671875-163.195313-21.480469-41.402343-35.738281-86.167968-42.160156-132.367187l-1.34375-10.625c-6.800781-53.90625-52.644531-94.328125-106.976563-94.328125-54.332031 0-100.175781 40.421875-106.976562 94.328125l-.542969 4.3125c-5.316406 46.976563-19.171875 92.585937-40.878906 134.582031-26.90625 50.65625-26.105469 111.539063 2.117187 161.472656 28.226563 49.933594 79.976563 82.015626 137.25 85.089844zm-125.238281-239.035156c22.605469-43.71875 37.039063-91.203125 42.589844-140.109375l.542969-4.304687c5.8125-45.890626 44.851562-80.292969 91.105468-80.292969 46.253907 0 85.289063 34.402343 91.105469 80.292969l1.34375 10.625c6.644531 47.984374 21.425781 94.484374 43.710938 137.496093 24.03125 48.421875 20.535156 105.960938-9.175781 151.121094-29.714844 45.15625-81.175782 71.136719-135.152344 68.230469-81.160156-5.015625-144.28125-72.527344-143.832032-153.839844.253907-24.167969 6.347657-47.914062 17.761719-69.21875zm0 0"/><path d="m78.945312 228.441406-13.875-8c-3.0625 5.316406-6.398437 10.621094-9.863281 15.765625l13.257813 8.96875c3.695312-5.441406 7.222656-11.082031 10.480468-16.734375zm0 0"/><path d="m78.015625 391.222656c-18.824219-21.320312-29.460937-48.636718-30.007813-77.070312-.394531-18.90625 3.761719-37.632813 12.113282-54.601563l-14.363282-7.054687c-9.476562 19.242187-14.195312 40.480468-13.75 61.925781.605469 32.242187 12.648438 63.21875 33.976563 87.402344zm0 0"/></svg>