<svg height="480pt" viewBox="0 -8 480.12056 480" width="480pt" xmlns="http://www.w3.org/2000/svg"><path d="m14.601562 75.742188c-3.789062-16.976563-5.957031-34.277344-6.480468-51.664063l32-16c8 24 11.257812 25.472656 21.136718 44.121094zm0 0" fill="#95573a"/><path d="m424.121094 56.078125 16-32 32 15.039063-6.480469 36.625zm0 0" fill="#95573a"/><path d="m240.121094 192.078125c98.402344 0 184.304687-53.761719 202.96875-127.390625l-18.96875-9.296875c-36.09375 47.480469-95.832032 69-162.289063 72.207031-7.21875.351563-14.457031.511719-21.710937.480469-25.464844.074219-50.832032-3.09375-75.496094-9.433594-40.4375-11.03125-76.519531-34.207031-103.367188-66.398437l-20.335937 10.230468c18.398437 73.882813 100.566406 129.601563 199.199219 129.601563zm0 0" fill="#ffb531"/><path d="m443.089844 64.6875c-18.664063 73.628906-104.566406 127.390625-202.96875 127.390625-98.632813 0-180.800782-55.71875-199.199219-129.601563l-26.320313 13.265626c15.121094 107.007812 111.519532 188.335937 225.519532 188.335937s210.402344-81.328125 225.519531-188.335937zm0 0" fill="#ffa912"/><path d="m449.722656 256.4375-19.121094-8.359375c-36.097656 57.753906-95.832031 75.847656-162.289062 79.761719-7.199219.421875-28.191406.160156-28.191406.160156v128.078125c114 0 216.847656-81.328125 232-188.335937zm0 0" fill="#fae998"/><path d="m304.121094 392.078125c0 35.347656-28.652344 64-64 64-35.34375 0-64-28.652344-64-64s28.65625-64 64-64c35.347656 0 64 28.652344 64 64zm0 0" fill="#fff0a6"/><path d="m264.082031 389.773438c-.988281-26.769532-18.546875-50.09375-44-58.449219-26.195312 8.675781-43.882812 33.164062-43.882812 60.757812s17.6875 52.082031 43.882812 60.757813c27.066407-8.886719 45.003907-34.59375 44-63.066406zm0 0" fill="#fae998"/><path d="m248.121094 380.765625v-28.6875h-16v28.6875l-29.65625 29.65625 11.3125 11.3125 26.34375-26.34375 26.34375 26.34375 11.3125-11.3125zm0 0" fill="#f5e082"/><path d="m248.121094 392.078125c0 35.347656-28.652344 64-64 64-35.34375 0-64-28.652344-64-64s28.65625-64 64-64c35.347656 0 64 28.652344 64 64zm0 0" fill="#fff0a6"/><path d="m208.121094 389.773438c-.988282-26.769532-18.546875-50.09375-44-58.449219-26.195313 8.675781-43.882813 33.164062-43.882813 60.757812s17.6875 52.082031 43.882813 60.757813c27.070312-8.886719 45.003906-34.59375 44-63.066406zm0 0" fill="#fae998"/><path d="m192.121094 380.765625v-28.6875h-16v28.6875l-29.65625 29.65625 11.3125 11.3125 26.34375-26.34375 26.34375 26.34375 11.3125-11.3125zm0 0" fill="#f5e082"/><path d="m192.121094 392.078125c0 35.347656-28.652344 64-64 64-35.34375 0-64-28.652344-64-64s28.65625-64 64-64c35.347656 0 64 28.652344 64 64zm0 0" fill="#fff0a6"/><path d="m152.121094 389.773438c-.988282-26.769532-18.546875-50.09375-44-58.449219-26.195313 8.675781-43.882813 33.164062-43.882813 60.757812s17.6875 52.082031 43.882813 60.757813c27.070312-8.886719 45.003906-34.59375 44-63.066406zm0 0" fill="#fae998"/><path d="m136.121094 380.765625v-28.6875h-16v28.6875l-29.65625 29.65625 11.3125 11.3125 26.34375-26.34375 26.34375 26.34375 11.3125-11.3125zm0 0" fill="#f5e082"/><path d="m337.167969 395.046875-4.796875-15.273437c31.019531-11.042969 57.917968-31.316407 77.078125-58.09375l13.34375 8.796874c-21.074219 29.960938-51.023438 52.546876-85.625 64.570313zm0 0" fill="#fff0a6"/><path d="m136.121094 392.078125c0 35.347656-28.652344 64-64 64-35.34375 0-64-28.652344-64-64s28.65625-64 64-64c35.347656 0 64 28.652344 64 64zm0 0" fill="#fff0a6"/><path d="m96.121094 389.773438c-.988282-26.769532-18.546875-50.09375-44-58.449219-26.226563 8.65625-43.941406 33.160156-43.941406 60.777343 0 27.617188 17.714843 52.121094 43.941406 60.777344 27.082031-8.890625 45.023437-34.617187 44-63.105468zm0 0" fill="#fae998"/><path d="m80.121094 380.765625v-28.6875h-16v28.6875l-29.65625 29.65625 11.3125 11.3125 26.34375-26.34375 26.34375 26.34375 11.3125-11.3125zm0 0" fill="#f5e082"/><path d="m6.722656 77.132812c15.902344 111.160157 116.175782 194.945313 233.398438 194.945313 117.226562 0 217.488281-83.777344 233.382812-194.921875l6.472656-36.621094c.632813-3.554687-1.199218-7.09375-4.460937-8.632812l-32-15.039063c-3.933594-1.855469-8.628906-.226562-10.570313 3.664063l-14.855468 29.71875c-.113282.128906-.257813.191406-.351563.328125-40.121093 52.800781-107.136719 66.679687-156.304687 69.054687-7.246094.359375-14.398438.511719-21.28125.464844-24.777344.074219-49.46875-3.003906-73.46875-9.160156-38.648438-10.554688-73.140625-32.683594-98.851563-63.40625-2.664062-4.976563-4.855469-8.800782-6.796875-12.097656-5.707031-9.347657-10.1875-19.390626-13.328125-29.878907-.730469-2.210937-2.390625-3.992187-4.539062-4.882812-2.152344-.890625-4.582031-.796875-6.664063.25l-32 16c-2.695312 1.367187-4.390625 4.136719-4.382812 7.160156.386718 16.480469 2.355468 32.886719 5.878906 48.992187zm233.398438 178.945313c-107.40625 0-199.527344-75.199219-216.710938-175.816406l12.632813-6.398438c23.992187 73.671875 107.832031 126.214844 204.078125 126.214844 98.34375 0 183.5625-51.542969 207.777344-123.886719l8.910156 4.214844c-17.253906 100.558594-109.335938 175.671875-216.6875 175.671875zm203.664062-221.441406 19.390625 9.113281-3.558593 20.128906-24.457032-12zm-281.222656 91.730469c25.316406 6.511718 51.359375 9.777343 77.503906 9.710937 7.226563.042969 14.609375-.117187 22.152344-.480469 72.238281-3.496094 128.671875-27.582031 163.800781-69.757812l7.277344 3.445312c-21.128906 66.898438-100.78125 114.792969-193.175781 114.792969-90.398438 0-168.800782-49.078125-189.597656-117.496094l8.855468-4.472656c27.324219 31.105469 63.214844 53.457031 103.183594 64.257813zm-126.984375-107.089844c3.046875 8.441406 6.941406 16.550781 11.632813 24.199218.941406 1.601563 1.957031 3.363282 3.0625 5.304688l-29.664063 14.96875c-2.328125-11.464844-3.800781-23.085938-4.40625-34.769531zm0 0"/><path d="m72.019531 464.078125c9.679688.007813 19.261719-1.949219 28.167969-5.753906 17.855469 7.691406 38.09375 7.671875 55.933594-.054688 17.863281 7.746094 38.136718 7.746094 56 0 8.84375 3.820313 18.371094 5.796875 28 5.808594 1.320312 0 2.648437 0 3.394531-.078125 117.40625-1.585938 221.292969-87.296875 236.527344-195.121094.476562-3.390625-1.253907-6.710937-4.304688-8.257812l-22.816406-11.558594-19.128906-8.320312c-3.632813-1.585938-7.882813-.269532-9.984375 3.097656-29.957032 48-78.078125 71.414062-156 76-6.847656.367187-27.421875.140625-27.613282.140625-.195312 0-.34375.089843-.511718.105469-9.496094.0625-18.878906 2.03125-27.59375 5.792968-17.902344-7.558594-38.097656-7.558594-56 0-17.875-7.539062-38.035156-7.5625-55.929688-.066406-26.875-11.421875-57.988281-5.476562-78.765625 15.046875-20.773437 20.527344-27.089843 51.566406-15.992187 78.578125 11.097656 27.015625 37.410156 44.648438 66.617187 44.640625zm158.222657-17.039063c6.816406-5.625 12.53125-12.464843 16.855468-20.167968 3.078125-5.53125 5.398438-11.449219 6.894532-17.601563l12.472656 12.472657 11.3125-11.3125-21.878906-21.878907c-.472657-10.9375-3.472657-21.617187-8.761719-31.199219-4.351563-7.757812-10.109375-14.640624-16.976563-20.296874 20.640625-3.933594 41.742188 4.015624 54.660156 20.585937 12.914063 16.570313 15.464844 38.976563 6.609376 58.03125-8.859376 19.050781-27.632813 31.542969-48.628907 32.351563-.71875.054687-1.488281.046874-2.253906.046874-3.457031-.070312-6.902344-.414062-10.304687-1.03125zm203.367187-188.9375 12.496094 5.433594 17.214843 8.726563c-14.292968 82.398437-84.664062 149.984375-171.382812 169.847656 14.324219-14.820313 21.59375-35.074219 19.96875-55.617187-1.625-20.546876-11.992188-39.40625-28.464844-51.789063 48.832032-4.472656 110.96875-19.160156 150.167969-76.601563zm-224.992187 83.648438c10.382812 5.078125 18.949218 13.234375 24.527343 23.359375 9.328125 16.792969 9.328125 37.210937 0 54-11.542969 21.050781-35.273437 32.335937-58.886719 28 6.824219-5.660156 12.554688-12.527344 16.902344-20.253906 3.035156-5.542969 5.324219-11.460938 6.808594-17.601563l12.535156 12.496094 11.3125-11.3125-21.949218-21.878906c-.484376-10.929688-3.464844-21.601563-8.714844-31.199219-4.34375-7.726563-10.070313-14.589844-16.894532-20.25 11.65625-2.136719 23.6875-.511719 34.359376 4.640625zm-56 0c25.152343 12.175781 37.457031 41.054688 28.8125 67.628906-8.644532 26.574219-35.582032 42.691406-63.082032 37.738282 11.648438-9.824219 19.886719-23.09375 23.527344-37.894532l12.511719 12.511719 11.3125-11.3125-21.859375-21.855469c-.953125-19.980468-10.195313-38.65625-25.503906-51.527344 11.640624-2.089843 23.640624-.4375 34.28125 4.710938zm-80.597657-5.671875c30.925781 0 56 25.070313 56 56s-25.074219 56-56 56c-30.929687 0-56-25.070313-56-56 .035157-30.914063 25.085938-55.964844 56-56zm0 0"/><path d="m45.671875 421.734375 26.347656-26.34375 26.34375 26.34375 11.308594-11.3125-29.628906-29.632813v-28.710937h-16v28.664063l-29.679688 29.679687zm0 0"/><path d="m422.792969 330.476562-13.34375-8.796874c-19.152344 26.777343-46.042969 47.058593-77.054688 58.109374l4.800781 15.273438c34.589844-12.035156 64.53125-34.625 85.597657-64.585938zm0 0"/></svg>