<svg height="480pt" viewBox="0 0 480 480.0005" width="480pt" xmlns="http://www.w3.org/2000/svg"><path d="m311.941406 312v56c0 8.835938-7.164062 16-16 16h-16v-72h-80v64h-16c-8.839844 0-16-7.164062-16-16v-48h-32v48c0 26.511719 21.488282 48 48 48h16v64h80v-56h16c26.507813 0 48-21.488281 48-48v-56zm0 0" fill="#7eb457"/><path d="m199.941406 400h32v16h-32zm0 0" fill="#88c25e"/><path d="m247.941406 376h32v16h-32zm0 0" fill="#88c25e"/><path d="m247.941406 432h32v16h-32zm0 0" fill="#88c25e"/><path d="m279.941406 360.527344v-48.527344h-80v48.527344c25.734375 9.964844 54.261719 9.964844 80 0zm0 0" fill="#77ad50"/><path d="m311.941406 312v29.480469c1.191406-1.007813 2.398438-1.953125 3.589844-3.007813 8.492188 6.910156 18.097656 12.320313 28.410156 16v-42.472656zm0 0" fill="#77ad50"/><path d="m167.941406 341.480469v-29.480469h-32v42.464844c10.308594-3.679688 19.914063-9.089844 28.40625-16 1.191406 1.0625 2.398438 2.007812 3.59375 3.015625zm0 0" fill="#77ad50"/><path d="m430.285156 168.898438c5.882813-29.515626-3.765625-59.984376-25.566406-80.726563-21.804688-20.742187-52.714844-28.863281-81.898438-21.515625-12.394531-35.148438-45.609374-58.660156-82.878906-58.660156-37.273437 0-70.488281 23.511718-82.882812 58.660156-29.171875-7.269531-60.035156.878906-81.8125 21.601562-21.78125 20.722657-31.457032 51.140626-25.648438 80.640626-28.945312 19.941406-44.664062 54.121093-40.972656 89.074218 3.695312 34.957032 26.210938 65.09375 58.683594 78.550782 32.472656 13.453124 69.703125 8.074218 97.039062-14.027344 42.707032 39.382812 108.492188 39.382812 151.199219 0 27.335937 22.101562 64.566406 27.480468 97.039063 14.027344 32.476562-13.457032 54.988281-43.59375 58.683593-78.550782 3.691407-34.953125-12.027343-69.132812-40.96875-89.074218zm0 0" fill="#5f9548"/><path d="m430.285156 168.898438c6.992188-35.480469-8.5-71.613282-39.015625-91.011719-48.640625 185.027343-285.417969 224.371093-360.441406 232.242187 33.703125 39.816406 93.085937 45.304688 133.519531 12.34375 42.707032 39.382813 108.492188 39.382813 151.199219 0 27.335937 22.097656 64.566406 27.480469 97.039063 14.027344 32.476562-13.457031 54.988281-43.59375 58.683593-78.550781 3.691407-34.953125-12.027343-69.132813-40.96875-89.078125zm0 0" fill="#568741"/><g fill="#7eb457"><path d="m231.941406 48h16v16h-16zm0 0"/><path d="m191.941406 80h16v16h-16zm0 0"/><path d="m119.941406 96h16v16h-16zm0 0"/><path d="m87.941406 128h16v16h-16zm0 0"/><path d="m231.941406 112h16v16h-16zm0 0"/><path d="m71.941406 208h16v16h-16zm0 0"/><path d="m39.941406 240h16v16h-16zm0 0"/><path d="m71.941406 280h16v16h-16zm0 0"/><path d="m343.941406 104h16v16h-16zm0 0"/><path d="m311.941406 136h16v16h-16zm0 0"/><path d="m351.941406 192h16v16h-16zm0 0"/><path d="m319.941406 224h16v16h-16zm0 0"/><path d="m399.941406 208h16v16h-16zm0 0"/><path d="m167.941406 248h16v16h-16zm0 0"/><path d="m207.941406 288h16v16h-16zm0 0"/><path d="m383.941406 272h16v16h-16zm0 0"/></g><path d="m438.988281 165.335938c3.910157-27.523438-4.324219-55.386719-22.5625-76.367188s-44.6875-33.011719-72.484375-32.96875c-5.421875.015625-10.832031.496094-16.167968 1.441406-15.269532-34.894531-49.746094-57.441406-87.832032-57.441406-38.089844 0-72.566406 22.546875-87.832031 57.441406-5.339844-.945312-10.75-1.425781-16.167969-1.441406-27.800781-.042969-54.25 11.988281-72.488281 32.96875s-26.46875 48.84375-22.5625 76.367188c-35.441406 27.058593-49.691406 73.699218-35.421875 115.945312s53.882812 70.695312 98.472656 70.71875c8.082032-.003906 16.136719-.964844 24-2.855469v10.855469c.035156 30.914062 25.085938 55.964844 56 56h8v56c0 4.417969 3.582032 8 8 8h80c4.417969 0 8-3.582031 8-8v-48h8c30.910156-.035156 55.964844-25.085938 56-56v-18.855469c7.859375 1.890625 15.914063 2.851563 24 2.855469 44.589844-.023438 84.199219-28.472656 98.46875-70.71875 14.269532-42.246094.019532-88.886719-35.421875-115.945312zm-103.046875 202.664062c-.027344 22.082031-17.921875 39.972656-40 40h-16c-4.417968 0-8 3.582031-8 8v16h-24v16h24v16h-64v-48h24v-16h-48c-22.082031-.027344-39.976562-17.917969-40-40v-16.121094c5.566406-2.34375 10.921875-5.171875 16-8.445312v24.566406c0 13.253906 10.742188 24 24 24h16c4.417969 0 8-3.582031 8-8v-20.421875c20.925782 5.898437 43.074219 5.898437 64 0v20.421875h-24v16h48c13.253906 0 24-10.746094 24-24v-32.566406c5.078125 3.273437 10.429688 6.101562 16 8.445312zm-160-26.726562c5.109375 3.257812 10.457032 6.125 16 8.574218v18.152344h-8c-4.417968 0-8-3.582031-8-8zm112 8.574218c5.539063-2.449218 10.890625-5.316406 16-8.574218v26.726562c0 4.417969-3.582031 8-8 8h-8zm88-13.847656c-20.1875.058594-39.765625-6.921875-55.363281-19.734375-3.078125-2.503906-7.527344-2.371094-10.453125.3125-39.648438 36.5625-100.722656 36.5625-140.367188 0-2.925781-2.683594-7.378906-2.816406-10.457031-.3125-15.597656 12.8125-35.175781 19.792969-55.359375 19.734375-38.539062-.023438-72.574218-25.113281-83.996094-61.917969-11.421874-36.804687 2.433594-76.757812 34.1875-98.59375 2.625-1.804687 3.929688-5 3.320313-8.128906-5.375-26.832031 3.386719-54.546875 23.214844-73.410156 19.824219-18.867188 47.9375-26.246094 74.472656-19.546875 3.992187.984375 8.082031-1.222656 9.457031-5.097656 11.261719-31.957032 41.460938-53.328126 75.34375-53.328126 33.882813 0 64.078125 21.371094 75.34375 53.328126 1.371094 3.875 5.460938 6.082031 9.453125 5.097656 26.527344-6.628906 54.597657.773437 74.402344 19.621094 19.804687 18.847656 28.59375 46.515624 23.289063 73.335937-.613282 3.128906.691406 6.324219 3.316406 8.128906 31.753906 21.835938 45.609375 61.789063 34.1875 98.59375-11.417969 36.804688-45.457032 61.894531-83.992188 61.917969zm0 0"/><path d="m231.941406 48h16v16h-16zm0 0"/><path d="m191.941406 80h16v16h-16zm0 0"/><path d="m119.941406 96h16v16h-16zm0 0"/><path d="m87.941406 128h16v16h-16zm0 0"/><path d="m231.941406 112h16v16h-16zm0 0"/><path d="m71.941406 208h16v16h-16zm0 0"/><path d="m39.941406 240h16v16h-16zm0 0"/><path d="m71.941406 280h16v16h-16zm0 0"/><path d="m343.941406 104h16v16h-16zm0 0"/><path d="m311.941406 136h16v16h-16zm0 0"/><path d="m351.941406 192h16v16h-16zm0 0"/><path d="m319.941406 224h16v16h-16zm0 0"/><path d="m399.941406 208h16v16h-16zm0 0"/><path d="m167.941406 248h16v16h-16zm0 0"/><path d="m207.941406 288h16v16h-16zm0 0"/><path d="m383.941406 272h16v16h-16zm0 0"/></svg>