<svg height="479pt" viewBox="0 0 479.9986 479" width="479pt" xmlns="http://www.w3.org/2000/svg"><path d="m42.648438 472.492188c-19.136719 0-34.648438-15.515626-34.648438-34.648438 0-8.59375 3.191406-16.878906 8.960938-23.25l265.085937-300.183594c7.769531-8.796875 18.828125-13.992187 30.5625-14.355468 11.730469-.363282 23.089844 4.136718 31.390625 12.4375l24 24c8.300781 8.296874 12.800781 19.65625 12.4375 31.390624-.363281 11.730469-5.558594 22.789063-14.359375 30.558594l-300.183594 265.089844c-6.367187 5.765625-14.65625 8.960938-23.246093 8.960938zm0 0" fill="#f98500"/><path d="m368 136.492188-.054688-.058594c.191407 13.46875-5.511718 26.347656-15.609374 35.257812l-327.039063 288.800782c-1.53125 1.355468-3.171875 2.585937-4.90625 3.679687 13.15625 11.308594 32.683594 11.023437 45.503906-.664063l300.183594-265.066406c8.800781-7.769531 13.996094-18.828125 14.359375-30.558594.363281-11.734374-4.136719-23.09375-12.4375-31.390624zm0 0" fill="#f27900"/><path d="m344 112.492188 104-64 24 24-96 72zm0 0" fill="#69a340"/><path d="m344 112.492188 64-104 24 24-56 112zm0 0" fill="#7eb457"/><g fill="#e66000"><path d="m309.65625 154.835938-33.617188-33.617188-10.617187 12.007812 32.921875 32.921876zm0 0"/><path d="m237.65625 226.835938-29.152344-29.152344-10.609375 12.015625 28.449219 28.449219zm0 0"/><path d="m282.34375 230.148438 22.433594 22.429687 12.015625-10.605469-23.136719-23.136718zm0 0"/><path d="m250.339844 198.148438 11.316406-11.3125 15.996094 16-11.3125 11.3125zm0 0"/><path d="m189.65625 258.835938-18.664062-18.664063-10.617188 12.007813 17.96875 17.96875zm0 0"/><path d="m149.65625 314.835938-23.6875-23.6875-10.609375 12.015624 22.984375 22.984376zm0 0"/><path d="m101.65625 370.835938-24.457031-24.457032-10.617188 12.007813 23.761719 23.761719zm0 0"/><path d="m66.34375 422.148438 21.769531 21.765624 12.015625-10.605468-22.472656-22.472656zm0 0"/><path d="m194.34375 286.148438 11.3125-11.3125 16 15.996093-11.3125 11.316407zm0 0"/></g><path d="m42.648438 480.492188c10.546874.015624 20.722656-3.890626 28.550781-10.960938l300.175781-265.089844c15.980469-14.144531 21.382812-36.785156 13.511719-56.621094l91.914062-68.929687c1.855469-1.390625 3.011719-3.519531 3.175781-5.832031.167969-2.3125-.679687-4.582032-2.320312-6.222656l-24-24c-2.621094-2.617188-6.695312-3.09375-9.847656-1.152344l-10.785156 6.648437 6.175781-12.265625c1.539062-3.078125.933593-6.796875-1.503907-9.230468l-24-24c-1.738281-1.710938-4.15625-2.550782-6.582031-2.289063-2.433593.28125-4.605469 1.664063-5.890625 3.753906l-59.199218 96.230469c-8.746094-5.832031-19.09375-8.792969-29.601563-8.472656-13.953125.371094-27.113281 6.554687-36.308594 17.054687l-265.097656 300.113281c-11.308594 12.507813-14.1875 30.503907-7.347656 45.914063 6.839843 15.410156 22.117187 25.347656 38.980469 25.351563zm404.167968-421.875 13.007813 13.007812-61.511719 46.128906 21.128906-42.261718zm-37.3125-37.328126 12.757813 12.800782-48.453125 96.898437-19.679688-19.679687zm-386.550781 398.601563 49.300781-55.832031 18.089844 18.089844 11.3125-11.3125-18.792969-18.792969 38.167969-43.199219 17.3125 17.3125 11.3125-11.3125-18.015625-18.015625 34.398437-38.96875 12.296876 12.296875 11.3125-11.3125-12.992188-13 26.902344-30.464844 22.777344 22.777344 11.3125-11.3125-23.480469-23.480469 56.925781-64.472656 27.25 27.25 11.3125-11.3125-27.945312-27.9375 6.335937-7.199219c6.28125-7.175781 15.269531-11.402344 24.800781-11.65625h1.121094c9.152344-.023437 17.929688 3.621094 24.375 10.121094l24 24c6.75 6.738281 10.414062 15.96875 10.121094 25.5-.292969 9.535156-4.515625 18.523438-11.664063 24.835938l-49.65625 43.855468-17.472656-17.472656-11.3125 11.3125 16.800781 16.800781-204.695312 180.65625-16.800782-16.800781-11.3125 11.3125 16.105469 16.101562-21.921875 19.351563c-10.523437 9.691406-26.820312 9.339844-36.917968-.789063-10.101563-10.128906-10.402344-26.425781-.679688-36.921874zm0 0"/><path d="m250.339844 198.148438 11.316406-11.3125 15.996094 16-11.3125 11.3125zm0 0"/><path d="m194.34375 286.148438 11.3125-11.3125 16 15.996093-11.3125 11.316407zm0 0"/></svg>