<svg height="480pt" viewBox="0 0 480.24565 480" width="480pt" xmlns="http://www.w3.org/2000/svg"><path d="m148.027344 274.550781 21.597656 4.320313 4.320312 21.601562c7.667969 38.335938-4.339843 77.96875-32 105.597656-27.632812 27.660157-67.261718 39.671876-105.601562 32l-21.597656-4.320312-4.320313-21.597656c-7.667969-38.335938 4.339844-77.96875 32-105.601563 27.632813-27.65625 67.261719-39.667969 105.601563-32zm0 0" fill="#69a340"/><path d="m32.21875 368.28125v16h20.6875l-18.34375 18.34375 11.3125 11.3125 18.34375-18.34375v20.6875h16v-36.6875l16-16v36.6875h16v-52.6875l16-16v36.6875h16v-52.6875l31.0625-31.066406-11.3125-11.3125-31.0625 31.066406h-52.6875v16h36.6875l-16 16h-52.6875v16h36.6875l-16 16zm0 0" fill="#7eb457"/><path d="m173.945312 148.085938-4.320312 21.601562-21.597656 4.320312c-38.339844 7.667969-77.96875-4.339843-105.601563-32-27.660156-27.632812-39.667969-67.261718-32-105.601562l4.320313-21.597656 21.597656-4.320313c38.339844-7.667969 77.96875 4.339844 105.601562 32 27.660157 27.628907 39.667969 67.261719 32 105.597657zm0 0" fill="#69a340"/><path d="m32.21875 80.28125h36.6875l16 16h-36.6875v16h52.6875l16 16h-35.976562v16h51.976562l31.0625 31.0625 11.3125-11.3125-31.0625-31.0625v-52.6875h-16v36.6875l-16-16v-52.6875h-16v36.6875l-16-16v-36.6875h-16v20.6875l-18.34375-18.34375-11.3125 11.3125 18.34375 18.34375h-20.6875zm0 0" fill="#7eb457"/><path d="m200.21875 360.28125h80v112h-80zm0 0" fill="#69a340"/><path d="m200.21875 352.28125v56.957031c25.839844 9.386719 54.160156 9.386719 80 0v-56.957031zm0 0" fill="#5f9548"/><path d="m332.410156 174.007812-21.601562-4.320312-4.320313-21.601562c-7.667969-38.335938 4.34375-77.96875 32-105.597657 27.632813-27.660156 67.265625-39.667969 105.601563-32l21.601562 4.320313 4.316406 21.597656c7.671876 38.339844-4.339843 77.96875-32 105.601562-27.628906 27.660157-67.261718 39.667969-105.597656 32zm0 0" fill="#69a340"/><path d="m448.21875 80.28125v-16h-20.6875l18.34375-18.34375-11.3125-11.3125-18.34375 18.34375v-20.6875h-16v36.6875l-16 16v-36.6875h-16v52.6875l-16 16v-36.6875h-16v52.6875l-31.066406 31.0625 11.3125 11.3125 31.066406-31.0625h52.6875v-16h-36.6875l16-16h52.6875v-16h-36.6875l16-16zm0 0" fill="#7eb457"/><path d="m306.488281 300.472656 4.320313-21.601562 21.601562-4.320313c38.335938-7.667969 77.96875 4.34375 105.597656 32 27.660157 27.632813 39.671876 67.265625 32 105.601563l-4.316406 21.597656-21.601562 4.320312c-38.335938 7.671876-77.96875-4.339843-105.601563-32-27.65625-27.628906-39.667969-67.261718-32-105.597656zm0 0" fill="#69a340"/><path d="m448.21875 368.28125h-36.6875l-16-16h36.6875v-16h-52.6875l-16-16h35.972656v-16h-51.972656l-31.066406-31.066406-11.3125 11.3125 31.066406 31.066406v52.6875h16v-36.6875l16 16v52.6875h16v-36.6875l16 16v36.6875h16v-20.6875l18.34375 18.34375 11.3125-11.3125-18.34375-18.34375h20.6875zm0 0" fill="#7eb457"/><path d="m200.21875 424.28125h32v16h-32zm0 0" fill="#7eb457"/><path d="m68.90625 323.28125c.023438 4.355469.410156 8.707031 1.160156 13h30.839844l16-16h-36.6875v-16h52.6875l27.3125-27.296875-12.167969-2.402344c-32.738281-6.550781-66.710937 1.210938-93.351562 21.328125 4.769531 4.703125 10.007812 8.90625 15.636719 12.539063-.941407 4.886719-1.421876 9.851562-1.429688 14.832031zm0 0" fill="#5f9548"/><path d="m173.945312 300.464844-2.433593-12.183594-27.292969 27.3125v52.6875h-16v-36.6875l-16 16v45.039062c9.742188 4.648438 20.402344 7.070313 31.199219 7.078126 1.601562 0 3.113281-.191407 4.664062-.285157 23.363281-27.265625 32.898438-63.753906 25.863281-98.960937zm0 0" fill="#5f9548"/><path d="m80.21875 304.28125v16h36.6875l-16 16h-30.839844c.894532 5.476562 2.378906 10.839844 4.421875 16h10.402344l-7.144531 7.144531c2.539062 4.820313 5.585937 9.359375 9.085937 13.535157l9.386719-9.367188v18.820312c4.875 4.078126 10.25 7.511719 16 10.21875v-45.039062l16-16v36.6875h16v-52.6875l27.292969-27.3125-1.886719-9.425781-9.40625-1.871094-27.3125 27.296875zm0 0" fill="#77ad50"/><path d="m148.027344 174.007812 12.167968-2.398437-27.289062-27.328125h-52v-16h36l-16-16h-30.953125c-1.515625 8.984375-1.386719 18.171875.382813 27.109375-5.792969 3.738281-11.179688 8.078125-16.0625 12.945313 26.6875 20.351562 60.839843 28.246093 93.753906 21.671874zm0 0" fill="#5f9548"/><path d="m112.21875 55.214844v45.753906l16 16v-36.6875h16v52.6875l27.292969 27.3125 2.402343-12.175781c7.132813-35.59375-2.675781-72.480469-26.550781-99.824219-1.320312-.074219-2.632812-.167969-4-.167969-10.78125.019531-21.421875 2.449219-31.144531 7.101563zm0 0" fill="#5f9548"/><path d="m144.21875 80.28125h-16v36.6875l-16-16v-45.753906c-5.75 2.707031-11.125 6.136718-16 10.210937v19.542969l-9.707031-9.703125c-3.46875 4.214844-6.480469 8.792969-8.980469 13.644531l7.375 7.371094h-10.671875c-1.992187 5.164062-3.429687 10.527344-4.28125 16h30.953125l16 16h-36v16h52l27.3125 27.292969 9.429688-1.886719 1.863281-9.40625-27.292969-27.3125zm0 0" fill="#77ad50"/><path d="m306.488281 148.085938 2.402344 12.179687 27.328125-27.296875v-52.6875h16v36.6875l16-16v-45.753906c-9.742188-4.652344-20.402344-7.074219-31.199219-7.078125-1.335937 0-2.648437.09375-4 .167969-23.855469 27.339843-33.65625 64.207031-26.53125 99.78125zm0 0" fill="#5f9548"/><path d="m411.53125 124.558594c-.027344-4.113282-.378906-8.21875-1.050781-12.277344h-30.949219l-16 16h36.6875v16h-52.6875l-27.3125 27.292969 12.167969 2.402343c32.910156 6.574219 67.0625-1.320312 93.75-21.671874-4.882813-4.867188-10.269531-9.207032-16.0625-12.945313.949219-4.875 1.4375-9.832031 1.457031-14.800781zm0 0" fill="#5f9548"/><path d="m400.21875 144.28125v-16h-36.6875l16-16h30.949219c-.851563-5.472656-2.285157-10.835938-4.277344-16h-10.671875l7.375-7.371094c-2.503906-4.851562-5.515625-9.429687-8.984375-13.644531l-9.703125 9.703125v-19.542969c-4.875-4.074219-10.253906-7.503906-16-10.210937v45.753906l-16 16v-36.6875h-16v52.6875l-27.296875 27.3125 1.886719 9.421875 9.410156 1.871094 27.3125-27.292969zm0 0" fill="#77ad50"/><path d="m332.410156 274.550781-12.167968 2.402344 27.289062 27.328125h52v16h-36l16 16h30.839844c1.632812-9.214844 1.539062-18.652344-.273438-27.832031 5.628906-3.632813 10.871094-7.835938 15.640625-12.539063-26.632812-20.121094-60.597656-27.894531-93.328125-21.359375zm0 0" fill="#5f9548"/><path d="m368.21875 392.632812v-45.039062l-16-16v36.6875h-16v-52.6875l-27.296875-27.3125-2.398437 12.167969c-7.03125 35.210937 2.515624 71.699219 25.886718 98.957031 1.550782.097656 3.085938.289062 4.664063.289062 10.777343-.011718 21.414062-2.425781 31.144531-7.0625zm0 0" fill="#5f9548"/><path d="m363.53125 320.28125h36v-16h-52l-27.3125-27.296875-9.433594 1.886719-1.863281 9.410156 27.296875 27.3125v52.6875h16v-36.6875l16 16v45.039062c5.746094-2.707031 11.125-6.140624 16-10.21875v-18.820312l9.367188 9.367188c3.5-4.175782 6.546874-8.714844 9.085937-13.535157l-7.140625-7.144531h10.398438c2.042968-5.160156 3.527343-10.523438 4.425781-16h-30.824219zm0 0" fill="#77ad50"/><path d="m440.21875 223.359375c.132812-31.691406-15.988281-61.238281-42.707031-78.28125.878906-4.523437 1.324219-9.117187 1.328125-13.726563.496094-38.585937-30.378906-70.269531-68.964844-70.777343-7.425781.023437-14.792969 1.277343-21.808594 3.707031-16.71875-20.242188-41.597656-31.960938-67.847656-31.960938s-51.132812 11.71875-67.847656 31.960938c-7.019532-2.417969-14.386719-3.660156-21.808594-3.671875-38.585938.503906-69.460938 32.1875-68.96875 70.773437.003906 4.609376.449219 9.207032 1.328125 13.730469-26.617187 17.128907-42.703125 46.613281-42.703125 78.265625s16.085938 61.136719 42.703125 78.269532c-.878906 4.527343-1.324219 9.125-1.328125 13.734374-.488281 38.585938 30.382812 70.265626 68.96875 70.769532 10.996094-.007813 21.820312-2.714844 31.527344-7.878906 33.183594 29.375 83.070312 29.375 116.253906 0 9.707031 5.164062 20.535156 7.871093 31.53125 7.878906 38.582031-.503906 69.457031-32.183594 68.964844-70.769532-.003906-4.609374-.449219-9.207031-1.328125-13.734374 26.726562-17.042969 42.84375-46.59375 42.707031-78.289063zm0 0" fill="#fae998"/><path d="m440.21875 223.359375c.132812-31.691406-15.988281-61.238281-42.707031-78.28125.878906-4.523437 1.324219-9.117187 1.328125-13.726563.003906-12.90625-3.472656-25.578124-10.070313-36.671874-43.199219 168.746093-194.800781 230.289062-299.648437 252.710937 11.433594 23.558594 35.253906 38.578125 61.441406 38.738281 10.996094-.007812 21.820312-2.714844 31.527344-7.882812 33.183594 29.378906 83.070312 29.378906 116.253906 0 9.707031 5.167968 20.535156 7.875 31.53125 7.882812 38.582031-.507812 69.457031-32.183594 68.964844-70.769531-.003906-4.609375-.449219-9.210937-1.328125-13.734375 26.71875-17.039062 42.835937-46.578125 42.707031-78.265625zm0 0" fill="#f5e082"/><g fill="#edd668"><path d="m184.21875 112.28125h16v16h-16zm0 0"/><path d="m136.21875 176.28125h16v16h-16zm0 0"/><path d="m136.21875 104.28125h16v16h-16zm0 0"/><path d="m344.21875 144.28125h16v16h-16zm0 0"/><path d="m312.21875 104.28125h16v16h-16zm0 0"/><path d="m280.21875 152.28125h16v16h-16zm0 0"/><path d="m288.21875 320.28125h16v16h-16zm0 0"/><path d="m328.21875 288.28125h16v16h-16zm0 0"/><path d="m280.21875 256.28125h16v16h-16zm0 0"/><path d="m200.21875 320.28125h16v16h-16zm0 0"/><path d="m80.21875 216.28125h16v16h-16zm0 0"/><path d="m136.21875 328.28125h16v16h-16zm0 0"/><path d="m112.21875 248.28125h16v16h-16zm0 0"/><path d="m392.21875 224.28125h16v16h-16zm0 0"/></g><path d="m477.816406 34.871094-4.320312-21.597656c-.628906-3.167969-3.105469-5.644532-6.269532-6.28125l-21.601562-4.320313c-48.554688-10.023437-98.394531 9.972656-126.558594 50.777344-2.835937.394531-5.648437.949219-8.425781 1.664062-18.144531-19.65625-43.679687-30.832031-70.429687-30.832031-26.753907 0-52.285157 11.175781-70.433594 30.832031-2.773438-.714843-5.585938-1.269531-8.421875-1.664062-28.167969-40.796875-78.003907-60.789063-126.554688-50.769531l-21.597656 4.320312c-3.167969.636719-5.640625 3.113281-6.273437 6.28125l-4.320313 21.597656c-1.597656 8.023438-2.398437 16.183594-2.390625 24.359375.074219 33.152344 13.222656 64.9375 36.582031 88.457031 5.148438 5.035157 10.722657 9.613282 16.65625 13.6875-28.664062 36.921876-28.277343 88.679688.9375 125.167969-41.570312 27.855469-62.058593 78.164063-51.777343 127.136719l4.320312 21.601562c.632812 3.167969 3.105469 5.644532 6.273438 6.277344l21.597656 4.320313c40.949218 8.109375 83.246094-4.710938 112.800781-34.191407 5.648437-5.707031 10.71875-11.957031 15.136719-18.664062 6.265625-1 12.375-2.792969 18.183594-5.34375 3.582031 2.777344 7.355468 5.296875 11.289062 7.542969v77.050781c0 4.417969 3.582031 8 8 8h80c4.417969 0 8-3.582031 8-8v-77.050781c3.925781-2.246094 7.6875-4.769531 11.261719-7.542969 5.808593 2.550781 11.921875 4.34375 18.183593 5.34375 4.417969 6.707031 9.488282 12.957031 15.136719 18.664062 23.421875 23.4375 55.199219 36.597657 88.328125 36.585938 8.226563 0 16.433594-.804688 24.503906-2.402344l21.601563-4.320312c3.164063-.632813 5.640625-3.109375 6.269531-6.277344l4.320313-21.601562c1.597656-8.019532 2.398437-16.179688 2.394531-24.359376.433594-41.203124-19.9375-79.84375-54.175781-102.769531 29.214843-36.488281 29.601562-88.246093.933593-125.167969 5.9375-4.074218 11.507813-8.652343 16.65625-13.6875 29.554688-29.519531 42.382813-71.863281 34.183594-112.824218zm-429.703125 101.511718c-20.371093-20.511718-31.832031-48.230468-31.894531-77.144531-.003906-7.128906.695312-14.238281 2.085938-21.230469l3.273437-16.375 16.351563-3.265624c35.71875-7.140626 72.644531 4.046874 98.398437 29.808593 1.601563 1.601563 3.082031 3.375 4.59375 5.105469-10.140625 1.300781-19.910156 4.664062-28.703125 9.878906v-14.878906h-16v27.359375c-1.535156 1.597656-2.984375 3.199219-4.394531 4.933594l-11.605469-11.605469v-36.6875h-16v20.6875l-18.34375-18.34375-11.3125 11.3125 18.34375 18.34375h-20.6875v16h36.6875l13.855469 13.855469c-.359375.695312-.664063 1.429687-1.007813 2.144531h-33.535156v16h27.757812c-2.386718 9.472656-2.980468 19.3125-1.75 29.007812-3.488281 2.496094-6.8125 5.210938-9.953124 8.136719-5.789063-3.824219-11.203126-8.1875-16.160157-13.042969zm11.0625 295.898438c-7.125.003906-14.238281-.691406-21.230469-2.082031l-16.367187-3.269531-3.273437-16.363282c-9.097657-43.5625 9.664062-88.214844 47.144531-112.207031 2.800781 2.519531 5.738281 4.875 8.800781 7.066406-1.316406 10.328125-.570312 20.816407 2.191406 30.855469h-28.222656v16h34.398438c.257812.496094.535156.984375.800781 1.480469l-14.511719 14.519531h-36.6875v16h20.6875l-18.34375 18.34375 11.3125 11.3125 18.34375-18.34375v20.6875h16v-36.6875l12.472656-12.472656c1.148438 1.34375 2.292969 2.695312 3.527344 4v29.160156h16v-16.730469c9.199219 5.480469 19.46875 8.929688 30.109375 10.113281-1.933594 2.28125-3.863281 4.574219-6.007813 6.71875-20.511718 20.375-48.230468 31.835938-77.144531 31.898438zm213.042969 32h-64v-24h24v-16h-24v-21.601562c20.683594 7.445312 43.316406 7.445312 64 0zm192-74.960938c.003906 7.128907-.695312 14.238282-2.089844 21.230469l-3.269531 16.378907-16.355469 3.261718c-35.71875 7.136719-72.644531-4.046875-98.398437-29.808594-2.144531-2.144531-4.070313-4.4375-6.007813-6.71875 10.648438-1.183593 20.917969-4.628906 30.121094-10.113281v16.730469h16v-29.203125c1.230469-1.261719 2.398438-2.613281 3.527344-4l12.472656 12.515625v36.6875h16v-20.6875l18.34375 18.34375 11.3125-11.3125-18.34375-18.34375h20.6875v-16h-36.6875l-14.511719-14.519531c.261719-.496094.542969-.984375.796875-1.480469h34.402344v-16h-28.226562c2.773437-10.039062 3.527343-20.527344 2.21875-30.855469 3.0625-2.191406 6-4.546875 8.796874-7.066406 30.980469 19.816406 49.574219 54.1875 49.210938 90.960937zm-70.984375-94.457031c-2.777344 1.757813-4.195313 5.035157-3.578125 8.265625.773438 4.03125 1.167969 8.125 1.175781 12.230469.457031 34.148437-26.8125 62.226563-60.957031 62.769531-9.695312.003906-19.242188-2.386718-27.792969-6.953125-2.933593-1.550781-6.519531-1.132812-9.015625 1.054688-30.164062 26.730469-75.535156 26.730469-105.695312 0-2.496094-2.1875-6.085938-2.605469-9.015625-1.054688-8.554688 4.566407-18.097657 6.957031-27.792969 6.953125-34.148438-.542968-61.414062-28.621094-60.960938-62.769531.007813-4.105469.402344-8.199219 1.175782-12.230469.617187-3.230468-.800782-6.507812-3.574219-8.265625-24.304687-15.660156-38.988281-42.59375-38.988281-71.507812 0-28.910157 14.683594-55.84375 38.988281-71.507813 2.773437-1.757812 4.191406-5.035156 3.574219-8.265625-.773438-4.027343-1.167969-8.121093-1.175782-12.222656-.453124-34.148437 26.8125-62.222656 60.960938-62.765625 6.53125 0 13.019531 1.082031 19.199219 3.199219 3.125 1.078125 6.585937.121093 8.71875-2.402344 15.199219-18.433594 37.839843-29.109375 61.730469-29.109375 23.890624 0 46.53125 10.675781 61.726562 29.109375 2.132812 2.523437 5.597656 3.480469 8.71875 2.402344 6.179688-2.117188 12.667969-3.199219 19.203125-3.199219 34.144531.542969 61.414063 28.617188 60.957031 62.765625-.007812 4.101563-.402344 8.195313-1.175781 12.222656-.617187 3.230469.800781 6.507813 3.578125 8.265625 24.300781 15.664063 38.984375 42.597656 38.984375 71.507813 0 28.914062-14.683594 55.847656-38.984375 71.507812zm22.925781-145.4375c-3.136718-2.925781-6.460937-5.640625-9.949218-8.136719 1.230468-9.695312.636718-19.535156-1.753907-29.007812h27.761719v-16h-33.535156c-.347656-.714844-.648438-1.449219-1.011719-2.144531l13.859375-13.855469h36.6875v-16h-20.6875l18.34375-18.34375-11.3125-11.3125-18.34375 18.34375v-20.6875h-16v36.6875l-11.609375 11.605469c-1.40625-1.703125-2.855469-3.367188-4.390625-4.933594v-27.359375h-16v14.878906c-8.792969-5.214844-18.558594-8.578125-28.695312-9.878906 1.511718-1.730469 2.980468-3.496094 4.589843-5.105469 20.515625-20.371093 48.234375-31.832031 77.144531-31.894531 7.128907-.007812 14.238282.6875 21.230469 2.078125l16.371094 3.273437 3.269531 16.359376c9.019532 43.058593-9.214844 87.253906-45.96875 111.433593zm0 0"/><path d="m184.21875 112.28125h16v16h-16zm0 0"/><path d="m136.21875 176.28125h16v16h-16zm0 0"/><path d="m136.21875 104.28125h16v16h-16zm0 0"/><path d="m344.21875 144.28125h16v16h-16zm0 0"/><path d="m312.21875 104.28125h16v16h-16zm0 0"/><path d="m280.21875 152.28125h16v16h-16zm0 0"/><path d="m288.21875 320.28125h16v16h-16zm0 0"/><path d="m328.21875 288.28125h16v16h-16zm0 0"/><path d="m280.21875 256.28125h16v16h-16zm0 0"/><path d="m200.21875 320.28125h16v16h-16zm0 0"/><path d="m80.21875 216.28125h16v16h-16zm0 0"/><path d="m136.21875 328.28125h16v16h-16zm0 0"/><path d="m112.21875 248.28125h16v16h-16zm0 0"/><path d="m392.21875 224.28125h16v16h-16zm0 0"/></svg>