<?xml version="1.0" encoding="iso-8859-1"?>
<!-- Generator: Adobe Illustrator 19.0.0, SVG Export Plug-In . SVG Version: 6.00 Build 0)  -->
<svg version="1.1" id="Capa_1" xmlns="http://www.w3.org/2000/svg" xmlns:xlink="http://www.w3.org/1999/xlink" x="0px" y="0px"
	 viewBox="0 0 512 512" style="enable-background:new 0 0 512 512;" xml:space="preserve">
<path style="fill:#8F5436;" d="M401.067,42.667H162.133c-84.83,0-153.6,68.77-153.6,153.6v51.2c0,2.884,0.273,5.692,0.435,8.533
	c-0.162,2.842-0.435,5.658-0.435,8.533v51.2c0,84.83,68.77,153.6,153.6,153.6h59.733c84.83,0,153.6-68.77,153.6-153.6h25.6
	c56.55,0,102.4-45.85,102.4-102.4v-68.267C503.467,88.516,457.617,42.667,401.067,42.667z"/>
<path style="fill:#A3603E;" d="M162.133,401.067h59.733c84.83,0,153.6-68.77,153.6-153.6h25.6c56.55,0,102.4-45.85,102.4-102.4
	s-45.85-102.4-102.4-102.4H162.133c-84.83,0-153.6,68.77-153.6,153.6v51.2c0,2.884,0.273,5.692,0.435,8.533l0,0
	C13.431,337.34,80.666,401.024,162.133,401.067z"/>
<g>
	<path style="fill:#75462E;" d="M51.2,179.2c-4.71,0-8.533-3.823-8.533-8.533c0-2.261,0.896-4.429,2.5-6.033L130.5,79.3
		c3.388-3.277,8.789-3.183,12.066,0.213c3.191,3.311,3.191,8.55,0,11.853L57.233,176.7C55.637,178.304,53.461,179.2,51.2,179.2z"/>
	<path style="fill:#75462E;" d="M51.2,273.067c-4.71,0-8.533-3.823-8.533-8.533c0-2.261,0.896-4.429,2.5-6.033l179.2-179.2
		c3.388-3.277,8.789-3.183,12.066,0.213c3.191,3.311,3.191,8.55,0,11.853l-179.2,179.2C55.637,272.171,53.461,273.067,51.2,273.067z
		"/>
	<path style="fill:#75462E;" d="M85.333,332.8c-4.71,0-8.533-3.823-8.533-8.533c0-2.261,0.896-4.429,2.5-6.033L318.234,79.3
		c3.388-3.277,8.789-3.183,12.066,0.213c3.191,3.311,3.191,8.55,0,11.853L91.366,330.3C89.771,331.904,87.595,332.8,85.333,332.8z"
		/>
	<path style="fill:#75462E;" d="M145.067,366.933c-4.71,0-8.533-3.823-8.533-8.533c0-2.261,0.896-4.429,2.5-6.033L412.1,79.3
		c3.388-3.277,8.789-3.183,12.066,0.213c3.191,3.311,3.191,8.55,0,11.853L151.1,364.433
		C149.504,366.037,147.328,366.933,145.067,366.933z"/>
	<path style="fill:#75462E;" d="M247.467,358.4c-4.71,0-8.533-3.823-8.533-8.533c0-2.261,0.896-4.429,2.5-6.033L450.5,134.767
		c3.388-3.277,8.789-3.183,12.066,0.213c3.191,3.311,3.191,8.55,0,11.853L253.5,355.9C251.904,357.504,249.728,358.4,247.467,358.4z
		"/>
	<path style="fill:#75462E;" d="M452.267,233.651v68.267c31.676-18.253,51.191-52.028,51.2-88.585v-68.267
		C503.458,181.623,483.942,215.398,452.267,233.651z"/>
	<path style="fill:#75462E;" d="M307.2,375.168v68.267c42.675-28.476,68.292-76.399,68.267-127.701v-68.267
		C375.492,298.769,349.875,346.692,307.2,375.168z"/>
</g>
<path d="M401.067,34.133H162.133C72.627,34.236,0.102,106.761,0,196.267v51.2c0,2.219,0.145,4.403,0.29,6.579L0.418,256
	l-0.128,1.954C0.145,260.13,0,262.315,0,264.533v51.2c0.102,89.506,72.627,162.031,162.133,162.133h59.733
	c86.187-0.102,157.269-67.541,161.911-153.6h17.289c61.235-0.068,110.865-49.698,110.933-110.933v-68.267
	C511.932,83.831,462.302,34.202,401.067,34.133z M221.867,460.8h-59.733C83.703,460.681,19.55,398.268,17.28,319.872
	c27.409,54.912,83.482,89.643,144.853,89.728h59.733c61.355-0.085,117.419-34.782,144.853-89.668
	C364.416,398.31,300.279,460.681,221.867,460.8z M494.933,213.333c-0.06,51.814-42.052,93.807-93.867,93.867h-25.6
	c-1.143,0-2.278,0.23-3.328,0.674c6.733-16.529,10.667-34.057,11.639-51.874h17.289c38.161-0.043,73.617-19.703,93.867-52.053
	V213.333z M401.067,238.933h-25.6c-4.71,0-8.533,3.823-8.533,8.533c-0.085,80.085-64.981,144.981-145.067,145.067h-59.733
	c-76.843-0.128-140.262-60.126-144.649-136.841c0-0.06,0-0.111,0-0.171l-0.043-0.666c-0.128-2.466-0.375-4.898-0.375-7.39v-51.2
	C17.152,116.181,82.048,51.285,162.133,51.2h238.933c51.84,0,93.867,42.027,93.867,93.867S452.907,238.933,401.067,238.933z"/>
<path d="M51.2,179.2c2.261,0,4.437-0.896,6.033-2.5l85.333-85.333c3.277-3.388,3.183-8.789-0.213-12.066
	c-3.311-3.191-8.55-3.191-11.853,0l-85.333,85.333c-3.328,3.337-3.328,8.738,0,12.066C46.771,178.304,48.939,179.2,51.2,179.2z"/>
<path d="M236.433,79.3c-3.328-3.328-8.738-3.328-12.066,0l-179.2,179.2c-3.388,3.277-3.482,8.678-0.213,12.066
	c3.277,3.388,8.678,3.482,12.066,0.213c0.068-0.068,0.145-0.137,0.213-0.213l179.2-179.2
	C239.761,88.038,239.761,82.637,236.433,79.3z"/>
<path d="M330.3,79.3c-3.328-3.328-8.738-3.328-12.066,0L79.3,318.234c-3.388,3.277-3.482,8.678-0.213,12.066
	c3.277,3.388,8.678,3.482,12.066,0.213c0.068-0.068,0.145-0.137,0.213-0.213L330.3,91.366C333.628,88.038,333.628,82.637,330.3,79.3
	z"/>
<path d="M424.166,79.3c-3.328-3.328-8.738-3.328-12.066,0L139.034,352.367c-3.388,3.277-3.482,8.678-0.213,12.066
	c3.277,3.388,8.678,3.482,12.066,0.213c0.068-0.068,0.145-0.137,0.213-0.213L424.166,91.366
	C427.494,88.038,427.494,82.637,424.166,79.3z"/>
<path d="M450.5,134.767L241.434,343.834c-3.388,3.277-3.482,8.678-0.213,12.066c3.277,3.388,8.678,3.482,12.066,0.213
	c0.068-0.068,0.145-0.137,0.213-0.213l209.067-209.067c3.277-3.388,3.183-8.789-0.213-12.066
	C459.051,131.575,453.811,131.575,450.5,134.767z"/>
<g>
</g>
<g>
</g>
<g>
</g>
<g>
</g>
<g>
</g>
<g>
</g>
<g>
</g>
<g>
</g>
<g>
</g>
<g>
</g>
<g>
</g>
<g>
</g>
<g>
</g>
<g>
</g>
<g>
</g>
</svg>
