<svg height="479pt" viewBox="0 0 479 479.98488" width="479pt" xmlns="http://www.w3.org/2000/svg"><path d="m289.4375 294.878906-24.800781 16.605469c-61.355469 41.214844-112.921875 95.390625-151.054688 158.707031l-1.089843 1.789063 1.929687-.796875c68-28.933594 128.820313-72.445313 178.160156-127.464844l19.910157-22.242188zm0 0" fill="#5f9548"/><path d="m265.484375 287.980469-27.238281 12.570312c-67.828125 31.410157-129.027344 75.5-180.296875 129.894531l-1.457031 1.535157 2-.542969c71.660156-19.503906 138.863281-52.710938 197.886718-97.785156l24.113282-18.328125zm0 0" fill="#5f9548"/><path d="m243.101562 276.429688c-72.703124-14.527344-142.863281-18.398438-216.535156-.449219l-2.074218.503906 1.9375.800781c68.871093 28.128906 137.597656 46.136719 212.191406 42.152344l30.167968-1.597656 3.703126-35.539063zm0 0" fill="#5f9548"/><path d="m269.828125 305.109375-59.3125-1.128906c-69.488281 2.660156-137.671875 19.679687-200.253906 49.992187l-1.769531.855469 1.953124.273437c68.941407 9.664063 139.132813 4.972657 206.175782-13.777343l55.871094-15.839844zm0 0" fill="#5f9548"/><g fill="#7eb457"><path d="m391.003906 310.46875-18.511718-23.871094c-45.46875-58.777344-103.300782-106.84375-169.398438-140.800781l-1.855469-.957031.972657 1.894531c34.082031 66.542969 82.191406 124.898437 141.007812 171.046875l23.609375 18.449219zm0 0"/><path d="m397.421875 284.277344-14.945313-26c-37.449218-64.847656-86.988281-121.910156-145.9375-168.09375l-1.671874-1.3125.714843 1.941406c25.761719 69.679688 64.871094 133.664062 115.132813 188.371094l20.480468 22.398437zm0 0"/><path d="m407.476562 329.660156 10.015626-28.703125c24.78125-70.984375 34.878906-146.265625 29.671874-221.269531l-.144531-2.113281-1.03125 1.847656c-36.742187 65.652344-59.777343 138.074219-67.710937 212.886719l-3.199219 30.210937zm0 0"/><path d="m400.851562 294.101562 3.097657-30.511718c7.582031-76.207032-.695313-153.15625-24.304688-226.007813l-.671875-2.070312-.59375 2.039062c-21.132812 73.03125-26.679687 149.6875-16.285156 225l4.191406 30.695313zm0 0"/><path d="m380.636719 285.023438-4.585938-63.9375c-9.640625-74.644532-34.410156-146.539063-72.796875-211.28125l-1.082031-1.824219-.101563 2.121093c-3.542968 75.183594 8.296876 150.296876 34.796876 220.746094l22.328124 58.789063zm0 0"/></g><path d="m192.734375 271.980469c-76.335937 0-103.144531-32-154.921875-88.175781l-29.320312-31.824219 29.320312-31.824219c51.777344-56.175781 78.585938-88.175781 154.921875-88.175781 66.207031.066406 119.824219 53.792969 119.757813 120 .066406 66.210937-53.550782 119.933593-119.757813 120zm0 0" fill="#95573a"/><path d="m287.21875 78.429688c-42.679688 114.726562-131.054688 149.550781-196.917969 158.65625 26.945313 22.632812 55.207031 34.894531 102.433594 34.894531 45.773437-.054688 87.523437-26.167969 107.605469-67.304688 20.082031-41.136719 14.992187-90.117187-13.121094-126.246093zm0 0" fill="#8f4d2e"/><path d="m200.261719 247.886719c-62.714844-1.839844-93.023438-29.097657-125.113281-57.953125l10.6875-11.902344c31.152343 28 58.046874 52.191406 114.886718 53.863281zm0 0" fill="#743b20"/><path d="m160.636719 75.390625-4.464844-15.367187c6.3125-1.816407 12.75-3.15625 19.265625-4l2.109375 15.855468c-5.714844.738282-11.371094 1.914063-16.910156 3.511719zm0 0" fill="#a36548"/><path d="m86.453125 126.863281-10.679687-11.914062c23.808593-21.351563 41.015624-36.800781 59.640624-46.550781l7.421876 14.175781c-16.847657 8.832031-32.574219 22.9375-56.382813 44.289062zm0 0" fill="#a36548"/><path d="m264.492188 111.980469c0 8.839843-7.164063 16-16 16-8.835938 0-16-7.160157-16-16 0-8.835938 7.164062-16 16-16 8.835937 0 16 7.164062 16 16zm0 0" fill="#662e13"/><path d="m288.492188 159.980469c0 8.839843-7.164063 16-16 16-8.835938 0-16-7.160157-16-16 0-8.835938 7.164062-16 16-16 8.835937 0 16 7.164062 16 16zm0 0" fill="#662e13"/><path d="m232.492188 159.980469c0 8.839843-7.164063 16-16 16-8.835938 0-16-7.160157-16-16 0-8.835938 7.164062-16 16-16 8.835937 0 16 7.164062 16 16zm0 0" fill="#662e13"/><path d="m426.148438 187.652344c-36.6875-35.574219-110.609376-21.597656-165.113282 31.28125s-68.941406 124.535156-32.253906 160.105468c58.6875 56.917969 150.457031 60.214844 204.960938 7.367188 54.503906-52.847656 51.101562-141.839844-7.59375-198.753906zm0 0" fill="#95573a"/><path d="m428.585938 190.152344c-34.601563-37.546875-107.925782-26.257813-163.777344 25.210937-55.847656 51.472657-73.074219 123.632813-38.472656 161.179688 34.597656 37.542969 107.925781 26.257812 163.773437-25.214844 55.851563-51.46875 73.078125-123.632813 38.476563-161.175781zm0 0" fill="#e0e0de"/><path d="m390.566406 200.988281-61.683594 11.96875-43.175781 29.90625-37.007812 59.808594v47.847656l37.007812 11.957031 61.679688-23.917968 55.515625-53.832032 12.335937-47.847656zm0 0" fill="#c7c7c5"/><path d="m426.148438 187.652344c29.34375 28.457031 25.894531 80-4.527344 126.546875 1.984375 42.527343-7.320313 73.222656-20.71875 95.328125 12.058594-5.972656 23.121094-13.769532 32.796875-23.121094 54.546875-52.824219 51.144531-141.839844-7.550781-198.753906zm0 0" fill="#8f4d2e"/><path d="m192.734375 23.980469c-77.234375 0-106.746094 32-155.640625 85.105469l-34.488281 37.480468c-2.816407 3.0625-2.816407 7.769532 0 10.832032l34.800781 37.824218c24.039062 26.070313 43.453125 46.917969 66.175781 61.472656-26.574219 1.359376-52.957031 5.207032-78.808593 11.496094l-2.082032.480469c-3.402344.769531-5.910156 3.652344-6.203125 7.128906-.292969 3.476563 1.699219 6.742188 4.925781 8.070313l1.972657.800781c25.734375 10.644531 52.097656 19.6875 78.945312 27.078125-32.96875 8.480469-65.011719 20.230469-95.648437 35.070312l-1.757813.882813c-3.15625 1.570313-4.910156 5.023437-4.316406 8.5.589844 3.476563 3.386719 6.152344 6.882813 6.59375l1.824218.226563c23.582032 3.296874 47.363282 4.953124 71.175782 4.957031 11.738281 0 23.449218-.445313 35.128906-1.246094-22.539063 17.863281-43.761719 37.324219-63.511719 58.230469l-1.449219 1.519531c-2.492187 2.617187-2.921875 6.574219-1.050781 9.664063 1.871094 3.089843 5.578125 4.542968 9.050781 3.546874l1.914063-.511718c29.953125-8.101563 59.191406-18.644532 87.421875-31.523438-15.019532 18.457032-28.753906 37.925782-41.105469 58.265625l-1.117187 1.761719c-1.878907 2.945312-1.625 6.773438.625 9.449219 2.253906 2.675781 5.980468 3.578125 9.207031 2.230469l1.976562-.800782c39.863281-16.992187 77.421875-38.941406 111.789063-65.335937l-9.75-12.6875c-26.777344 20.558593-55.578125 38.34375-85.953125 53.078125 15.355469-22.839844 32.566406-44.375 51.457031-64.390625 3.824219-2.0625 7.613281-4.164063 11.367188-6.304688l-8-13.886719c-3.777344 2.167969-7.582032 4.304688-11.421876 6.398438h-.074218c-.207032.089844-.421875.183594-.632813.296875-29.5 15.96875-60.375 29.253906-92.253906 39.703125 19.46875-18.660156 40.210937-35.949219 62.070313-51.742188 13.359374-1.664062 26.792968-3.882812 40-6.65625l-3.3125-15.65625c-13.285157 2.808594-26.863282 5.054688-40.351563 6.6875l-.429687.046876c-34.46875 4.320312-69.296876 5.003906-103.90625 2.039062 32.683593-13.714844 66.746093-23.878906 101.601562-30.316406 14.96875-2.769532 30.246094-4.867188 45.414062-6.21875l-1.421874-15.941406c-15.105469 1.351562-30.304688 3.445312-45.226563 6.160156-29.449219-6.019532-58.359375-14.417969-86.445313-25.121094 27.714844-5.039062 55.875-7.246094 84.039063-6.585938 18.339844 5.554688 37.433594 8.203126 56.59375 7.847657v-16c-17.960937.394531-35.867187-2.117188-53.027344-7.4375-34.46875-11.351563-56.796875-35.542969-90.535156-72.160157l-29.816406-32.402343 29.496093-32.054688c47.496094-51.550781 73.65625-79.945312 143.882813-79.945312 29.6875-.074219 58.171875 11.761719 79.0625 32.859375 13 13.003906 22.597656 29.011718 27.953125 46.605468.042969.257813.105469.511719.183594.761719 2.367187 8.183594 3.824218 16.605469 4.34375 25.109375.144531 2.21875.214844 4.371094.214844 6.664063h16c0-2.664063-.085938-5.160157-.253907-7.765625-.578125-9.402344-2.167969-18.714844-4.746093-27.777344 0-.136719-.0625-.261719-.09375-.398438v-.058593c-3.855469-26.007813-5.824219-52.265625-5.898438-78.558594 17.589844 33.261719 31.671875 68.257813 42.015625 104.433594v.046875l.257813.863281c1.203124 4.097656 5.417968 6.527344 9.570312 5.515625 4.148438-1.011719 6.773438-5.105469 5.957031-9.300781 2.316407-24.878907 6.367188-49.570313 12.128907-73.886719 7.300781 26.835938 12.570312 54.1875 15.757812 81.816406.347656 3.023438 2.382812 5.589844 5.25 6.617188l9.816406 3.519531c4.078125 1.460937 8.578125-.589844 10.152344-4.625 5.949219-15.273437 12.621094-30.398437 19.925781-45.085937.445313 22.644531-.507812 45.300781-2.855469 67.832031l15.910157 1.660156c3.375-32.378906 3.953125-64.988281 1.730469-97.46875l-.082032-2.074219c-.136718-3.574218-2.632812-6.621094-6.109375-7.464844-3.476562-.84375-7.089843.726563-8.847656 3.839844l-1.058594 1.875c-10.863281 19.441406-20.582031 39.5-29.101562 60.078125-4.527344-34.070312-12.109375-67.667969-22.65625-100.382812l-.640625-2.082031c-.964844-3.4375-4.15625-5.773438-7.730469-5.644532-3.546875.042969-6.644531 2.425782-7.597656 5.847656l-.535157 1.925782c-6.410156 22.144531-11.421874 44.667968-15 67.441406-12.066406-33.644531-27.324218-66.058594-45.5625-96.800781l-1.03125-1.839844c-1.757812-3.125-5.382812-4.699219-8.867187-3.851563-3.484375.851563-5.976563 3.914063-6.101563 7.5l-.070312 2.078126c-.960938 21.867187-.648438 43.769531.9375 65.601562-24.03125-32.394531-61.996094-51.476562-102.328125-51.425781zm0 0"/><path d="m200.261719 247.886719.460937-16c-56.796875-1.671875-83.734375-25.855469-114.886718-53.863281l-10.6875 11.902343c32.089843 28.863281 62.398437 56.121094 125.113281 57.960938zm0 0"/><path d="m175.4375 56.054688c-6.515625.84375-12.953125 2.183593-19.265625 4l4.464844 15.367187c5.539062-1.585937 11.195312-2.75 16.910156-3.480469zm0 0"/><path d="m142.835938 82.574219-7.421876-14.175781c-18.625 9.769531-35.832031 25.199218-59.640624 46.550781l10.679687 11.914062c23.808594-21.351562 39.535156-35.457031 56.382813-44.289062zm0 0"/><path d="m264.492188 111.980469c0 8.839843-7.164063 16-16 16-8.835938 0-16-7.160157-16-16 0-8.835938 7.164062-16 16-16 8.835937 0 16 7.164062 16 16zm0 0"/><path d="m288.492188 159.980469c0 8.839843-7.164063 16-16 16-8.835938 0-16-7.160157-16-16 0-8.835938 7.164062-16 16-16 8.835937 0 16 7.164062 16 16zm0 0"/><path d="m232.492188 159.980469c0 8.839843-7.164063 16-16 16-8.835938 0-16-7.160157-16-16 0-8.835938 7.164062-16 16-16 8.835937 0 16 7.164062 16 16zm0 0"/><path d="m200.796875 333.957031v.753907c.5 6.578124 1.75 13.078124 3.726563 19.375.273437.871093.570312 1.726562.863281 2.585937.851562 2.410156 1.824219 4.773437 2.914062 7.085937.222657.480469.367188 1.007813.609375 1.480469.0625.144531.167969.265625.238282.398438 1.664062 3.253906 3.570312 6.375 5.703124 9.335937.320313.441406.648438.882813.976563 1.3125 2.21875 3.023438 4.675781 5.863282 7.34375 8.496094.367187.351562.800781.648438 1.144531.992188l1.519532 1.375c3.554687 3.402343 7.296874 6.609374 11.199218 9.601562.511719.425781 1.046875.820312 1.601563 1.183594 28.542969 21.898437 63.480469 33.820312 99.457031 33.9375 37.648438.4375 73.980469-13.820313 101.285156-39.746094 23.785156-23.164062 38.261719-54.234375 40.699219-87.34375 2.496094-37.636719-8.941406-74.878906-32.136719-104.625-4.941406-6.476562-10.355468-12.585938-16.191406-18.269531-2.238281-2.140625-4.617188-4.128907-7.121094-5.953125-.570312-.421875-1.148437-.835938-1.726562-1.246094-2.382813-1.671875-4.859375-3.203125-7.417969-4.585938-.167969-.085937-.3125-.191406-.472656-.273437-2.246094-1.183594-4.582031-2.292969-7.054688-3.316406l-.800781-.320313c-.414062-.167968-.871094-.273437-1.296875-.433594-.285156-.105468-.589844-.183593-.878906-.289062-12.425781-4.390625-25.621094-6.1875-38.769531-5.277344-16.871094 1.015625-33.4375 4.960938-48.957032 11.664063-4.65625 1.964843-8.921875 4-13 6.078125-.730468.367187-1.425781.800781-2.152344 1.207031-.730468.410156-1.386718.800781-2.082031 1.160156-11.914062 6.460938-23.132812 14.128907-33.480469 22.882813-3.769531 3.167968-7.460937 6.5-11.070312 10-7.578125 7.359375-14.585938 15.285156-20.960938 23.710937l-.800781 1.054688c-2.914062 3.910156-5.65625 7.882812-8.222656 11.921875-.207031.320312-.414063.640625-.617187.957031-5.28125 8.355469-9.855469 17.140625-13.671876 26.257813-.214843.511718-.398437 1.023437-.605468 1.535156-.800782 1.960937-1.554688 3.921875-2.257813 5.890625-.40625 1.160156-.800781 2.308593-1.167969 3.460937-.480468 1.441406-.925781 2.875-1.351562 4.3125-.34375 1.152344-.664062 2.304688-.976562 3.464844-.472657 1.769531-.894532 3.535156-1.296876 5.304688-.085937.414062-.214843.800781-.300781 1.246093 0 .183594-.058593.371094-.097656.554688-1.4375 6.742187-2.28125 13.601562-2.519531 20.496093 0 .476563 0 .964844-.046875 1.4375 0 .6875-.074219 1.386719-.074219 2.074219-.007812 2.414063.128906 4.757813.296875 7.09375zm17.222656-23.253906c.425781-2.554687.890625-5.105469 1.496094-7.671875.273437-1.136719.535156-2.28125.839844-3.425781.898437-3.335938 1.960937-6.679688 3.160156-10.03125.519531-1.417969 1.074219-2.847657 1.648437-4.28125.871094-2.214844 1.855469-4.421875 2.863282-6.632813.433594-.949218.800781-1.886718 1.28125-2.839844.488281-1.085937 1.0625-2.261718 1.761718-3.558593.300782-.601563.671876-1.191407.980469-1.792969 1.953125-3.730469 4.058594-7.40625 6.3125-11.023438.640625-1.015624 1.359375-2.007812 2.023438-3.015624 1.976562-3.007813 4-6 6.160156-8.925782 1.042969-1.386718 2.203125-2.722656 3.289063-4.089844 2.039062-2.574218 4.046874-5.160156 6.257812-7.664062 1.445312-1.640625 3.046875-3.199219 4.558594-4.800781 1.984375-2.09375 3.878906-4.222657 5.976562-6.261719.398438-.394531.800782-.730469 1.222656-1.113281 3.449219-3.28125 6.953126-6.398438 10.535157-9.390625 1.136719-.9375 2.3125-1.792969 3.464843-2.707032 2.882813-2.269531 5.777344-4.476562 8.722657-6.542968 1.597656-1.121094 3.199219-2.167969 4.847656-3.199219 2.324219-1.527344 4.667969-2.988281 7.03125-4.390625 2.351563-1.394531 4.726563-2.738281 7.128906-4 2.605469-1.386719 5.207031-2.761719 7.824219-4 1.414062-.664062 2.902344-1.304688 4.390625-1.953125s2.925781-1.175781 4.390625-1.761719c13.019531-5.320312 26.816406-8.492187 40.847656-9.398437 1.960938-.113281 3.890625-.175781 5.792969-.175781 9.777344-.109376 19.488281 1.640624 28.617187 5.152343.445313.175781.894532.359375 1.335938.550781 3.105469 1.316407 6.09375 2.894532 8.933594 4.710938.441406.28125.851562.585938 1.28125.882812 2.652344 1.765626 5.144531 3.757813 7.457031 5.949219l.128906.113281c12.082031 12.351563 18.539063 29.136719 17.855469 46.398438 0 33.5625-18.738281 71.761719-50.121094 102.195312-51.023437 49.46875-119.519531 63.589844-153.296875 31.839844l-.640625-.578125c-2.054687-2.019531-3.949218-4.199219-5.671875-6.511719-.320312-.421874-.636719-.847656-.941406-1.28125-1.59375-2.230468-3.027344-4.574218-4.28125-7.015624-.351563-.695313-.632813-1.4375-.960937-2.152344-.710938-1.597656-1.382813-3.199219-1.976563-4.796875-.292969-.839844-.566406-1.699219-.796875-2.5625-.75-2.386719-1.363281-4.8125-1.832031-7.269531v-.082032c-.535157-2.769531-.90625-5.570312-1.113281-8.382812-.191407-2.472656-.214844-5.015625-.175782-7.585938.042969-3.566406.285156-7.128906.71875-10.671875.128906-1.375.441406-2.847656.671875-4.253906zm246.105469-7.113281c-2.15625 29.210937-14.933594 56.617187-35.921875 77.046875-36.671875 35.496093-92.199219 44.21875-141.597656 25.601562 36.695312-1.289062 78.582031-19.519531 112.863281-52.761719 33.421875-32.40625 53.703125-73.40625 54.863281-110.398437 7.949219 19.128906 11.304688 39.851563 9.792969 60.511719zm0 0"/><path d="m246.246094 358.132812 37.007812 12c.792969.253907 1.621094.386719 2.453125.386719.992188 0 1.976563-.183593 2.898438-.546875l61.679687-23.917968c1-.386719 1.910156-.96875 2.679688-1.710938l55.527344-53.875c1.054687-1.023438 1.808593-2.320312 2.175781-3.742188l12.335937-47.847656c.578125-2.242187.160156-4.621094-1.152344-6.527344l-24.695312-35.890624c-1.804688-2.625-4.992188-3.925782-8.121094-3.320313l-61.671875 12c-1.085937.210937-2.117187.644531-3.03125 1.273437l-43.199219 29.910157c-.902343.628906-1.667968 1.429687-2.25 2.363281l-36.980468 59.773438c-.785156 1.265624-1.199219 2.722656-1.203125 4.210937v47.847656c0 3.472657 2.238281 6.546875 5.546875 7.613281zm10.453125-53.191406 34.9375-56.457031 40.425781-28 54.878906-10.636719 19.640625 28.535156-10.890625 42.167969-52.726562 51.136719-57.519532 22.300781-28.800781-9.292969zm0 0"/></svg>