<svg height="480pt" viewBox="-48 0 480 480.00665" width="480pt" xmlns="http://www.w3.org/2000/svg"><path d="m92.707031 472.007812c-26.265625-.363281-49.195312-17.878906-56.457031-43.121093-37.664062-123.101563-37.664062-254.652344 0-377.753907 4.296875-15.351562 14.644531-28.300781 28.671875-35.882812 14.027344-7.578125 30.53125-9.136719 45.726563-4.316406 31.683593 11.296875 48.710937 45.664062 38.503906 77.714844-30.183594 98.652343-30.183594 204.074218 0 302.726562 10.203125 32.042969-6.828125 66.410156-38.503906 77.703125-5.785157 1.933594-11.84375 2.921875-17.941407 2.929687zm0 0" fill="#5f9548"/><path d="m92.707031 472.007812c-26.265625-.363281-49.195312-17.878906-56.457031-43.121093-37.664062-123.101563-37.664062-254.652344 0-377.753907 4.296875-15.351562 14.644531-28.300781 28.671875-35.882812 14.027344-7.578125 30.53125-9.136719 45.726563-4.316406 31.683593 11.296875 48.710937 45.664062 38.503906 77.714844-30.183594 98.652343-30.183594 204.074218 0 302.726562 10.203125 32.042969-6.828125 66.410156-38.503906 77.703125-5.785157 1.933594-11.84375 2.921875-17.941407 2.929687zm0 0" fill="#568741"/><path d="m60.625 117.125-15.664062-3.246094c1.023437-4.929687 2.105468-9.851562 3.25-14.769531l15.582031 3.625c-1.109375 4.796875-2.164063 9.59375-3.167969 14.390625zm0 0" fill="#5f9548"/><path d="m32.480469 264.320312c-1.746094-44.800781 1.363281-89.660156 9.265625-133.792968l15.75 2.816406c-7.695313 42.996094-10.726563 86.703125-9.03125 130.351562zm0 0" fill="#5f9548"/><g fill="#43752e"><path d="m48 328.007812h16v16h-16zm0 0"/><path d="m64 360.007812h16v16h-16zm0 0"/><path d="m104 392.007812h16v16h-16zm0 0"/><path d="m96 40.007812h16v16h-16zm0 0"/></g><path d="m149.195312 88.648438c8.210938-26.46875-1.773437-55.199219-24.632812-70.867188-.183594 197.242188-68.273438 306.402344-103.695312 349.792969 4.140624 20.585937 9.207031 41.046875 15.382812 61.3125 7.261719 25.242187 30.191406 42.757812 56.457031 43.121093 6.113281-.003906 12.183594-.992187 17.984375-2.929687 31.675782-11.292969 48.703125-45.660156 38.503906-77.703125-30.1875-98.652344-30.1875-204.074219 0-302.726562zm0 0" fill="#51803d"/><path d="m346.136719 51.132812c-10.722657-32.691406-45.789063-50.632812-78.574219-40.199218-15.738281 4.855468-28.886719 15.792968-36.515625 30.386718-7.632813 14.59375-9.117187 31.632813-4.125 47.328126 15.796875 48.898437 23.859375 99.96875 23.894531 151.359374h125.183594c-.058594-64.128906-10.132812-127.855468-29.863281-188.875zm0 0" fill="#568741"/><path d="m346.136719 51.132812c-5.125-15.898437-16.464844-29.046874-31.4375-36.453124 11.703125 111.726562-21.027344 183.503906-52.601563 225.328124h113.902344c-.058594-64.128906-10.132812-127.855468-29.863281-188.875zm0 0" fill="#51803d"/><path d="m376 240.230469c0-33.585938-28.011719-60.816407-62.566406-60.816407-34.554688 0-62.566406 27.230469-62.566406 60.816407 0 33.589843 28.011718 60.816406 62.566406 60.816406 34.554687 0 62.566406-27.226563 62.566406-60.816406zm0 0" fill="#7eb457"/><path d="m375.953125 282.964844c0-33.585938-28.011719-60.8125-62.566406-60.8125-34.554688 0-62.570313 27.226562-62.570313 60.8125 0 33.589844 28.015625 60.816406 62.570313 60.816406 34.554687 0 62.566406-27.226562 62.566406-60.816406zm0 0" fill="#77ad50"/><path d="m367.953125 325.710938c0-33.589844-28.011719-60.816407-62.566406-60.816407-34.554688 0-62.570313 27.226563-62.570313 60.816407 0 33.585937 28.015625 60.816406 62.570313 60.816406 34.554687 0 62.566406-27.230469 62.566406-60.816406zm0 0" fill="#7eb457"/><path d="m359.953125 368.445312c0-33.585937-28.011719-60.816406-62.566406-60.816406-34.554688 0-62.570313 27.230469-62.570313 60.816406 0 33.589844 28.015625 60.816407 62.570313 60.816407 34.554687 0 62.566406-27.226563 62.566406-60.816407zm0 0" fill="#77ad50"/><path d="m341.097656 411.191406c0-33.589844-28.011718-60.816406-62.566406-60.816406-34.558594 0-62.570312 27.226562-62.570312 60.816406 0 33.585938 28.011718 60.816406 62.570312 60.816406 34.554688 0 62.566406-27.230468 62.566406-60.816406zm0 0" fill="#7eb457"/><path d="m283.828125 391.769531 12.800781-9.597656 21.828125 29.105469-12.800781 9.601562zm0 0" fill="#88c25e"/><path d="m240.152344 411.273438 21.84375-29.109376 12.796875 9.601563-21.839844 29.109375zm0 0" fill="#88c25e"/><path d="m261.113281 422.636719h36.390625v16h-36.390625zm0 0" fill="#88c25e"/><path d="m272 160.964844c-4.339844-29.445313-12.203125-58.265625-23.421875-85.839844l14.726563-6.246094c11.875 28.929688 20.132812 59.214844 24.59375 90.167969zm0 0" fill="#68a34f"/><path d="m296 64.007812h16v16h-16zm0 0" fill="#43752e"/><path d="m320 96.007812h16v16h-16zm0 0" fill="#43752e"/><path d="m113.21875 3.351562c-16.664062-5.589843-34.882812-4.144531-50.457031 4-16.546875 8.601563-28.878907 23.566407-34.160157 41.457032-38.132812 124.613281-38.132812 257.78125 0 382.398437 8.203126 28.667969 34.289063 48.523438 64.105469 48.800781 6.96875-.007812 13.894531-1.132812 20.511719-3.335937 35.734375-12.734375 55.007812-51.441406 43.628906-87.632813-29.71875-97.128906-29.71875-200.925781 0-298.054687 11.378906-36.191406-7.894531-74.902344-43.628906-87.632813zm28.328125 82.96875c-30.648437 100.167969-30.648437 207.210938 0 307.382813 8.898437 27.890625-5.839844 57.828125-33.371094 67.785156-4.988281 1.660157-10.210937 2.511719-15.46875 2.519531-22.765625-.300781-42.621093-15.539062-48.800781-37.449218-37.207031-121.582032-37.207031-251.511719 0-373.097656 4.03125-13.757813 13.496094-25.285157 26.207031-31.917969 11.75-6.136719 25.488281-7.222657 38.054688-3.007813 27.539062 9.949219 42.28125 39.890625 33.378906 67.785156zm0 0"/><path d="m63.792969 102.734375-15.582031-3.625c-1.148438 4.914063-2.230469 9.835937-3.25 14.769531l15.664062 3.246094c1.003906-4.804688 2.058594-9.601562 3.167969-14.390625zm0 0"/><path d="m57.496094 133.34375-15.75-2.816406c-7.902344 44.132812-11.011719 88.992187-9.265625 133.792968l16-.625c-1.699219-43.648437 1.324219-87.355468 9.015625-130.351562zm0 0"/><path d="m48 328.007812h16v16h-16zm0 0"/><path d="m64 360.007812h16v16h-16zm0 0"/><path d="m104 392.007812h16v16h-16zm0 0"/><path d="m96 40.007812h16v16h-16zm0 0"/><path d="m353.777344 48.679688c-12.082032-36.855469-51.605469-57.089844-88.566406-45.34375-17.890626 5.519531-32.8125 17.992187-41.417969 34.613281-8.582031 16.394531-10.210938 35.550781-4.527344 53.160156 15.578125 48.097656 23.523437 98.339844 23.535156 148.898437 0 .152344.082031.277344.089844.429688.023437 7.148438 1.195313 14.246094 3.480469 21.015625-2.347656 6.933594-3.550782 14.195313-3.570313 21.511719.011719 3.214844.261719 6.425781.746094 9.601562-5.726563 10.101563-8.738281 21.511719-8.746094 33.121094.019531 3.269531.289063 6.535156.800781 9.765625-5 8.828125-7.921874 18.675781-8.542968 28.800781-12.226563 12.578125-19.082032 29.414063-19.121094 46.953125.96875 37.472657 31.054688 67.660157 68.527344 68.746094 37.46875 1.089844 69.257812-27.296875 72.402344-64.652344 12.125-12.570312 18.941406-29.332031 19.03125-46.796875-.019532-3.300781-.285157-6.589844-.800782-9.847656 7.492188-12.914062 10.351563-27.996094 8.105469-42.753906 9.421875-16.515625 11.335937-36.269532 5.253906-54.289063 2.332031-6.882812 3.53125-14.097656 3.542969-21.367187 0-1.101563 0-2.222656-.078125-3.40625-.363281-63.894532-10.53125-127.351563-30.144531-188.160156zm-119.28125 37.535156c-4.359375-13.546875-3.101563-28.277344 3.496094-40.886719 6.652343-12.839844 18.183593-22.472656 32-26.730469 28.585937-9.128906 59.1875 6.5 68.554687 35.007813 14.714844 45.742187 23.980469 93.058593 27.597656 140.96875-14.234375-15.488281-34.574219-23.917969-55.59375-23.03125s-40.578125 10.992187-53.460937 27.625c-3.15625-38.394531-10.738282-76.296875-22.59375-112.953125zm133.425781 196.75c-.03125 3.109375-.347656 6.207031-.945313 9.257812-10.601562-18.089844-28.613281-30.609375-49.261718-34.25-20.648438-3.640625-41.855469 1.972656-58 15.347656.570312-3.058593 1.421875-6.058593 2.542968-8.960937 8.558594-20.714844 28.769532-34.214844 51.183594-34.1875 22.410156.027344 42.589844 13.578125 51.097656 34.316406 2.257813 5.898438 3.402344 12.164063 3.382813 18.476563zm-70.558594 16.640625c-16.628906-.035157-32.738281 5.769531-45.523437 16.402343 1.148437-6.238281 3.449218-12.207031 6.785156-17.601562l.6875-1.152344c10.265625-15.359375 27.574219-24.519531 46.050781-24.367187 25.621094-.300781 47.949219 17.386719 53.519531 42.398437l.152344.867188c.613282 3.140625.910156 6.339844.886719 9.542968-.027344 3.128907-.339844 6.246094-.9375 9.320313-12.695313-22.007813-36.214844-35.523437-61.621094-35.410156zm-18.832031 164.402343c-28.953125-.945312-51.75-25.015624-51.117188-53.976562.632813-28.957031 24.457032-52.011719 53.421876-51.6875 28.964843.320312 52.273437 23.898438 52.261718 52.863281-.535156 29.628907-24.9375 53.242188-54.566406 52.800781zm67.695312-72.113281c-9.199218-29.613281-36.6875-49.722656-67.695312-49.519531-11.175781-.003906-22.199219 2.617188-32.179688 7.648438 1.160157-3.105469 2.621094-6.09375 4.363282-8.914063 11.890625-18.675781 33.804687-28.421875 55.640625-24.738281 21.832031 3.679687 39.339843 20.074218 44.445312 41.621094l.160157.863281c.632812 3.160156.953124 6.375.960937 9.597656.003906 8.15625-1.949219 16.195313-5.695313 23.441406zm21.71875-154.167969c.046876.617188 0 1.238282 0 1.855469-13.535156-16.078125-33.46875-25.375-54.484374-25.414062-21.019532-.039063-40.984376 9.183593-54.578126 25.214843 1.261719-28.726562 24.566407-51.558593 53.3125-52.238281 28.742188-.679687 53.097657 21.027344 55.71875 49.664063v.308594zm0 0"/><path d="m283.828125 391.769531 12.800781-9.597656 21.828125 29.105469-12.800781 9.601562zm0 0"/><path d="m240.160156 411.238281 21.835938-29.113281 12.800781 9.601562-21.835937 29.113282zm0 0"/><path d="m261.113281 422.636719h36.390625v16h-36.390625zm0 0"/><path d="m287.898438 159.046875c-4.457032-30.953125-12.710938-61.238281-24.578126-90.167969l-14.726562 6.246094c11.214844 27.574219 19.074219 56.394531 23.40625 85.839844zm0 0"/><path d="m296 64.007812h16v16h-16zm0 0"/><path d="m320 96.007812h16v16h-16zm0 0"/></svg>