<svg height="480pt" viewBox="0 -16 480 480" width="480pt" xmlns="http://www.w3.org/2000/svg"><path d="m204 72c92.800781 0 140 53.710938 140 120s-47.199219 120-140 120-196-53.742188-196-120 103.199219-120 196-120zm0 0" fill="#d6d6d4"/><g fill="#e0e0de"><path d="m129.183594 107.847656c-5.824219 1.839844-11.597656 3.886719-17.160156 6.097656l5.886718 14.871094c5.21875-2.0625 10.625-4 16.089844-5.703125zm0 0"/><path d="m33.800781 179.785156 15.359375 4.488282c5-17.121094 25.992188-35.816407 56.152344-50.007813l-6.816406-14.472656c-34.753906 16.351562-58.335938 38.214843-64.695313 59.992187zm0 0"/><path d="m472 204c0 92.753906-53.726562 140-120 140s-120-47.199219-120-140 53.726562-196 120-196 120 103.199219 120 196zm0 0"/></g><path d="m430.753906 61.375c-6.144531 144.800781-98.800781 216.679688-161.203125 249.714844 21.871094 21.714844 51.636719 33.59375 82.449219 32.910156 66.273438 0 120-47.199219 120-140-.183594-50.457031-14.472656-99.859375-41.246094-142.625zm0 0" fill="#dbdbd9"/><path d="m304.800781 58.753906c-3.429687 4.003906-6.636719 8.195313-9.601562 12.558594l13.207031 9.039062c2.636719-3.886718 5.484375-7.625 8.53125-11.199218zm0 0" fill="#ebebe9"/><path d="m256.945312 183.246094 15.933594 1.449218c2.921875-31.707031 12.144532-62.507812 27.121094-90.605468l-14.039062-7.691406c-16.105469 29.996093-25.972657 62.941406-29.015626 96.847656zm0 0" fill="#ebebe9"/><path d="m199.886719 248c-65.535157 0-118.71875 24.519531-119.886719 54.976562 0 1.046876.089844 2.039063.113281 3.070313 2.335938 88.695313 54.992188 133.953125 119.773438 133.953125 64.785156 0 117.441406-45.246094 119.777343-133.945312 0-1.03125.105469-2.023438.121094-3.070313-1.175781-30.464844-54.351562-54.984375-119.898437-54.984375zm0 0" fill="#e0e0de"/><path d="m199.886719 248c-24.4375-.253906-48.75 3.550781-71.941407 11.265625-.65625 51.6875 9.597657 132.429687 71.429688 180.710937h.511719c64.800781 0 117.441406-45.25 119.777343-133.945312 0-1.03125.105469-2.023438.121094-3.070312-1.175781-30.441407-54.351562-54.960938-119.898437-54.960938zm0 0" fill="#dbdbd9"/><path d="m320 304c0-30.929688-53.726562-56-120-56s-120 25.070312-120 56c0 14.398438 11.847656 27.496094 31.0625 37.398438l16.9375 10.601562 32-8 32 16 44.664062-14.671875 32 8 19.335938-11.351563c19.800781-9.976562 32-23.304687 32-37.976562zm0 0" fill="#c7c7c5"/><path d="m200 296c-39.753906 0-73.320312 20.375-84.230469 48.34375l12.230469 7.65625 32-8 32 16 44.664062-14.671875 32 8 15.527344-9.113281c-10.96875-27.910156-44.496094-48.214844-84.191406-48.214844zm0 0" fill="#ffb531"/><path d="m238.640625 302.945312c-12.046875 23.039063-37.695313 38.976563-61.863281 49.429688l15.222656 7.625 44.664062-14.671875 32 8 15.527344-9.113281c-8.746094-19.519532-25.265625-34.484375-45.550781-41.269532zm0 0" fill="#ffa912"/><path d="m129.183594 107.847656c-5.824219 1.839844-11.597656 3.886719-17.160156 6.097656l5.886718 14.871094c5.21875-2.0625 10.625-4 16.089844-5.703125zm0 0"/><path d="m98.496094 119.792969c-34.753906 16.351562-58.335938 38.214843-64.695313 60l15.359375 4.488281c5-17.121094 25.992188-35.816406 56.152344-50.007812zm0 0"/><path d="m352 0c-34.832031 0-68.800781 25.839844-93.894531 71.078125-17.625-4.828125-35.832031-7.210937-54.105469-7.078125-94.335938 0-204 55.910156-204 128 0 31.761719 21.199219 62.71875 59.710938 87.199219l8.578124-13.511719c-33.722656-21.441406-52.289062-47.597656-52.289062-73.6875 0-62.039062 102.839844-112 188-112 15.757812-.117188 31.46875 1.765625 46.753906 5.601562-17.285156 37.097657-26.40625 77.472657-26.753906 118.398438 0 7.105469.304688 14.070312.910156 20.726562l15.9375-1.453124c-.558594-6.167969-.847656-12.65625-.847656-19.273438.304688-41.664062 10.292969-82.691406 29.175781-119.832031 22.519531-43.320313 52.703125-68.167969 82.824219-68.167969 62.039062 0 112 102.847656 112 188 0 80.183594-43.960938 132-112 132-2.527344 0-5.039062-.070312-7.527344-.214844l-.945312 16c2.792968.167969 5.601562.246094 8.472656.246094 77.761719 0 128-58.09375 128-148 0-94.367188-55.910156-204.03125-128-204.03125zm0 0"/><path d="m316.929688 69.191406-12.121094-10.398437c-3.429688 4.003906-6.636719 8.199219-9.601563 12.558593l13.207031 9.039063c2.632813-3.882813 5.476563-7.621094 8.515626-11.199219zm0 0"/><path d="m256.945312 183.246094 15.933594 1.449218c2.921875-31.707031 12.144532-62.507812 27.121094-90.605468l-14.039062-7.691406c-16.105469 29.996093-25.972657 62.941406-29.015626 96.847656zm0 0"/><path d="m72.046875 304.527344.066406 1.730468c2.285157 86.101563 52.429688 141.742188 127.773438 141.742188 74.21875 0 123.882812-54.03125 127.539062-137.894531.375-2.015625.566407-4.058594.574219-6.105469-.09375-7.125-2.246094-14.070312-6.199219-20-.738281-1.175781-1.601562-2.320312-2.496093-3.464844-.480469-.632812-.878907-1.269531-1.402344-1.886718-18.65625-22.6875-62.078125-38.023438-115.015625-38.59375-.964844 0-1.910157-.070313-2.886719-.070313h-.113281c-58.605469 0-106.054688 18.105469-122.054688 44.535156-.472656.761719-.800781 1.601563-1.222656 2.335938-.617187 1.167969-1.28125 2.320312-1.769531 3.519531-.554688 1.40625-1.023438 2.84375-1.398438 4.304688-.183594.671874-.449218 1.335937-.601562 2.023437-.238282 1.261719-.40625 2.53125-.503906 3.808594-.089844.863281-.304688 1.703125-.335938 2.578125v.664062.230469c0 .078125.046875.359375.046875.542969zm16.527344-4.933594c5.425781-21.441406 49.640625-43.59375 111.371093-43.59375 1.261719 0 2.460938.070312 3.703126.089844 2.847656.039062 5.703124.070312 8.464843.199218l.503907.039063c50.925781 2.550781 87.78125 20.304687 97.0625 38.734375.40625.855469.753906 1.734375 1.046874 2.632812.128907.367188.289063.730469.402344 1.097657.367188 1.328125.589844 2.695312.65625 4.070312l-.121094 2.976563c0 .800781-.113281 1.519531-.136718 2.304687-1.976563 8.726563-10.230469 17.328125-23.878906 24.910157-15.214844-27.261719-49.128907-45.054688-87.648438-45.054688s-72.359375 17.769531-87.609375 44.984375c-15.503906-8.527344-24.144531-18.601563-24.351563-28.609375v-.519531c.03125-1.148438.175782-2.292969.425782-3.414063.03125-.289062.039062-.570312.109375-.847656zm40.800781 43.8125-3.359375-2.101562c12.207031-22.25 41.527344-37.304688 73.984375-37.304688 32.304688 0 61.527344 14.9375 73.839844 37.015625l-6.398438 3.761719-31.074218-7.769532-43.726563 14.398438-31.703125-15.847656zm70.511719 88.59375c-56.871094 0-96.246094-35.03125-108.0625-93.3125 4.675781 3.621094 9.679687 6.792969 14.953125 9.472656l19.863281 12.425782 32.429687-8.105469 32.296876 16.152343 45.601562-14.976562 32.925781 8.230469 22.304688-13.085938c5.535156-2.789062 10.792969-6.101562 15.695312-9.890625-11.894531 58.136719-51.199219 93.089844-108.007812 93.089844zm0 0"/></svg>