<svg height="480pt" viewBox="-40 0 480 480.03203" width="480pt" xmlns="http://www.w3.org/2000/svg"><path d="m199.59375 383.863281c0 48.695313-39.476562 88.167969-88.167969 88.167969-78.480469 0-131.609375-92-87.347656-158.488281 10.441406-15.101563 23.957031-27.824219 39.65625-37.335938 29.671875-18.648437 56.121094-37.597656 75.144531-67.726562 18.671875-29.542969 28.714844-96.207031 28.714844-131.199219v-37.25h32zm0 0" fill="#c7c7c5"/><path d="m9.808594 385.089844c8.941406 49.425781 51.398437 85.753906 101.617187 86.941406 48.691407 0 88.167969-39.472656 88.167969-88.167969v-86.03125c-57.648438 80.433594-150.984375 87.945313-189.785156 87.257813zm0 0" fill="#bfbfbd"/><path d="m200.015625 383.863281c0 48.695313 39.472656 88.167969 88.167969 88.167969 78.480468 0 131.609375-92 87.34375-158.488281-10.441406-15.097657-23.953125-27.820313-39.65625-37.335938-29.671875-18.648437-56.117188-37.597656-75.144532-67.726562-18.679687-29.542969-28.710937-85.496094-28.710937-120.449219l-.421875-48h-32zm0 0" fill="#c7c7c5"/><path d="m375.527344 313.542969c-4.542969-6.691407-9.78125-12.882813-15.632813-18.472657-30.917969 103.226563-97.957031 133.472657-141.992187 141.867188 16.609375 22.09375 42.640625 35.089844 70.28125 35.09375 78.480468 0 131.609375-92 87.34375-158.488281zm0 0" fill="#bfbfbd"/><path d="m211.59375 472.03125h-24c-39.019531-.238281-72.84375-27.058594-81.976562-64.992188-9.863282-44.558593 6.167968-100.375 26.398437-139.933593 22.550781-41.507813 34.753906-87.84375 35.578125-135.074219v-76h64v76c.003906 24.804688 3.394531 49.492188 10.078125 73.375 7.335937 22.703125 16.707031 44.691406 28 65.707031 19.519531 40.40625 31.753906 90.863281 23.511719 135.742188-8.480469 38.214843-42.449219 65.347656-81.589844 65.175781zm0 0" fill="#e0e0de"/><path d="m272.097656 276.375c-29.441406 121.503906-123.722656 125.058594-168.296875 119.417969.472657 3.808593 1.046875 7.574219 1.855469 11.246093 9.128906 37.921876 42.933594 64.734376 81.9375 64.992188h24c39.144531.175781 73.117188-26.957031 81.597656-65.175781 7.847656-42.960938-3.03125-91-21.09375-130.480469zm0 0" fill="#dbdbd9"/><path d="m191.753906 24.03125v104c.289063 24.152344 2.941406 48.21875 7.917969 71.855469 4.976563-23.636719 7.628906-47.703125 7.921875-71.855469v-104c0-4.375-3.546875-7.917969-7.921875-7.917969s-7.917969 3.542969-7.917969 7.917969zm0 0" fill="#b0b0ae"/><path d="m245.695312 341.375c-4.054687-31.011719-10.167968-61.71875-18.296874-91.917969-9.65625-39.273437-19.644532-79.890625-19.644532-121.425781v-104c0-2.136719-.855468-4.183594-2.375-5.683594-1.515625-1.503906-3.570312-2.335937-5.707031-2.316406 4.386719.042969 7.921875 3.613281 7.921875 8v104c-.292969 24.152344-2.945312 48.21875-7.921875 71.855469 3.558594 18.082031 7.886719 35.875 12.191406 53.394531 7.945313 29.515625 13.933594 59.523438 17.929688 89.832031 3.417969 27.25 2.160156 54.886719-3.714844 81.71875-2.765625 11.617188-11.503906 32.070313-26.398437 37.679688-14.902344-5.601563-23.648438-26.0625-26.398438-37.679688-5.871094-26.839843-7.128906-54.484375-3.714844-81.742187 3.996094-30.3125 9.984375-60.324219 17.9375-89.84375 4.304688-17.511719 8.632813-35.300782 12.191406-53.382813-4.980468-23.628906-7.640624-47.6875-7.941406-71.832031v-104c-.003906-4.355469 3.484375-7.910156 7.839844-8-4.421875 0-8 3.582031-8 8v104c0 41.527344-9.992188 82.144531-19.65625 121.417969-8.136719 30.203125-14.257812 60.914062-18.320312 91.925781-3.617188 29.085938-2.246094 58.578125 4.054687 87.199219 3.539063 16.96875 12.742187 32.230469 26.097656 43.28125 28.527344 21.089843 52.246094-19.71875 57.847657-43.28125 6.320312-28.621094 7.699218-58.113281 4.078124-87.199219zm0 0" fill="#b0b0ae"/><path d="m231.59375 40.03125c0 17.675781-14.328125 32-32 32-17.675781 0-32-14.324219-32-32 0-17.671875 14.324219-32 32-32 17.671875 0 32 14.328125 32 32zm0 0" fill="#e0e0de"/><g fill="#b0b0ae"><path d="m143.59375 472.03125c-24.933594-.125-48.546875-11.226562-64.554688-30.34375-22.488281-26.433594-33.164062-60.925781-29.542968-95.441406 4.59375-37.652344 27.777344-62.566406 50.199218-86.652344 16.394532-15.773438 30.0625-34.15625 40.441407-54.402344 12.527343-28.253906 19.457031-93.597656 19.457031-127.910156v-37.25c0-4.417969 3.578125-8 8-8 4.417969 0 8 3.582031 8 8v37.289062c0 36.648438-7.203125 103.742188-20.800781 134.398438-11.039063 21.890625-25.695313 41.761719-43.351563 58.769531-21.601562 23.246094-42.074218 45.207031-46.042968 77.703125-3.148438 29.976563 6.125 59.933594 25.65625 82.886719 13.039062 15.582031 32.226562 24.691406 52.539062 24.953125 4.417969 0 8 3.582031 8 8s-3.582031 8-8 8zm0 0"/><path d="m256.015625 472.03125c-4.417969 0-8-3.582031-8-8s3.582031-8 8-8c20.320313-.25 39.515625-9.363281 52.558594-24.941406 19.535156-22.960938 28.808593-52.917969 25.664062-82.898438-4-32.496094-24.398437-54.457031-46.039062-77.703125-17.664063-17.007812-32.332031-36.878906-43.382813-58.769531-13.601562-30.65625-20.800781-97.75-20.800781-134.398438l-.421875-37.199218c-.050781-4.417969 3.492188-8.039063 7.910156-8.089844 2.128906-.050781 4.191406.761719 5.714844 2.25s2.378906 3.53125 2.375 5.664062l.421875 37.277344c0 34.441406 6.929687 99.753906 19.464844 128 10.375 20.246094 24.039062 38.628906 40.429687 54.402344 22.402344 24.085938 45.601563 49 50.210938 86.65625 3.613281 34.519531-7.070313 69.011719-29.5625 95.445312-16.015625 19.097657-39.621094 30.179688-64.542969 30.304688zm0 0"/><path d="m199.59375 80.03125c-22.09375 0-40-17.90625-40-40 0-22.089844 17.90625-40 40-40 22.089844 0 40 17.910156 40 40-.027344 22.082031-17.921875 39.972656-40 40zm0 0"/></g><path d="m224.015625 40.03125c0 13.253906-10.746094 24-24 24s-24-10.746094-24-24 10.746094-24 24-24 24 10.746094 24 24zm0 0" fill="#e0e0de"/><path d="m208.015625 40.03125c0 4.417969-3.582031 8-8 8s-8-3.582031-8-8 3.582031-8 8-8 8 3.582031 8 8zm0 0" fill="#b0b0ae"/><path d="m159.617188 77.3125c0 2.65625-.058594 5.550781-.136719 8.542969-1.601563 38.871093-12.304688 94.464843-27.3125 118.402343-18.9375 29.910157-46.296875 48.597657-72.71875 65.199219-16.628907 10.121094-30.933594 23.640625-41.976563 39.671875-11.375 16.945313-17.4531248 36.894532-17.457031 57.304688.222656 61.808594 49.644531 112.191406 111.441406 113.597656 13.351563.007812 26.546875-2.835938 38.710938-8.34375 11.742187 5.429688 24.511719 8.273438 37.449219 8.34375h24c13.007812-.078125 25.84375-2.949219 37.648437-8.414062 12.226563 5.53125 25.488281 8.402343 38.910156 8.414062 61.792969-1.414062 111.214844-51.792969 111.441407-113.597656-.027344-20.40625-6.089844-40.34375-17.417969-57.3125-11.078125-16.046875-25.417969-29.578125-42.078125-39.707032-26.335938-16.535156-53.601563-35.199218-72.617188-65.167968-11.097656-17.597656-20.40625-48.15625-24.917968-81.757813-1.683594-16.921875-2.570313-33-2.570313-45.167969h-.085937l-.3125-37.351562c-.019532-22.09375-17.941407-39.9882812-40.03125-39.96875-22.09375.0195312-39.988282 17.941406-39.96875 40.03125v.234375zm-61.738282 331.519531c3.765625 16.488281 12.121094 31.574219 24.097656 43.511719-11.957031-4.324219-22.609374-11.628906-30.953124-21.222656-19.542969-22.964844-28.816407-52.941406-25.65625-82.929688 4-32.496094 24.410156-54.457031 46.039062-77.703125 7.464844-8 15.027344-16.191406 22.042969-24.921875-2.65625 5.921875-5.496094 11.875-8.570313 17.875-19.957031 39.230469-37.535156 98.015625-27 145.390625zm-81.863281-42.398437c-.078125-17.265625 5.0625-34.15625 14.746094-48.449219 9.792969-14.160156 22.46875-26.089844 37.191406-35.015625 8.863281-5.601562 17.816406-11.441406 26.597656-17.808594-20.710937 22.398438-40.796875 46.3125-45.054687 81.085938-3.621094 34.515625 7.054687 69.007812 29.542968 95.441406 8.023438 9.210938 17.792969 16.738281 28.746094 22.144531-55.023437-2.136719-91.769531-51.296875-91.769531-97.398437zm137.167969 89.109375c-20-10.042969-34.527344-28.425781-39.671875-50.207031-9.601563-43.199219 6.929687-97.886719 25.601562-134.625 23.15625-42.609376 35.679688-90.1875 36.503907-138.679688v-60.183594c4.710937 3.628906 10.179687 6.148438 16 7.375v48.808594c0 41.601562-9.992188 82.183594-19.65625 121.480469-8.125 30.195312-14.238282 60.894531-18.296876 91.894531-3.683593 29.054688-2.332031 58.527344 4 87.121094 1.847657 7.714844 4.6875 15.160156 8.449219 22.144531 2.3125 4.253906 5.035157 8.273437 8.125 12-7.074219-1.277344-13.925781-3.570313-20.351562-6.800781zm46.503906 6.953125c-8.523438-4.089844-15.40625-10.957032-19.511719-19.472656-3.078125-5.746094-5.410156-11.863282-6.945312-18.199219-5.898438-26.816407-7.140625-54.449219-3.664063-81.6875 3.996094-30.296875 9.984375-60.300781 17.929688-89.808594 4.3125-17.519531 8.632812-35.328125 12.199218-53.417969 3.5625 18.082032 7.890626 35.882813 12.191407 53.402344 7.953125 29.511719 13.945312 59.515625 17.9375 89.816406 3.394531 27.25 2.128906 54.875-3.734375 81.703125-1.542969 6.265625-3.859375 12.316407-6.890625 18.015625-4.113281 8.554688-10.988281 15.472656-19.511719 19.648438zm25.496094.128906c3.101562-3.8125 5.824218-7.917969 8.128906-12.257812 3.675781-6.902344 6.464844-14.242188 8.304688-21.847657 6.304687-28.597656 7.6875-58.058593 4.085937-87.121093-4.054687-31.007813-10.167969-61.710938-18.296875-91.910157-9.636719-39.289062-19.628906-79.902343-19.628906-121.457031v-48.855469c5.761718-1.246093 11.175781-3.761719 15.839844-7.367187v60.222656c-.007813 25.527344 3.488281 50.933594 10.398437 75.503906 6.027344 19.683594 13.90625 38.753906 23.527344 56.953125l4.90625 10.054688c21.597656 44.753906 29.902343 92.449219 22.847656 130.847656-4.5625 22.109375-19.265625 40.78125-39.6875 50.402344-6.449219 3.242187-13.324219 5.542969-20.425781 6.832031zm52.257812-10.257812c12.128906-11.976563 20.34375-27.347657 23.558594-44.085938 7.65625-41.664062-1.152344-92.9375-24.175781-140.679688l-4.945313-10.144531c-1.976562-4.050781-3.917968-8-5.824218-12 7.050781 8.800781 14.648437 16.984375 22.144531 25.046875 21.601562 23.25 42.074219 45.207032 46.039062 77.703125 3.140625 29.976563-6.132812 59.925781-25.664062 82.882813-8.382813 9.640625-19.101563 16.96875-31.132813 21.277344zm91.429688-134.398438c9.585937 14.347656 14.714844 31.207031 14.746094 48.464844 0 46.109375-36.753907 95.269531-91.792969 97.398437 10.953125-5.398437 20.71875-12.925781 28.734375-22.136719 22.507812-26.425781 33.207031-60.921874 29.601562-95.449218-4.238281-34.710938-24.28125-58.582032-44.960937-80.972656 8.738281 6.328124 17.601562 12.152343 26.402343 17.679687 14.742188 8.925781 27.445313 20.859375 37.269532 35.023437zm-169.277344-301.9375c13.222656 0 23.953125 10.699219 23.996094 23.925781.042968 13.222657-10.621094 23.988281-23.84375 24.074219-13.226563.085938-24.027344-10.542969-24.152344-23.765625v-.234375c0-13.253906 10.742188-24 24-24zm0 0"/><path d="m207.59375 48.03125h.023438v-16h-16.023438v16zm0 0"/></svg>