<svg height="480pt" viewBox="0 0 480 480.01398" width="480pt" xmlns="http://www.w3.org/2000/svg"><path d="m184.121094 207.4375c.035156-15.851562 5.335937-31.242188 15.070312-43.75 7.191406-8.695312 9.214844-20.558594 5.320313-31.144531-6.175781-15.375-5.226563-32.695313 2.601562-47.300781 7.824219-14.601563 21.71875-24.988282 37.941407-28.355469 2.902343-.589844 5.84375-.957031 8.800781-1.097657 10.855469-.890624 20.402343-7.515624 25.03125-17.375 9.628906-18.746093 28.96875-30.496093 50.042969-30.410156 21.074218.085938 40.316406 11.996094 49.789062 30.816406 4.546875 9.910157 14.050781 16.625 24.90625 17.601563 2.9375.167969 5.863281.554687 8.742188 1.167969 16.203124 3.492187 30.023437 13.992187 37.734374 28.664062 7.710938 14.671875 8.515626 32.011719 2.203126 47.335938-3.984376 10.5625-2.046876 22.445312 5.078124 31.199218 19.816407 25.933594 19.632813 61.972657-.445312 87.703126-6.597656 8.710937-8.210938 20.214843-4.265625 30.402343 2.886719 8.039063 3.753906 16.667969 2.519531 25.121094-2.460937 15.152344-11.269531 28.539063-24.214844 36.796875l-41.953124 22.632812c-29.511719 15.917969-52.542969 41.636719-65.121094 72.71875l-12.863282 31.785157-48-.191407.328126-80-39.214844-47.742187c-12.882813-8.359375-21.582032-21.816406-23.921875-36.992187-1.167969-8.492188-.230469-17.136719 2.738281-25.175782 4.019531-10.144531 2.507812-21.644531-4-30.402344-9.714844-12.605468-14.941406-28.09375-14.847656-44.007812zm0 0" fill="#5f9548"/><g fill="#68a34f"><path d="m332.527344 137.03125 72.171875-39.695312 7.707031 14.011718-72.171875 39.699219zm0 0"/><path d="m331.730469 233.28125 88.214843-55.65625 8.535157 13.535156-88.210938 55.65625zm0 0"/><path d="m331.34375 329.285156 88.214844-55.65625 8.535156 13.53125-88.210938 55.660156zm0 0"/></g><path d="m295.992188 208.015625c.019531-15.851563-5.222657-31.261719-14.914063-43.808594-7.167969-8.730469-9.148437-20.617187-5.199219-31.199219 6.226563-15.351562 5.335938-32.667968-2.429687-47.296874-7.765625-14.632813-21.609375-25.074219-37.808594-28.519532-2.886719-.601562-5.816406-.980468-8.761719-1.136718-10.851562-.929688-20.382812-7.59375-24.976562-17.472657-9.550782-18.78125-28.839844-30.605469-49.910156-30.605469-21.070313 0-40.359376 11.824219-49.914063 30.605469-4.589844 9.878907-14.121094 16.542969-24.972656 17.472657-2.945313.152343-5.871094.535156-8.753907 1.136718-16.203124 3.445313-30.046874 13.886719-37.8125 28.515625-7.765624 14.628907-8.660156 31.949219-2.433593 47.300781 3.949219 10.582032 1.96875 22.46875-5.203125 31.199219-19.917969 25.851563-19.878906 61.890625.097656 87.703125 6.550781 8.734375 8.117188 20.234375 4.136719 30.398438-2.929688 8.054687-3.835938 16.703125-2.632813 25.183594 2.398438 15.167968 11.15625 28.59375 24.070313 36.898437l41.859375 22.800781c29.4375 16.042969 52.351562 41.851563 64.796875 72.984375l12.761719 31.839844h48v-80l39.414062-47.617187c12.917969-8.304688 21.675781-21.726563 24.074219-36.894532 1.203125-8.484375.296875-17.132812-2.632813-25.1875-3.980468-10.164062-2.414062-21.664062 4.136719-30.398437 9.75-12.558594 15.03125-28.007813 15.007813-43.902344zm0 0" fill="#5f9548"/><path d="m68.109375 111.011719 7.765625-13.980469 72 40-7.765625 13.980469zm0 0" fill="#68a34f"/><path d="m51.699219 190.761719 8.589843-13.496094 87.996094 55.996094-8.589844 13.5zm0 0" fill="#68a34f"/><path d="m51.699219 286.765625 8.589843-13.5 87.996094 56-8.589844 13.5zm0 0" fill="#68a34f"/><path d="m383.992188 208.015625c.019531-15.851563-5.222657-31.261719-14.914063-43.808594-7.167969-8.730469-9.148437-20.617187-5.199219-31.199219 6.226563-15.351562 5.335938-32.667968-2.429687-47.296874-7.765625-14.632813-21.609375-25.074219-37.808594-28.519532-2.902344-.605468-5.84375-.984375-8.800781-1.136718-10.855469-.929688-20.382813-7.59375-24.976563-17.472657-9.554687-18.78125-28.839843-30.605469-49.910156-30.605469s-40.359375 11.824219-49.914063 30.605469c-4.59375 9.878907-14.121093 16.542969-24.976562 17.472657-2.941406.152343-5.867188.535156-8.75 1.136718-16.203125 3.445313-30.046875 13.886719-37.8125 28.515625-7.769531 14.628907-8.660156 31.949219-2.4375 47.300781 3.953125 10.582032 1.972656 22.46875-5.199219 31.199219-19.796875 25.699219-19.890625 61.484375-.222656 87.285157 6.675781 8.964843 8.3125 20.71875 4.335937 31.160156-2.839843 7.957031-3.699218 16.484375-2.511718 24.851562 2.394531 15.164063 11.152344 28.585938 24.0625 36.894532l4.855468 3.238281c41.605469 27.714843 66.601563 74.390625 66.609376 124.378906h64c0-49.980469 24.980468-96.65625 66.566406-124.378906l4.859375-3.238281c12.910156-8.308594 21.664062-21.730469 24.0625-36.894532 1.1875-8.367187.324219-16.894531-2.511719-24.851562-3.976562-10.441406-2.34375-22.195313 4.335938-31.160156 9.546874-12.480469 14.710937-27.761719 14.6875-43.476563zm0 0" fill="#7eb457"/><path d="m383.992188 208.015625c.019531-15.851563-5.222657-31.261719-14.914063-43.808594-7.167969-8.730469-9.148437-20.617187-5.199219-31.199219 9.382813-23.066406 2.375-49.558593-17.191406-64.960937-28.800781 166.398437-112.800781 257.78125-176.535156 304.574219 24.371094 27.371094 37.839844 62.742187 37.839844 99.394531h64c0-49.980469 24.976562-96.652344 66.558593-124.378906l4.867188-3.238281c12.910156-8.308594 21.664062-21.730469 24.0625-36.894532 1.1875-8.367187.324219-16.894531-2.511719-24.851562-3.976562-10.441406-2.34375-22.195313 4.335938-31.160156 9.546874-12.480469 14.710937-27.761719 14.6875-43.476563zm0 0" fill="#77ad50"/><path d="m314.640625 290.070312-66.648437 59.984376v-74.480469l77.351562-69.617188-10.703125-11.886719-66.648437 59.984376v-74.417969l61.265624-53.605469-10.53125-12.035156-50.734374 44.394531v-102.375h-16v102.375l-50.734376-44.394531-10.53125 12.035156 61.265626 53.605469v74.417969l-66.648438-59.984376-10.703125 11.886719 77.351563 69.617188v74.480469l-66.648438-59.984376-10.703125 11.886719 77.351563 69.617188v100.441406h16v-100.441406l77.351562-69.617188zm0 0" fill="#88c25e"/><path d="m19.59375 279.597656c-3.375 9.296875-4.417969 19.277344-3.050781 29.074219 2.84375 17.632813 13.109375 33.203125 28.191406 42.765625l41.914063 22.800781c27.78125 15.160157 49.417968 39.523438 61.191406 68.902344l12.71875 31.839844c1.214844 3.042969 4.160156 5.035156 7.433594 5.035156h104c4.417968 0 8-3.582031 8-8-.050782-47.320313 23.601562-91.515625 63-117.722656l4.855468-3.199219c10.382813-6.847656 18.539063-16.578125 23.464844-28l56.976562-36.296875-8.59375-13.488281-43.703124 27.800781c.128906-7.199219-1.050782-14.367187-3.488282-21.144531-3.074218-7.894532-1.863281-16.820313 3.199219-23.613282 9.378906-12.234374 14.972656-26.945312 16.089844-42.320312l36.535156-23.265625-8.59375-13.503906-28.726563 18.273437c-2.058593-13.191406-7.421874-25.648437-15.589843-36.210937-5.386719-6.484375-6.957031-15.328125-4.128907-23.269531.40625-.984376.65625-2.023438 1.007813-3.039063l39.582031-22.007813-7.773437-13.984374-28.195313 15.679687c.058594-3.265625-.128906-6.53125-.550781-9.769531-3.964844-26.523438-23.910156-47.835938-50.113281-53.550782-3.28125-.679687-6.609375-1.105468-9.957032-1.28125-8-.78125-14.964843-5.789062-18.257812-13.121093-.871094-1.703125-1.917969-3.261719-2.917969-4.863281 10.847657-10.898438 26.269531-15.921876 41.457031-13.511719 15.1875 2.414062 28.292969 11.972656 35.230469 25.695312 5.851563 12.425781 17.933594 20.746094 31.632813 21.777344 15.503906.785156 29.671875 9.019531 38.03125 22.105469 8.355468 13.082031 9.867187 29.402344 4.054687 43.796875-5.039062 13.195312-2.664062 28.078125 6.234375 39.050781 8.601563 11.171875 13.257813 24.882812 13.238282 38.984375.046874 14.128906-4.65625 27.867187-13.351563 39.007813-8.28125 10.890624-10.28125 25.3125-5.28125 38.046874 2.472656 6.828126 3.238281 14.152344 2.234375 21.34375-2.03125 12.675782-9.285156 23.914063-20 30.984376l-41.914062 22.800781c-31.058594 16.949219-55.246094 44.179687-68.414063 77.023437l-10.699219 26.792969h-10.574218v16h16c3.273437 0 6.21875-1.992187 7.433593-5.035156l12.710938-31.832031c11.777343-29.378907 33.414062-53.746094 61.199219-68.910157l42.527343-23.199219c14.8125-9.601562 24.839844-25.046874 27.585938-42.480468 1.359375-9.789063.304687-19.761719-3.074219-29.046875-3.054688-7.554688-1.960938-16.15625 2.898438-22.699219 22.246093-28.707031 22.3125-68.8125.167968-97.597656-5.410156-6.449219-6.96875-15.289063-4.097656-23.199219 7.847656-19.191406 5.886719-41-5.261719-58.480469-11.148437-17.480468-30.09375-28.460937-50.800781-29.441406-7.988281-.78125-14.945312-5.773438-18.242188-13.085938-9.121093-18.035156-26.246093-30.683593-46.167968-34.09375-19.921875-3.410156-40.277344 2.820313-54.878906 16.796876-14.605469-13.957032-34.953126-20.179688-54.863282-16.773438-19.914062 3.402344-37.039062 16.03125-46.175781 34.042969-3.292969 7.335937-10.265625 12.34375-18.265625 13.121093-3.347656.175782-6.675781.601563-9.960938 1.28125-26.199218 5.71875-46.136718 27.03125-50.101562 53.550782-.425781 3.238281-.609375 6.503906-.554688 9.769531l-28.191406-15.679687-7.773437 13.984374 39.574219 22.007813c.359374 1.015625.609374 2.054687 1.015624 3.046875 2.832032 7.9375 1.261719 16.78125-4.128906 23.261719-8.167968 10.5625-13.53125 23.019531-15.589844 36.210937l-28.6875-18.273437-8.59375 13.503906 36.535157 23.265625c1.117187 15.375 6.710937 30.085938 16.089843 42.320312 5.0625 6.789063 6.273438 15.710938 3.199219 23.605469-2.449219 6.777344-3.644531 13.945313-3.527343 21.152344l-43.710938-27.839844-8.585938 13.488281 56.976563 36.289063c4.921875 11.421875 13.078125 21.152344 23.464844 28l4.855469 3.199219c37.050781 24.652344 60.308593 65.332031 62.75 109.769531h-26.324219l-10.722657-26.816406c-13.164062-32.839844-37.351562-60.070313-68.40625-77.015625l-41.296874-22.402344c-10.984376-7.039062-18.464844-18.40625-20.59375-31.277344-1.011719-7.191406-.253907-14.523437 2.210937-21.355468 5.011719-12.746094 3.019531-27.183594-5.257813-38.09375-8.707031-11.148438-13.410156-24.898438-13.359374-39.039063-.023438-14.085937 4.621093-27.78125 13.207031-38.945313 8.90625-10.941406 11.304687-25.796874 6.296875-38.984374-5.917969-14.394532-4.464844-30.769532 3.890625-43.898438 8.359375-13.128906 22.578125-21.375 38.125-22.109375 13.714843-1.023437 25.816406-9.34375 31.679687-21.785156 8.164063-16.132813 24.71875-26.296875 42.800782-26.277344 7.132812-.023437 14.179687 1.574219 20.609374 4.671875l6.917969-14.402344c-8.585937-4.140625-17.996093-6.285156-27.527343-6.269531-24.09375-.0429688-46.15625 13.492187-57.039063 34.992187-3.304687 7.328126-10.285156 12.328126-18.289063 13.09375-3.355468.164063-6.691406.59375-9.976562 1.28125-18.53125 3.949219-34.363281 15.898438-43.242188 32.636719-8.875 16.738281-9.890624 36.550781-2.765624 54.105469 2.855468 7.921875 1.265624 16.769531-4.167969 23.199219-22.082031 28.773437-22 68.8125.207031 97.488281 4.871094 6.574219 5.957031 15.210938 2.875 22.785156zm126.269531 61.382813-4.855469-3.238281c-11.011718-7.03125-18.5-18.429688-20.582031-31.328126-1.011719-7.089843-.285156-14.316406 2.117188-21.0625 4.867187-13 2.796875-27.582031-5.503907-38.707031-17.472656-22.921875-17.390624-54.71875.199219-77.550781 8.863281-10.996094 11.246094-25.863281 6.265625-39.078125-3.210937-7.875-4.257812-16.460937-3.03125-24.875 2.960938-19.851563 17.886719-35.804687 37.496094-40.085937 2.484375-.515626 5.007812-.84375 7.542969-.976563 13.730469-1.015625 25.847656-9.363281 31.6875-21.832031 8.183593-16.117188 24.726562-26.269532 42.800781-26.269532s34.617188 10.152344 42.800781 26.269532c5.839844 12.46875 17.957031 20.8125 31.6875 21.832031 2.535157.132813 5.058594.457031 7.542969.96875 19.609375 4.289063 34.53125 20.242187 37.496094 40.09375 1.226562 8.414063.179687 17-3.03125 24.875-4.980469 13.214844-2.597656 28.082031 6.265625 39.078125 17.589843 22.832031 17.671875 54.628906.199219 77.550781-8.300782 11.128907-10.375 25.714844-5.503907 38.714844 2.402344 6.738281 3.128907 13.960937 2.117188 21.046875-2.078125 12.902344-9.566407 24.304688-20.582031 31.335938l-4.855469 3.238281c-41.507813 27.597656-67.464844 73.25-69.945313 123.035156h-16.199218v-92.441406l77.351562-69.601563-10.703125-11.886718-66.648437 59.96875v-74.480469l77.351562-69.601563-10.703125-11.886718-66.648437 59.96875v-74.402344l61.265624-53.597656-10.53125-12-50.734374 44.359374v-102.398437h-16v102.398437l-50.734376-44.390624-10.53125 12 61.265626 53.613281v74.402343l-66.648438-60-10.703125 11.886719 77.351563 69.648438v74.480469l-66.648438-60-10.703125 11.886718 77.351563 69.632813v92.441406h-16.199219c-2.480469-49.78125-28.425781-95.433594-69.929688-123.035156zm0 0"/></svg>