<svg height="480pt" viewBox="-12 0 480 480" width="480pt" xmlns="http://www.w3.org/2000/svg"><g fill="#e0e0de"><path d="m448.035156 8h-31.425781c-21.367187 53.808594-35.027344 110.367188-40.574219 168h32c5.351563-57.605469 18.816406-114.164062 40-168zm0 0"/><path d="m232.035156 8h-31.425781c-21.367187 53.808594-35.027344 110.367188-40.574219 168h32c5.351563-57.605469 18.816406-114.164062 40-168zm0 0"/><path d="m304.035156 8h-31.425781c-21.367187 53.808594-35.027344 110.367188-40.574219 168h32c5.351563-57.605469 18.816406-114.164062 40-168zm0 0"/><path d="m376.035156 8h-31.425781c-21.367187 53.808594-35.027344 110.367188-40.574219 168h32c5.351563-57.605469 18.816406-114.164062 40-168zm0 0"/></g><path d="m432.035156 200c0-13.253906-10.746094-24-24-24h-250.890625c-19.089843.042969-37.050781 9.046875-48.503906 24.320312l-79.6875 105.742188c-20.5 27.308594-26.363281 62.914062-15.695313 95.351562 13.527344 41.921876 52.464844 70.398438 96.511719 70.585938h258.265625c35.34375 0 64-28.652344 64-64zm0 0" fill="#95573a"/><path d="m408.035156 176h-34.121094c-69.878906 146.070312-246.496093 173.910156-364.328124 175.0625-2.910157 16.832031-1.648438 34.121094 3.671874 50.351562 13.527344 41.921876 52.464844 70.398438 96.511719 70.585938h258.265625c35.34375 0 64-28.652344 64-64v-208c0-13.253906-10.746094-24-24-24zm0 0" fill="#8f4d2e"/><path d="m117.316406 228.160156 10.570313-13.511718 12.601562 9.859374-10.570312 13.511719zm0 0" fill="#a36548"/><path d="m48.109375 320.550781 59-79.332031 12.835937 9.550781-59 79.328125zm0 0" fill="#a36548"/><path d="m432.035156 200c0-13.253906-10.746094-24-24-24h-26.890625c-19.089843.042969-37.050781 9.046875-48.503906 24.320312l-79.6875 105.742188c-20.5 27.308594-26.363281 62.914062-15.695313 95.351562 13.527344 41.921876 52.464844 70.398438 96.511719 70.585938h34.265625c35.34375 0 64-28.652344 64-64zm0 0" fill="#f26666"/><path d="m381.144531 208c-9.050781.003906-17.566406 4.296875-22.949219 11.574219l-24.707031 32.800781c-2.917969 3.878906-3.921875 8.871094-2.722656 13.574219 1.195313 4.703125 4.464844 8.609375 8.882813 10.617187l37.761718 17.167969c4.957032 2.253906 10.71875 1.835937 15.292969-1.113281 4.574219-2.949219 7.335937-8.023438 7.332031-13.46875v-52.265625c0-10.429688-8.457031-18.886719-18.890625-18.886719zm0 0" fill="#feb2b2"/><path d="m278.515625 325.320312c-14.222656 18.933594-18.277344 43.625-10.859375 66.113282 9.199219 28.792968 35.886719 48.398437 66.113281 48.566406h18.265625c26.507813 0 48-21.492188 48-48v-77.695312c0-6.273438-3.664062-11.972657-9.378906-14.570313l-57.496094-26.132813c-6.824218-3.101562-14.890625-1.046874-19.398437 4.941407zm0 0" fill="#e04646"/><path d="m378.90625 152c-1.097656 8-2.074219 16-2.871094 24h32c.796875-8 1.765625-16 2.839844-24zm0 0" fill="#d6d6d4"/><path d="m160.035156 176h32c.796875-8 1.765625-16 2.839844-24h-32c-1.066406 8-2.042969 16-2.839844 24zm0 0" fill="#d6d6d4"/><path d="m232.035156 176h32c.796875-8 1.765625-16 2.839844-24h-32c-1.066406 8-2.042969 16-2.839844 24zm0 0" fill="#d6d6d4"/><path d="m304.035156 176h32c.796875-8 1.765625-16 2.839844-24h-32c-1.066406 8-2.042969 16-2.839844 24zm0 0" fill="#d6d6d4"/><path d="m239.457031 10.992188c.996094-2.464844.699219-5.265626-.789062-7.46875-1.488281-2.203126-3.976563-3.523438-6.632813-3.523438h-31.425781c-3.261719 0-6.195313 1.984375-7.414063 5.007812-20.820312 52.324219-34.386718 107.25-40.3125 163.25-20.03125 1.304688-38.507812 11.246094-50.632812 27.246094l-79.6875 105.742188c-22.105469 29.390625-28.425781 67.738281-16.929688 102.664062 14.566407 45.242188 56.609376 75.960938 104.136719 76.089844h258.265625c39.746094-.042969 71.953125-32.253906 72-72v-208c-.050781-14.234375-9.511718-26.714844-23.203125-30.609375 5.601563-54.308594 18.589844-107.601563 38.609375-158.398437.992188-2.464844.699219-5.261719-.785156-7.464844s-3.964844-3.52343775-6.621094-3.527344h-31.425781c-3.261719 0-6.195313 1.984375-7.414063 5.007812-20.789062 52.242188-34.34375 107.082032-40.28125 162.992188h-23.902343c5.664062-53.832031 18.597656-106.648438 38.445312-157.007812.996094-2.464844.699219-5.265626-.789062-7.46875-1.488281-2.203126-3.976563-3.523438-6.632813-3.523438h-31.425781c-3.261719 0-6.195313 1.984375-7.414063 5.007812-20.789062 52.242188-34.34375 107.082032-40.28125 162.992188h-23.902343c5.664062-53.832031 18.597656-106.648438 38.445312-157.007812.996094-2.464844.699219-5.265626-.789062-7.46875-1.488281-2.203126-3.976563-3.523438-6.632813-3.523438h-31.425781c-3.261719 0-6.195313 1.984375-7.414063 5.007812-20.789062 52.242188-34.34375 107.082032-40.28125 162.992188h-23.902343c5.664062-53.832031 18.597656-106.648438 38.445312-157.007812zm-33.414062 5.007812h14.285156c-18.164063 48.976562-30.089844 100.042969-35.496094 152h-15.902343c5.707031-52.066406 18.183593-103.164062 37.113281-152zm-96.273438 448c-40.613281-.140625-76.519531-26.417969-88.9375-65.089844-9.855469-29.933594-4.441406-62.800781 14.488281-88l79.679688-105.734375c9.96875-13.257812 25.558594-21.089843 42.144531-21.175781h180.089844c-4.09375 3.398438-7.777344 7.257812-10.984375 11.503906l-79.6875 105.742188c-22.105469 29.390625-28.425781 67.738281-16.929688 102.664062 8.160157 25.027344 24.964844 46.328125 47.402344 60.089844zm314.265625-264v208c-.035156 30.914062-25.089844 55.964844-56 56h-34.265625c-40.613281-.140625-76.519531-26.417969-88.9375-65.089844-9.855469-29.933594-4.441406-62.800781 14.488281-88l79.679688-105.734375c9.96875-13.257812 25.558594-21.089843 42.144531-21.175781h26.890625c8.835938 0 16 7.164062 16 16zm-1.992187-184h14.285156c-18.164063 48.976562-30.089844 100.042969-35.496094 152h-15.902343c5.707031-52.066406 18.183593-103.164062 37.113281-152zm-72 0h14.285156c-18.164063 48.976562-30.089844 100.042969-35.496094 152h-15.902343c5.707031-52.066406 18.183593-103.164062 37.113281-152zm-72 0h14.285156c-18.164063 48.976562-30.089844 100.042969-35.496094 152h-15.902343c5.707031-52.066406 18.183593-103.164062 37.113281-152zm0 0"/><path d="m117.316406 228.160156 10.570313-13.511718 12.601562 9.859374-10.570312 13.511719zm0 0"/><path d="m48.109375 320.550781 59-79.332031 12.835937 9.550781-59 79.328125zm0 0"/><path d="m381.144531 200c-11.566406-.003906-22.453125 5.472656-29.34375 14.769531l-24.695312 32.796875c-3.640625 4.871094-5.273438 10.953125-4.558594 16.992188-6.0625.996094-11.507813 4.285156-15.199219 9.195312l-35.25 46.773438c-15.785156 21.019531-20.289062 48.433594-12.0625 73.402344 10.273438 32.089843 40.039063 53.917968 73.734375 54.070312h18.265625c30.910156-.035156 55.964844-25.085938 56-56v-77.695312c-.019531-6.71875-2.851562-13.125-7.808594-17.65625 4.941407-4.476563 7.777344-10.828126 7.808594-17.496094v-52.273438c-.023437-14.839844-12.050781-26.859375-26.890625-26.878906zm-41.261719 57.167969 24.695313-32.800781c3.890625-5.25 10.03125-8.351563 16.566406-8.367188 6.007813.003906 10.878907 4.871094 10.890625 10.878906v52.273438c0 2.714844-1.378906 5.246094-3.660156 6.722656-2.28125 1.472656-5.152344 1.6875-7.628906.574219l-37.792969-17.175781c-2.210937-1.007813-3.84375-2.960938-4.441406-5.316407-.597657-2.351562-.09375-4.851562 1.371093-6.789062zm52.152344 134.832031c-.027344 22.082031-17.921875 39.972656-40 40h-18.265625c-26.78125-.160156-50.414062-17.550781-58.535156-43.070312-6.613281-19.988282-3.027344-41.949219 9.597656-58.792969l35.25-46.785157c2.273438-2.976562 6.292969-4 9.710938-2.472656l6.464843 2.945313 37.761719 17.167969 13.222657 6.015624c2.859374 1.296876 4.695312 4.148438 4.695312 7.289063zm0 0"/></svg>