<svg height="480pt" viewBox="0 0 480 480.4" width="480pt" xmlns="http://www.w3.org/2000/svg"><path d="m56.199219 56.398438h256c26.402343 0 48 21.601562 48 48v320c0 26.402343-21.597657 48-48 48h-256c-26.398438 0-48-21.597657-48-48v-320c0-26.398438 21.601562-48 48-48zm0 0" fill="#7a432a"/><path d="m24.199219 460.398438c8.800781 8 20 12 32 12h256c26.402343 0 48-21.597657 48-48v-300zm0 0" fill="#743b20"/><path d="m312.199219 448.398438h-256c-26.398438 0-48-21.597657-48-48v24c0 26.402343 21.601562 48 48 48h256c26.402343 0 48-21.597657 48-48v-24c0 26.402343-21.597657 48-48 48zm0 0" fill="#662e13"/><path d="m273.800781 336.398438h-195.199219c-22.402343 0-46.402343-27.199219-46.402343-46.398438v-217.601562c0-35.199219 28.800781-64 64-64h160c35.199219 0 64 28.800781 64 64v217.601562c0 25.601562-20.800781 46.398438-46.398438 46.398438zm0 0" fill="#f26666"/><path d="m264.199219 336.398438h-176c-31.199219 0-56-24.796876-56-56 0-40 32-72 72-72h144c40 0 72 32 72 72 0 31.203124-24.800781 56-56 56zm0 0" fill="#cf3a3a"/><path d="m272.199219 336.398438h-192c-26.398438 0-48-21.597657-48-48v-8c0-40 32-72 72-72h144c40 0 72 32 72 72v8c0 26.402343-21.597657 48-48 48zm-168-112c-31.199219 0-56 24.800781-56 56v8c0 17.601562 14.402343 32 32 32h192c17.601562 0 32-14.398438 32-32v-8c0-31.199219-24.800781-56-56-56zm0 0" fill="#e94f4f"/><path d="m238.601562 257.199219c-7.203124-28.800781-32.800781-48.800781-62.402343-48.800781h-8v16h8c26.402343 0 48 21.601562 48 48 0 26.402343-21.597657 48-48 48h-8v16h8c35.199219 0 63.199219-28 64-62.398438 31.199219 1.601562 51.199219 14.398438 59.199219 36.800781l15.203124-5.601562c-11.203124-29.597657-37.601562-46.398438-76-48zm0 0" fill="#e94f4f"/><path d="m72.199219 80.398438h16v104h-16zm0 0" fill="#ff8080"/><path d="m72.199219 48.398438h16v16h-16zm0 0" fill="#ff8080"/><path d="m112.199219 264.398438h160c35.199219 0 64 28.800781 64 64v48c0 26.402343-21.597657 48-48 48h-192c-26.398438 0-48-21.597657-48-48v-48c0-35.199219 28.800781-64 64-64zm0 0" fill="#f26666"/><path d="m288.199219 424.398438h-192c-26.398438 0-48-21.597657-48-48v-8c0-40 32-72 72-72h144c40 0 72 32 72 72v8c0 26.402343-21.597657 48-48 48zm0 0" fill="#cf3a3a"/><path d="m288.199219 424.398438h-192c-26.398438 0-48-21.597657-48-48v-8c0-40 32-72 72-72h144c40 0 72 32 72 72v8c0 26.402343-21.597657 48-48 48zm-168-112c-31.199219 0-56 24.800781-56 56v8c0 17.601562 14.402343 32 32 32h192c17.601562 0 32-14.398438 32-32v-8c0-31.199219-24.800781-56-56-56zm0 0" fill="#e94f4f"/><path d="m254.601562 345.199219c-7.203124-28.800781-32.800781-48.800781-62.402343-48.800781h-8v16h8c26.402343 0 48 21.601562 48 48 0 26.402343-21.597657 48-48 48h-8v16h8c35.199219 0 63.199219-28 64-63.199219 23.199219 1.601562 49.601562 9.601562 59.199219 36.800781l15.203124-5.601562c-11.203124-28.796876-37.601562-45.597657-76-47.199219zm0 0" fill="#e94f4f"/><path d="m472.199219 312.398438h-72v-181.597657c0-51.199219 27.199219-97.601562 72-122.402343zm0 0" fill="#e0e0de"/><path d="m456.199219 472.398438h-23.199219c-9.601562 0-16.800781-7.199219-16.800781-16.796876 0-4.800781 1.601562-8.800781 4.800781-12l11.199219-11.203124v-88l-16-16v-16h56v144c0 8.800781-7.199219 16-16 16zm0 0" fill="#7a432a"/><path d="m400.199219 288.398438v24h72v-222.398438zm0 0" fill="#d6d6d4"/><path d="m56.199219 480.398438h256c31.199219 0 56-24.796876 56-56v-320c0-29.597657-22.398438-53.597657-52-56-10.398438-28.796876-37.597657-48-68-48h-144c-32 0-60 21.601562-68.800781 52-21.597657 8.800781-35.199219 29.601562-35.199219 52v320c0 31.203124 24.800781 56 56 56zm-8-200c0-31.199219 24.800781-56 56-56h72c20 0 38.402343 12.800781 44.800781 32h-100.800781c-30.398438 0-57.597657 19.203124-68 48-2.398438-4.796876-4-10.398438-4-16zm189.601562-24c-3.199219-12.796876-10.402343-23.199219-20-32h30.398438c25.601562 0 48.800781 17.601562 54.402343 43.203124-11.203124-7.203124-24.800781-11.203124-38.402343-11.203124zm-173.601562 112c0-31.199219 24.800781-56 56-56h72c26.402343 0 48 21.601562 48 48 0 26.402343-21.597657 48-48 48h-96c-17.597657 0-32-14.398438-32-32zm256 5.601562c-13.597657-17.601562-36-27.199219-65.597657-28.800781-3.203124-12.800781-10.402343-24.800781-20-32.800781h29.597657c31.199219 0 56 24.800781 56 56zm-64-12.800781c21.601562 1.601562 47.199219 8.800781 58.402343 33.601562-5.601562 8.800781-16 13.597657-25.601562 13.597657h-53.601562c12.800781-12 20.800781-28.796876 20.800781-47.199219zm8-64.800781h-144c-21.597657 0-42.398438 9.601562-56 26.402343 3.199219-28.800781 27.199219-50.402343 56-50.402343h144c28.800781 0 52.800781 21.601562 56 50.402343-13.597657-16.800781-34.398438-26.402343-56-26.402343zm-215.199219-235.199219v-.800781c6.398438-25.597657 28.800781-44 55.199219-44h144c25.601562 0 48 17.601562 54.402343 41.601562.796876 4.800781 1.597657 9.601562 1.597657 14.398438v163.203124c-13.597657-16.800781-34.398438-27.203124-56-27.203124h-144c-21.597657 0-42.398438 9.601562-56 27.203124v-163.203124c0-4 0-7.199219.800781-11.199219zm-32.800781 43.199219c0-12.796876 5.601562-24.796876 16-32v216c0 13.601562 5.601562 26.402343 16 36v4 48c0 26.402343 21.601562 48 48 48h192c26.402343 0 48-21.597657 48-48v-48c0-16.796876-5.597657-32-16-44.796876v-211.203124c0-2.398438 0-4.796876-.800781-7.199219 19.203124 4 32.800781 20 32.800781 39.199219v320c0 22.402343-17.597657 40-40 40h-256c-22.398438 0-40-17.597657-40-40zm0 0"/><path d="m72.199219 80.398438h16v104h-16zm0 0"/><path d="m72.199219 48.398438h16v16h-16zm0 0"/><path d="m476.199219 1.199219c-2.398438-1.597657-5.597657-1.597657-8 0-47.199219 26.402343-76 76-76 129.601562v181.597657c0 4.800781 3.199219 8 8 8h8v8c0 2.402343.800781 4 2.402343 5.601562l13.597657 13.601562v81.597657l-8.800781 8.800781c-9.597657 9.601562-9.597657 25.601562 0 35.199219 4.800781 4.800781 11.203124 7.199219 17.601562 7.199219h23.199219c13.601562 0 24-10.398438 24-24v-448c0-3.199219-1.597657-5.597657-4-7.199219zm-68 129.601562c0-43.199219 20.800781-83.199219 56-108v281.597657h-56zm56 325.597657c0 4.800781-3.199219 8-8 8h-23.199219c-4.800781 0-8.800781-4-8.800781-8.796876 0-2.402343.800781-4.800781 2.402343-6.402343l11.199219-11.199219c1.597657-1.601562 2.398438-3.199219 2.398438-5.601562v-88c0-2.398438-.800781-4-2.398438-5.597657l-13.601562-13.601562v-4.800781h40zm0 0"/></svg>