<svg height="479pt" viewBox="0 -119 479.97136 479" width="479pt" xmlns="http://www.w3.org/2000/svg"><path d="m471.90625 45.972656c-1.914062-21.46875-20.074219-37.820312-41.625-37.480468h-380.589844c-21.542968-.324219-39.6875 16.023437-41.601562 37.480468-1.265625 19.914063 12.34375 37.714844 31.894531 41.71875v120.800782c0 13.253906 10.746094 24 24 24h352c13.257813 0 24-10.746094 24-24v-120.800782c19.5625-3.992187 33.183594-21.796875 31.921875-41.71875zm0 0" fill="#95573a"/><path d="m454.738281 16.347656c-39.929687 116.023438-138.433593 181.746094-207.039062 216.144532h168.285156c13.257813 0 24-10.746094 24-24v-120.800782c19.558594-3.992187 33.179687-21.789062 31.921875-41.710937-.863281-11.992188-7.195312-22.917969-17.167969-29.632813zm0 0" fill="#8f4d2e"/><path d="m263.90625 45.972656c-1.914062-21.46875-20.074219-37.820312-41.625-37.480468h-172.589844c-21.542968-.324219-39.6875 16.023437-41.601562 37.480468-1.265625 19.914063 12.34375 37.714844 31.894531 41.71875v120.800782c0 13.253906 10.746094 24 24 24h144c13.257813 0 24-10.746094 24-24v-120.800782c19.5625-3.992187 33.183594-21.796875 31.921875-41.71875zm0 0" fill="#e0e0de"/><g fill="#7a432a"><path d="m439.984375 96.492188h-160c-4.417969 0-8-3.582032-8-8 0-4.417969 3.582031-8 8-8h160c4.417969 0 8 3.582031 8 8 0 4.417968-3.582031 8-8 8zm0 0"/><path d="m303.984375 120.492188h16v16h-16zm0 0"/><path d="m351.984375 168.492188h16v16h-16zm0 0"/><path d="m391.984375 120.492188h16v16h-16zm0 0"/><path d="m271.984375 184.492188h16v16h-16zm0 0"/><path d="m311.984375 32.492188h16v16h-16zm0 0"/><path d="m391.984375 48.492188h16v16h-16zm0 0"/></g><path d="m222.28125 8.492188h-1.597656c-32.167969 89.023437-95.949219 163.105468-179.203125 208.144531 3.410156 9.5 12.410156 15.84375 22.503906 15.855469h144c13.257813 0 24-10.746094 24-24v-120.800782c19.558594-3.992187 33.179687-21.789062 31.921875-41.710937-1.910156-21.472657-20.070312-37.828125-41.625-37.488281zm0 0" fill="#d6d6d4"/><path d="m.0820312 45.476562c-1.2460932 21.382813 11.7421878 41.035157 31.9023438 48.273438v114.742188c0 17.671874 14.328125 32 32 32h352c17.675781 0 32-14.328126 32-32v-114.742188c20.164063-7.238281 33.152344-26.890625 31.90625-48.273438-2.09375-25.726562-23.800781-45.4101558-49.609375-44.984374h-380.589844c-25.808594-.4257818-47.515625 19.257812-49.6093748 44.984374zm430.1992188-28.984374c17.339844-.40625 32.03125 12.695312 33.601562 29.96875.949219 15.910156-9.898437 30.113281-25.496093 33.382812-.574219.152344-1.132813.371094-1.65625.648438h-156.746094v16h152v112c0 8.835937-7.164063 16-16 16h-180.445313c2.878907-4.84375 4.414063-10.367188 4.445313-16v-114.742188c20.164063-7.238281 33.152344-26.890625 31.90625-48.273438-.683594-10.824218-5.121094-21.074218-12.546875-28.984374zm-174.359375 29.96875c.945313 15.921874-9.921875 30.128906-25.535156 33.382812-3.726563.761719-6.402344 4.039062-6.402344 7.839844v120.808594c0 8.835937-7.164063 16-16 16h-144c-8.835937 0-16-7.164063-16-16v-120.800782c.003906-3.800781-2.671875-7.078125-6.398437-7.839844-15.609376-3.257812-26.476563-17.464843-25.527344-33.382812 1.566406-17.289062 16.273437-30.402344 33.632812-29.976562h172.589844c17.355469-.429688 32.070312 12.679687 33.640625 29.96875zm0 0"/><path d="m303.984375 120.492188h16v16h-16zm0 0"/><path d="m351.984375 168.492188h16v16h-16zm0 0"/><path d="m391.984375 120.492188h16v16h-16zm0 0"/><path d="m271.984375 184.492188h16v16h-16zm0 0"/><path d="m311.984375 32.492188h16v16h-16zm0 0"/><path d="m391.984375 48.492188h16v16h-16zm0 0"/></svg>