<svg height="480pt" viewBox="-56 0 480 480.00006" width="480pt" xmlns="http://www.w3.org/2000/svg"><path d="m312.027344 90.441406v-34.441406h-112v34.441406c.003906 19.511719-3.953125 38.820313-11.640625 56.757813l-24.71875 57.601562c-7.6875 17.949219-11.648438 37.273438-11.640625 56.800781v178.644532c0 17.539062 14.21875 31.753906 31.753906 31.753906h144.496094c17.535156 0 31.75-14.214844 31.75-31.753906v-178.644532c.011718-19.527343-3.949219-38.851562-11.640625-56.800781l-24.71875-57.601562c-7.683594-17.9375-11.644531-37.246094-11.640625-56.757813zm0 0" fill="#60d1e0"/><path d="m224.027344 88v2.449219c0 4.335937-.164063 8.648437-.496094 12.941406l15.960938 1.21875c.359374-4.671875.535156-9.441406.535156-14.160156v-2.449219zm0 0" fill="#9fe4ed"/><path d="m210.429688 156.625-6.953126 16.222656 14.695313 6.304688 6.960937-16.230469c5.710938-13.339844 9.835938-27.300781 12.28125-41.601563l-15.769531-2.6875c-2.234375 13.058594-6 25.8125-11.214843 37.992188zm0 0" fill="#9fe4ed"/><path d="m344.964844 251.199219c-31.144532 8.800781-64.230469 7.898437-94.847656-2.582031-29.535157-10.117188-61.394532-11.324219-91.609376-3.472657l-5.664062 1.367188c-.535156 5.011719-.808594 10.046875-.816406 15.089843v178.644532c0 17.539062 14.21875 31.753906 31.753906 31.753906h144.496094c17.535156 0 31.75-14.214844 31.75-31.753906v-178.644532c0-4.90625-.253906-9.804687-.75-14.679687zm0 0" fill="#e0e0de"/><path d="m208.027344 8h96c13.257812 0 24 10.746094 24 24v24h-144v-24c0-13.253906 10.746094-24 24-24zm0 0" fill="#e0e0de"/><path d="m304.027344 8h-32c13.257812 0 24 10.746094 24 24v24h32v-24c0-13.253906-10.742188-24-24-24zm0 0" fill="#d6d6d4"/><path d="m200.027344 56h112v16h-112zm0 0" fill="#5ac6d4"/><path d="m176.027344 472h-144l-24-272h192zm0 0" fill="#9fe4ed"/><path d="m173.78125 299.199219c-24.222656 8.808593-50.914062 7.882812-74.464844-2.582031-22.699218-10.09375-48.351562-11.332032-71.921875-3.472657l-10.855469 3.335938 15.488282 175.519531h144l15.855468-179.734375zm0 0" fill="#ebebe9"/><path d="m49.574219 349.191406 15.941406-1.371094 8.480469 98.839844-15.941406 1.367188zm0 0" fill="#f7f7f5"/><path d="m46.726562 316.019531 15.941407-1.371093 1.511719 17.605468-15.9375 1.371094zm0 0" fill="#f7f7f5"/><path d="m180.988281 144.0625-11.945312 27.9375 14.722656 6.28125 11.933594-27.945312c8.085937-18.921876 12.277343-39.277344 12.328125-59.855469v-26.480469h96v26.480469c.050781 20.582031 4.242187 40.945312 12.328125 59.871093l24.640625 57.601563c4.527344 10.644531 7.699218 21.816406 9.433594 33.253906l-7.625 2.296875c-29.566407 8.386719-60.992188 7.515625-90.046876-2.496094-8.929687-3.101562-18.117187-5.410156-27.449218-6.902343l-2.542969 15.789062c8.402344 1.347657 16.671875 3.429688 24.710937 6.226563 17.414063 6.03125 35.71875 9.101562 54.152344 9.078125 15.421875.007812 30.765625-2.128907 45.597656-6.34375l4.53125-1.359375c0 1.335937.199219 2.695312.199219 4v178.742187c-.011719 13.089844-10.601562 23.707031-23.6875 23.761719h-120.242187v16h120.242187c21.949219-.023438 39.738281-17.808594 39.757813-39.761719v-178.71875c0-5.085937-.253906-10.28125-.800782-15.472656-1.605468-15.292969-5.5-30.261719-11.558593-44.398437l-24.640625-57.601563c-7.222656-16.9375-10.960938-35.152344-11-53.566406v-26.480469h8c4.417968 0 8-3.582031 8-8v-24c0-17.671875-14.324219-32-32-32h-96c-17.671875 0-32 14.328125-32 32v24c0 4.417969 3.582031 8 8 8h8v26.480469c-.042969 18.421875-3.796875 36.644531-11.039063 53.582031zm11.039063-112.0625c0-8.835938 7.164062-16 16-16h96c8.835937 0 16 7.164062 16 16v16h-128zm0 0"/><path d="m240.027344 90.449219v-2.449219h-16v2.449219c0 4.335937-.164063 8.648437-.496094 12.941406l15.960938 1.21875c.359374-4.671875.535156-9.410156.535156-14.160156zm0 0"/><path d="m210.429688 156.625-6.953126 16.222656 14.695313 6.304688 6.960937-16.230469c5.710938-13.339844 9.835938-27.300781 12.28125-41.601563l-15.769531-2.6875c-2.234375 13.058594-6 25.8125-11.214843 37.992188zm0 0"/><path d="m2.132812 194.59375c-1.53125 1.648438-2.292968 3.867188-2.1054682 6.109375l8.5117182 96.441406 15.488282 175.558594c.367187 4.140625 3.84375 7.3125 8 7.296875h144c4.160156.015625 7.636718-3.15625 8-7.296875l15.863281-179.734375 8.136719-92.265625c.199218-2.238281-.554688-4.460937-2.078125-6.117187-1.523438-1.65625-3.671875-2.59375-5.921875-2.585938h-192c-2.242188 0-4.378906.941406-5.894532 2.59375zm37.222657 269.40625-14.277344-161.808594 4.847656-1.496094c21.671875-7.238281 45.269531-6.097656 66.144531 3.199219 25.429688 11.367188 54.292969 12.371094 80.453126 2.800781h.113281l6.160156-2.351562-14.097656 159.65625zm151.9375-256-6.9375 78.574219-13.359375 5.097656c-22.253906 8.125-46.800782 7.265625-68.429688-2.398437-24.460937-10.90625-52.113281-12.261719-77.523437-3.800782l-1.40625.429688-6.871094-77.902344zm0 0"/><path d="m49.574219 349.191406 15.941406-1.371094 8.480469 98.839844-15.941406 1.367188zm0 0"/><path d="m46.71875 316.019531 15.941406-1.375 1.519532 17.605469-15.941407 1.378906zm0 0"/></svg>