<svg height="483pt" viewBox="0 -5 483.2 483" width="483pt" xmlns="http://www.w3.org/2000/svg"><path d="m368 392.101562v-16c30.398438 0 61.601562-5.601562 90.398438-16l19.203124-7.203124 5.597657 15.203124-19.199219 6.398438c-31.199219 12-63.199219 17.601562-96 17.601562zm0 0" fill="#f98500"/><path d="m48 304.101562h32c26.398438 0 48 21.597657 48 48v32h-32c-26.398438 0-48-21.601562-48-48zm0 0" fill="#ffb531"/><path d="m128 304.101562h32c26.398438 0 48 21.597657 48 48v32h-32c-26.398438 0-48-21.601562-48-48zm0 0" fill="#ffb531"/><path d="m96 384.101562h32v32c0 26.398438-21.601562 48-48 48h-32v-32c0-26.402343 21.601562-48 48-48zm0 0" fill="#f98500"/><path d="m176 384.101562h32v32c0 26.398438-21.601562 48-48 48h-32v-32c0-26.402343 21.601562-48 48-48zm0 0" fill="#f98500"/><path d="m208 304.101562h32c26.398438 0 48 21.597657 48 48v32h-32c-26.398438 0-48-21.601562-48-48zm0 0" fill="#ffb531"/><path d="m256 384.101562h32v32c0 26.398438-21.601562 48-48 48h-32v-32c0-26.402343 21.601562-48 48-48zm0 0" fill="#f98500"/><path d="m288 304.101562h32c26.398438 0 48 21.597657 48 48v32h-32c-26.398438 0-48-21.601562-48-48zm0 0" fill="#ffb531"/><path d="m336 384.101562h32v32c0 26.398438-21.601562 48-48 48h-32v-32c0-26.402343 21.601562-48 48-48zm0 0" fill="#f98500"/><path d="m104 352.101562h-16c0-3.203124-6.398438-8-16-8v-16c17.601562 0 32 10.398438 32 24zm0 0" fill="#ffcb73"/><path d="m184 352.101562h-16c0-3.203124-6.398438-8-16-8v-16c17.601562 0 32 10.398438 32 24zm0 0" fill="#ffcb73"/><path d="m264 352.101562h-16c0-3.203124-6.398438-8-16-8v-16c17.601562 0 32 10.398438 32 24zm0 0" fill="#ffcb73"/><path d="m344 352.101562h-16c0-3.203124-6.398438-8-16-8v-16c17.601562 0 32 10.398438 32 24zm0 0" fill="#ffcb73"/><path d="m72 440.101562v-16c9.601562 0 16-4.800781 16-8h16c0 13.597657-14.398438 24-32 24zm0 0" fill="#ff9419"/><path d="m152 440.101562v-16c9.601562 0 16-4.800781 16-8h16c0 13.597657-14.398438 24-32 24zm0 0" fill="#ff9419"/><path d="m232 440.101562v-16c9.601562 0 16-4.800781 16-8h16c0 13.597657-14.398438 24-32 24zm0 0" fill="#ff9419"/><path d="m312 440.101562v-16c9.601562 0 16-4.800781 16-8h16c0 13.597657-14.398438 24-32 24zm0 0" fill="#ff9419"/><g fill="#ffb531"><path d="m318.398438 40.101562v-8c0-12.800781-10.398438-24-23.199219-24h-.800781-8c-8.796876 0-16.796876 4-23.199219 9.597657l-13.597657 13.601562c-12.800781 12.800781-12.800781 32.800781 0 45.597657 12.796876 12.800781 32.796876 12.800781 45.597657 0l13.601562-13.597657c5.597657-6.402343 9.597657-14.402343 9.597657-23.199219zm0 0"/><path d="m112 121.699219v-8c0-12.800781-10.398438-24-23.199219-24h-.800781-8c-8.800781 0-16.800781 4-23.199219 9.601562l-13.601562 13.597657c-12.800781 12.800781-12.800781 32.800781 0 45.601562s32.800781 12.800781 45.601562 0l13.597657-13.601562c5.601562-6.398438 9.601562-14.398438 9.601562-23.199219zm0 0"/><path d="m451.199219 214.5 5.601562-5.601562c9.597657-8.796876 9.597657-24 .800781-33.597657 0 0 0 0-.800781-.800781l-5.601562-5.601562c-6.398438-6.398438-14.398438-9.597657-23.199219-9.597657h-19.199219c-17.601562 0-32 14.398438-32 32 0 17.597657 14.398438 32 32 32h19.199219c8.800781.800781 16.800781-2.402343 23.199219-8.800781zm0 0"/><path d="m409.601562 256.101562h-8c-12.800781 0-24 10.398438-24 23.199219v.800781 8c0 8.796876 4 16.796876 9.597657 23.199219l13.601562 13.597657c12.800781 12.800781 32.800781 12.800781 45.597657 0 12.800781-12.796876 12.800781-32.796876 0-45.597657l-13.597657-13.601562c-6.402343-5.597657-14.402343-9.597657-23.199219-9.597657zm0 0"/><path d="m160 193.699219h-8c-12.800781 0-24 10.402343-24 23.199219v.800781 8c0 8.800781 4 16.800781 9.601562 23.199219l13.597657 13.601562c12.800781 12.800781 32.800781 12.800781 45.601562 0s12.800781-32.800781 0-45.601562l-13.601562-13.597657c-6.398438-5.601562-14.398438-9.601562-23.199219-9.601562zm0 0"/></g><path d="m334.398438 196.898438-5.597657-5.597657c-8.800781-9.601562-24-9.601562-33.601562-.800781 0 0 0 0-.800781.800781l-5.597657 5.597657c-6.402343 6.402343-9.601562 14.402343-9.601562 23.203124v19.199219c0 17.597657 14.402343 32 32 32 17.601562 0 32-14.402343 32-32v-19.199219c.800781-8.800781-2.398438-16.800781-8.800781-23.203124zm0 0" fill="#f7a116"/><path d="m369.601562 49.699219h-8c-12.800781 0-24 10.402343-24 23.199219v.800781 8c0 8.800781 4 16.800781 9.597657 23.199219l13.601562 13.601562c12.800781 12.800781 32.800781 12.800781 45.597657 0 12.800781-12.800781 12.800781-32.800781 0-45.601562l-13.597657-13.597657c-6.402343-5.601562-14.402343-9.601562-23.199219-9.601562zm0 0" fill="#f7a116"/><path d="m83.199219 254.5 5.601562-5.601562c9.597657-8.796876 9.597657-24 .800781-33.597657 0 0 0 0-.800781-.800781l-5.601562-5.601562c-6.398438-6.398438-14.398438-9.597657-23.199219-9.597657h-19.199219c-17.601562 0-32 14.398438-32 32 0 17.597657 14.398438 32 32 32h19.199219c8.800781.800781 16.800781-2.402343 23.199219-8.800781zm0 0" fill="#f7a116"/><path d="m267.199219 174.5 5.601562-5.601562c9.597657-8.796876 9.597657-24 .800781-33.597657 0 0 0 0-.800781-.800781l-5.601562-5.601562c-6.398438-6.398438-14.398438-9.597657-23.199219-9.597657h-19.199219c-17.601562 0-32 14.398438-32 32 0 17.597657 14.398438 32 32 32h19.199219c8.800781.800781 16.800781-2.402343 23.199219-8.800781zm0 0" fill="#f7a116"/><path d="m160 17.699219h-8c-12.800781 0-24 10.402343-24 23.199219v.800781 8c0 8.800781 4 16.800781 9.601562 23.199219l13.597657 13.601562c12.800781 12.800781 32.800781 12.800781 45.601562 0s12.800781-32.800781 0-45.601562l-13.601562-13.597657c-6.398438-5.601562-14.398438-9.601562-23.199219-9.601562zm0 0" fill="#f7a116"/><path d="m312 280.101562c22.398438 0 40-18.402343 40-40.800781v-19.199219c0-10.402343-4-20.800781-12-28.800781l-5.601562-5.601562c-12-12.800781-32-12.800781-44.796876-.800781 0 0-.800781.800781-.800781.800781l-5.601562 5.601562c-7.199219 8-12 18.398438-12 28.800781v19.199219c.800781 22.398438 18.402343 40.800781 40.800781 40.800781zm-24-60c0-6.402343 2.398438-12.800781 7.199219-17.601562l5.601562-5.601562c5.597657-6.398438 16-6.398438 22.398438-.796876 0 0 0 0 .800781.796876l5.601562 5.601562c4.796876 4.800781 7.199219 11.199219 7.199219 17.601562v19.199219c0 13.597657-10.402343 24-24 24-13.601562 0-24-10.402343-24-24v-19.199219zm0 0"/><path d="m384 136.101562c22.398438 0 40-17.601562 40-39.203124v-.796876c0-10.402343-4.800781-20.800781-12-28.800781l-13.601562-13.601562c-7.199219-8-17.597657-12-28.796876-12h-8c-8.800781 0-16.800781 3.199219-23.203124 9.601562-6.398438 6.398438-9.597657 14.398438-9.597657 23.199219v8c0 10.398438 4.800781 20.800781 12 28.800781l13.597657 13.597657c8.800781 6.402343 18.402343 11.203124 29.601562 11.203124zm-38.398438-54.402343v-8c0-8.800781 6.398438-16 15.199219-16h.800781 8c6.398438 0 12.796876 2.402343 17.597657 7.199219l13.601562 13.601562c4.800781 4.800781 7.199219 11.199219 7.199219 17.601562 0 12.796876-10.398438 24-23.199219 24h-.800781c-6.398438 0-12.800781-2.402343-17.601562-7.203124l-13.597657-13.597657c-4-4.800781-7.199219-11.199219-7.199219-17.601562zm0 0"/><path d="m286.398438.101562c-10.398438 0-20.796876 4.796876-28.796876 12l-13.601562 13.597657c-8 7.199219-12 17.601562-12 28.800781 0 21.601562 16.800781 40 39.199219 40h.800781c10.398438 0 20.800781-4.800781 28.800781-12l13.597657-13.601562c8-7.199219 12-17.597657 12-28.796876v-8c0-8.800781-3.199219-16.800781-9.597657-23.203124-5.601562-5.597657-13.601562-8.796876-22.402343-8.796876zm8 16c8.800781 0 16 7.199219 16 15.199219v.800781 8c0 6.398438-2.398438 12.796876-7.199219 17.597657l-13.597657 13.601562c-9.601562 9.597657-24.800781 9.597657-34.402343.800781-4.800781-4.800781-7.199219-10.402343-7.199219-16.800781 0-6.402343 2.398438-12.800781 7.199219-17.601562l13.601562-13.597657c4.800781-4.800781 11.199219-8 17.597657-8zm0 0"/><path d="m65.601562 176.101562c11.199219 0 21.597657-4.800781 28.796876-12l13.601562-13.601562c8-7.199219 12-17.601562 12-28.800781v-8c0-17.597657-13.601562-32-31.199219-32 0 0 0 0-.800781 0h-8c-10.398438 0-20.800781 4.800781-28.800781 12l-13.597657 13.601562c-8 7.199219-12 17.597657-12 28.800781 0 21.597657 16.796876 40 40 40-.800781 0-.800781 0 0 0zm-16.800781-57.601562 13.597657-13.601562c4.800781-4.796876 11.203124-7.199219 17.601562-7.199219h8c8.800781 0 16 7.199219 16 15.199219v8c0 6.402343-2.398438 12.800781-7.199219 17.601562l-13.601562 13.601562c-4.800781 5.597657-11.199219 8-17.597657 8-6.402343 0-12.800781-2.402343-16.800781-7.203124-4.800781-4.796876-7.199219-10.398438-7.199219-16.796876 0-6.402343 2.398438-12.800781 7.199219-17.601562zm0 0"/><path d="m40.800781 272.101562h19.199219c10.398438 0 20.800781-4 28.800781-12l5.597657-5.601562c12.800781-12 12.800781-32 .800781-44.800781 0 0-.800781-.800781-.800781-.800781l-5.597657-5.597657c-8-7.199219-18.402343-12-28.800781-12h-19.199219c-22.402343 0-40 17.597657-40 40 0 22.398438 17.597657 40.800781 40 40.800781zm0-64h19.199219c6.398438 0 12.800781 2.398438 17.601562 7.199219l5.597657 5.597657c6.402343 5.601562 6.402343 16 .800781 22.402343 0 0 0 0-.800781.800781l-5.597657 5.597657c-4.800781 4.800781-11.203124 7.199219-17.601562 7.199219h-19.199219c-13.601562 0-24-10.398438-24-24 0-14.398438 10.398438-24.796876 24-24.796876zm0 0"/><path d="m244 192.101562c10.398438 0 20.800781-4 28.800781-12l5.597657-5.601562c12.800781-12 12.800781-32 .800781-44.800781 0 0-.800781-.800781-.800781-.800781l-5.597657-5.597657c-8-7.199219-17.601562-12-28.800781-12h-19.199219c-22.402343 0-40 17.597657-40 40 0 22.398438 17.597657 40 40 40h19.199219zm-44-40c0-13.601562 11.199219-24 24.800781-24h19.199219c6.398438 0 12.800781 2.398438 17.601562 7.199219l5.597657 5.597657c6.402343 5.601562 6.402343 16 .800781 22.402343 0 0 0 0-.800781.800781l-5.597657 5.597657c-4.800781 4.800781-11.203124 7.199219-17.601562 7.199219h-19.199219c-13.601562-.796876-24.800781-11.199219-24.800781-24.796876zm0 0"/><path d="m462.398438 169.699219-5.597657-5.597657c-8-7.203124-17.601562-12-28.800781-12h-19.199219c-22.402343 0-40 17.597657-40 40 0 22.398438 17.597657 40 40 40h19.199219c10.398438 0 20.800781-4 28.800781-12l5.597657-5.601562c12.800781-12 12.800781-32 0-44.800781zm-34.398438 46.402343h-19.199219c-13.601562 0-24-10.402343-24-24 0-13.601562 10.398438-24 24-24h19.199219c6.398438 0 12.800781 2.398438 17.601562 7.199219l5.597657 5.597657c6.402343 5.601562 6.402343 16 .800781 22.402343 0 0 0 0-.800781.800781l-5.597657 5.597657c-4.800781 4-11.203124 6.402343-17.601562 6.402343zm0 0"/><path d="m438.398438 260.101562c-7.199219-8-17.597657-12-28.796876-12h-8c-17.601562 0-32 13.597657-32 31.199219v.800781 8c0 10.398438 4.796876 20.796876 12 28.796876l13.597657 13.601562c7.199219 8 17.601562 12 28.800781 12 21.601562 0 39.199219-17.601562 40-39.199219v-.800781c0-10.398438-4.800781-20.800781-12-28.800781zm2.402343 59.199219c-4.800781 4.800781-10.402343 7.199219-16.800781 7.199219s-12.800781-2.398438-17.601562-7.199219l-13.597657-13.601562c-4.800781-4.800781-7.199219-11.199219-7.199219-17.597657v-8c0-8.800781 6.398438-16 15.199219-16h.800781 8c6.398438 0 12.796876 2.398438 17.597657 7.199219l13.601562 13.597657c4.800781 4.800781 7.199219 11.203124 7.199219 17.601562s-2.398438 12.800781-7.199219 16.800781zm0 0"/><path d="m458.398438 360.101562c-26.398438 9.597657-54.398438 15.199219-82.398438 16v-24c0-31.203124-24.800781-56-56-56h-32c-4.800781 0-8 3.199219-8 8v8.796876c-10.398438-11.199219-24.800781-16.796876-40-16.796876h-32c-4.800781 0-8 3.199219-8 8v8.796876c-10.398438-11.199219-24.800781-16.796876-40-16.796876h-32c-4.800781 0-8 3.199219-8 8v8.796876c-10.398438-11.199219-24.800781-16.796876-40-16.796876h-80v16h40v24c0 20 10.398438 37.597657 27.199219 48-16.800781 10.398438-27.199219 28-27.199219 48v24h-40v16h80c15.199219 0 29.601562-6.402343 40-16.800781v8.800781c0 4.796876 3.199219 8 8 8h32c15.199219 0 29.601562-6.402343 40-16.800781v8.800781c0 4.796876 3.199219 8 8 8h32c15.199219 0 29.601562-6.402343 40-16.800781v8.800781c0 4.796876 3.199219 8 8 8h32c31.199219 0 56-24.800781 56-56v-24c29.601562-.800781 60-6.402343 88-16.800781l19.199219-7.199219-5.597657-15.203124zm-162.398438-48h24c22.398438 0 40 17.597657 40 40v24h-24c-22.398438 0-40-17.601562-40-40zm0 72v-8.800781c3.199219 3.199219 7.199219 6.398438 11.199219 8.800781-4 2.398438-8 5.597657-11.199219 8.796876zm-80-72h24c22.398438 0 40 17.597657 40 40v24h-24c-22.398438 0-40-17.601562-40-40zm0 72v-8.800781c3.199219 3.199219 7.199219 6.398438 11.199219 8.800781-4 2.398438-8 5.597657-11.199219 8.796876zm-80-72h24c22.398438 0 40 17.597657 40 40v24h-24c-22.398438 0-40-17.601562-40-40zm0 72v-8.800781c3.199219 3.199219 7.199219 6.398438 11.199219 8.800781-4 2.398438-8 5.597657-11.199219 8.796876zm-80-48v-24h24c22.398438 0 40 17.597657 40 40v24h-24c-22.398438 0-40-17.601562-40-40zm24 120h-24v-24c0-22.402343 17.601562-40 40-40h24v24c0 22.398438-17.601562 40-40 40zm80 0h-24v-24c0-22.402343 17.601562-40 40-40h24v24c0 22.398438-17.601562 40-40 40zm80 0h-24v-24c0-22.402343 17.601562-40 40-40h24v24c0 22.398438-17.601562 40-40 40zm120-40c0 22.398438-17.601562 40-40 40h-24v-24c0-22.402343 17.601562-40 40-40h24zm0 0"/><path d="m72 328.101562v16c9.601562 0 16 4.796876 16 8h16c0-13.601562-14.398438-24-32-24zm0 0"/><path d="m168 352.101562h16c0-13.601562-14.398438-24-32-24v16c9.601562 0 16 4.796876 16 8zm0 0"/><path d="m248 352.101562h16c0-13.601562-14.398438-24-32-24v16c9.601562 0 16 4.796876 16 8zm0 0"/><path d="m328 352.101562h16c0-13.601562-14.398438-24-32-24v16c9.601562 0 16 4.796876 16 8zm0 0"/><path d="m72 424.101562v16c17.601562 0 32-10.402343 32-24h-16c0 3.199219-6.398438 8-16 8zm0 0"/><path d="m152 424.101562v16c17.601562 0 32-10.402343 32-24h-16c0 3.199219-6.398438 8-16 8zm0 0"/><path d="m232 424.101562v16c17.601562 0 32-10.402343 32-24h-16c0 3.199219-6.398438 8-16 8zm0 0"/><path d="m312 424.101562v16c17.601562 0 32-10.402343 32-24h-16c0 3.199219-6.398438 8-16 8zm0 0"/><path d="m132 254.5 13.601562 13.601562c7.199219 8 17.597657 12 28.796876 12h.800781c21.601562 0 39.199219-17.601562 40-39.203124v-.796876c0-10.402343-4.800781-20.800781-12-28.800781l-13.597657-13.601562c-7.203124-8-17.601562-12-28.800781-12h-8c-17.601562 0-32 13.601562-32 31.199219v.800781 8c-.800781 11.199219 4 21.601562 11.199219 28.800781zm8.800781-48c3.199219-3.199219 7.199219-4.800781 11.199219-4.800781h8c6.398438 0 12.800781 2.402343 17.601562 7.199219l13.597657 13.601562c4.800781 4.800781 7.199219 11.199219 7.199219 17.601562 0 6.398438-2.398438 12.796876-7.199219 16.796876-9.597657 9.601562-24.800781 8.800781-34.398438-.796876l-13.601562-13.601562c-4-4-7.199219-10.398438-7.199219-16.800781v-8c0-4 1.601562-8 4.800781-11.199219zm0 0"/><path d="m160 9.699219h-8c-17.601562 0-32 13.601562-32 31.199219v.800781 8c0 10.402343 4.800781 20.800781 12 28.800781l13.601562 13.601562c7.199219 8 17.597657 12 28.796876 12h.800781c21.601562 0 39.199219-17.601562 40-39.203124v-.796876c0-10.402343-4.800781-20.800781-12-28.800781l-13.597657-13.601562c-8.800781-7.199219-18.402343-12-29.601562-12zm38.398438 54.402343c0 6.398438-2.398438 12.796876-7.199219 16.796876-9.597657 9.601562-24.800781 8.800781-34.398438-.796876l-13.601562-13.601562c-4-4-7.199219-10.398438-7.199219-16.800781v-8c0-8.800781 6.398438-16 15.199219-16h.800781 8c6.398438 0 12.800781 2.402343 17.601562 7.199219l13.597657 13.601562c4.800781 4.800781 7.199219 11.199219 7.199219 17.601562zm0 0"/></svg>