<svg height="480pt" viewBox="0 0 480 480.22476" width="480pt" xmlns="http://www.w3.org/2000/svg"><path d="m192.113281 432c-22.871093-82.398438-35.367187-185.601562-35.367187-292.121094v-43.878906h-132.632813v43.878906c0 106.519532 53.640625 209.722656 168 292.121094zm0 0" fill="#ffb531"/><path d="m185.328125 436.230469c-52.105469-83.4375-80.800781-188.6875-80.800781-296.351563v-43.878906h16v43.878906c0 104.707032 27.832031 206.953125 78.359375 287.890625zm0 0" fill="#f7a116"/><path d="m186.375 437.601562c-81.285156-83.722656-126.054688-189.441406-126.054688-297.722656v-43.878906h16v43.878906c0 104.097656 43.199219 205.855469 121.527344 286.554688zm0 0" fill="#f7a116"/><path d="m339.695312 160h132.417969c0 172.3125-100.90625 312-215.199219 312h-24.800781l28.527344-39.71875c50.398437-70.144531 79.054687-168.855469 79.054687-272.28125zm0 0" fill="#f98500"/><path d="m232.113281 479v-15c105.109375 0 190.625-130.777344 190.625-291.519531v-12.480469h16v12.480469c0 169.566406-92.699219 306.519531-206.625 306.519531zm0 0" fill="#e66000"/><path d="m232.113281 479v-15c77.726563 0 140.96875-130.777344 140.96875-291.519531v-12.480469h16v12.480469c0 172.441406-68.96875 306.519531-156.96875 306.519531zm0 0" fill="#e66000"/><path d="m272.113281 81.769531v-41.769531l-64-1v42.769531c.015625 13.96875-9.0625 26.320313-22.402343 30.472657-86.898438 26.9375-141.066407 113.34375-127.445313 203.296874 13.625 89.957032 90.945313 156.449219 181.925781 156.449219 90.980469 0 168.304688-66.492187 181.925782-156.449219 13.625-89.953124-40.542969-176.359374-127.445313-203.296874-13.382813-4.117188-22.53125-16.46875-22.558594-30.472657zm0 0" fill="#fae998"/><path d="m377.503906 165.71875c-57.902344 141.226562-223.542968 182.730469-306.359375 194.769531 34.375 80.300781 120.496094 125.34375 206.058594 107.769531 85.566406-17.570312 146.964844-92.90625 146.910156-180.257812.054688-45.109375-16.542969-88.652344-46.609375-122.28125zm0 0" fill="#f5e082"/><g fill="#edd668"><path d="m223.640625 479.199219c-2.882813.003906-5.542969-1.539063-6.96875-4.046875l-19.679687-34.726563c-24.75-45.78125-37.441407-97.105469-36.878907-149.144531-.648437-53.601562 12.875-106.417969 39.199219-153.113281 11.3125-20.199219 17.105469-43.019531 16.800781-66.167969 0-4.417969 3.582031-8 8-8s8 3.582031 8 8c.289063 26.011719-6.273437 51.640625-19.03125 74.3125-24.875 44.222656-37.628906 94.234375-36.96875 144.96875-.574219 49.273438 11.402344 97.878906 34.800781 141.246094l19.679688 34.730468c1.402344 2.472657 1.382812 5.507813-.046875 7.96875-1.433594 2.457032-4.0625 3.972657-6.90625 3.972657zm0 0"/><path d="m204.433594 476.480469c-2.050782.003906-4.023438-.785157-5.503906-2.199219l-33.761719-32c-44.535157-42.359375-69.054688-96.015625-69.054688-151.082031 0-56.976563 26.015625-112 73.261719-154.878907 12.714844-11.195312 22.15625-25.625 27.320312-41.761718 2.269532-15.414063 3.414063-30.976563 3.417969-46.558594 0-4.417969 3.582031-8 8-8s8 3.582031 8 8c-.003906 17.148438-1.378906 34.269531-4.113281 51.199219-6 18.910156-17.023438 35.832031-31.886719 48.96875-43.839843 39.832031-68 90.632812-68 143.03125 0 50.640625 22.75 100.175781 64.070313 139.480469l33.753906 32c2.378906 2.253906 3.140625 5.726562 1.929688 8.769531-1.214844 3.042969-4.160157 5.039062-7.433594 5.039062zm0 0"/><path d="m257.113281 478.496094c-1.527343.242187-3.085937.128906-4.5625-.335938-3.839843-2.1875-5.179687-7.074218-2.992187-10.910156l19.761718-34.730469c23.390626-43.367187 35.363282-91.96875 34.792969-141.238281.65625-50.730469-12.09375-100.738281-36.960937-144.960938-12.765625-22.671874-19.332032-48.304687-19.039063-74.320312 0-4.417969 3.582031-8 8-8s8 3.582031 8 8c-.308593 23.152344 5.484375 45.976562 16.800781 66.175781 26.320313 46.691407 39.84375 99.507813 39.199219 153.105469.5625 52.039062-12.132812 103.363281-36.882812 149.144531l-19.765625 34.773438c-1.257813 2.28125-3.765625 3.582031-6.351563 3.296875zm0 0"/><path d="m275.640625 475.425781c-2.121094 0-4.082031.214844-5.65625-1.449219-3.035156-3.207031-2.898437-8.265624.304687-11.304687l33.757813-32c41.3125-39.296875 64.066406-88.832031 64.066406-139.472656 0-52.398438-24.160156-103.199219-68-143.03125-14.847656-13.097657-25.855469-29.980469-31.855469-48.847657-.066406-.175781-.128906-.359374-.175781-.542968-2.636719-16.796875-3.960937-33.773438-3.96875-50.777344 0-4.417969 3.582031-8 8-8s8 3.582031 8 8c0 15.296875 1.046875 30.574219 3.136719 45.726562.070312.210938.148438.425782.207031.640626 5.128907 16.222656 14.601563 30.726562 27.390625 41.945312 47.25 42.886719 73.265625 97.910156 73.265625 154.886719 0 55.066406-24.519531 108.722656-69.039062 151.074219l-34.089844 31.597656c-1.492187 1.234375-3.425781 1.792968-5.34375 1.554687zm0 0"/><path d="m240.113281 480c-4.417969 0-8-3.582031-8-8v-400c0-4.417969 3.582031-8 8-8s8 3.582031 8 8v400c0 4.417969-3.582031 8-8 8zm0 0"/></g><path d="m240.113281 472c26.9375-68.804688 40.511719-142.113281 40-216v-32h160v32.390625c0 78.601563-74.746093 154.808594-200 215.609375zm0 0" fill="#ffb531"/><path d="m246.207031 477.175781-12.191406-10.351562c50.15625-58.667969 77.832031-133.246094 78.097656-210.433594v-32.390625h16v32.390625c-.261719 80.980469-29.289062 159.230469-81.90625 220.785156zm0 0" fill="#f7a116"/><path d="m245.046875 478.296875-9.871094-12.59375c75.410157-59.117187 116.9375-133.453125 116.9375-209.3125v-32.390625h16v32.390625c0 80.882813-43.703125 159.699219-123.066406 221.90625zm0 0" fill="#f7a116"/><path d="m244.167969 478.894531-8.113281-13.789062c100.632812-59.167969 156.058593-133.289063 156.058593-208.714844v-32.390625h16v32.390625c0 81.328125-58.226562 160.34375-163.945312 222.503906zm0 0" fill="#f7a116"/><path d="m136.113281 272h-128c0 110.457031 97.542969 200 208 200h24l-27.585937-25.457031c-48.710938-44.96875-76.414063-108.246094-76.414063-174.542969zm0 0" fill="#f98500"/><path d="m472.113281 296c0 97.199219-100.90625 176-215.199219 176h-24.800781l28.527344-22.398438c50.398437-39.578124 75.472656-81.601562 83.472656-153.601562zm0 0" fill="#f98500"/><path d="m261.367188 20.082031c-13.207032-14.859375-33.429688-16.195312-45.175782-2.984375-11.648437 15.316406-10.523437 36.808594 2.664063 50.824219 13.207031 14.855469 33.433593 16.191406 45.175781 2.984375 11.652344-15.316406 10.523438-36.8125-2.664062-50.824219zm0 0" fill="#fae998"/><path d="m243.878906 88c-11.953125-.296875-23.214844-5.667969-30.964844-14.777344-15.777343-17.078125-16.898437-43.058594-2.65625-61.4375 6.582032-7.515625 16.09375-11.816406 26.085938-11.785156 11.96875.285156 23.25 5.660156 31.007812 14.777344 15.777344 17.082031 16.898438 43.058594 2.65625 61.4375-6.589843 7.527344-16.121093 11.828125-26.128906 11.785156zm-7.535156-72c-5.433594-.050781-10.613281 2.289062-14.167969 6.398438-8.839843 12.3125-7.726562 29.15625 2.65625 40.195312 3.78125 5.136719 9.582031 8.402344 15.933594 8.976562 6.351563.570313 12.644531-1.609374 17.28125-5.984374 8.839844-12.3125 7.726563-29.15625-2.65625-40.195313-4.730469-5.6875-11.652344-9.101563-19.046875-9.390625zm0 0" fill="#edd668"/><path d="m232.113281 36.503906h16v16h-16zm0 0" fill="#edd668"/><path d="m422.738281 296v7.039062c0 55.761719-33.84375 104.890626-85.011719 133.769532 35.34375-35.488282 54.941407-83.6875 54.386719-133.769532v-7.039062h-16v7.039062c0 86.601563-60.242187 157.242188-135.359375 160.632813-1.320312.054687-2.609375.183594-3.929687.214844-.902344 0-1.816407 0-2.710938-.09375-.417969 0-.800781 0-1.242187-.058594-71.640625-5.109375-128.757813-85.558594-128.757813-183.734375v-8h-16v8c0 64.800781 23.582031 122.542969 60 159.105469-56.871093-32.808594-91.9375-93.449219-92-159.105469v-8h-16v8c.132813 99.214844 72.878907 183.378906 171.03125 197.871094 9.394531 1.550781 18.902344 2.335937 28.425781 2.351562 12.039063.03125 24.035157-1.464844 35.703126-4.453125 93.277343-16.976562 163.464843-87.824219 163.464843-172.730469v-7.039062zm0 0" fill="#e66000"/><path d="m472.113281 152h-96.730469c-17.371093-17.382812-37.921874-31.269531-60.527343-40.910156-5.828125-2.46875-11.78125-4.636719-17.832031-6.496094-5.90625-1.78125-10.878907-5.800781-13.855469-11.203125-2.015625-6.949219-3.042969-14.152344-3.054688-21.390625v-24h-.21875c-.027343-12.226562-4.484375-24.027344-12.542969-33.222656-7.757812-9.117188-19.039062-14.492188-31.007812-14.777344-10.003906-.0429688-19.535156 4.257812-26.128906 11.785156-6.023438 7.09375-9.46875 16.023438-9.765625 25.328125-.210938.867188-.324219 1.753907-.335938 2.648438v32.238281c-.019531 7.355469-1.097656 14.671875-3.199219 21.71875-3.003906 5.183594-7.832031 9.0625-13.539062 10.882812-6.316406 1.988282-12.523438 4.304688-18.597656 6.941407v-15.542969c0-4.417969-3.582032-8-8-8h-132.664063c-4.417969 0-8 3.582031-8 8v43.921875c.003907 42.632813 8.589844 84.832031 25.246094 124.078125h-33.246094c-4.417969 0-8 3.582031-8 8 0 112.753906 98.910157 208 216 208h40.800781c120.992188 0 223.199219-84.253906 223.199219-184 0-4.417969-3.582031-8-8-8h-11.28125c12.902344-41.4375 19.402344-84.601562 19.28125-128 0-4.417969-3.582031-8-8-8zm-367.410156.136719c-9.667969 9.65625-18.289063 20.304687-25.71875 31.777343-1.726563-14.605468-2.605469-29.296874-2.632813-44v-35.914062h28.160157v35.921875c0 4.078125.089843 8.140625.191406 12.214844zm-23.199219 59.3125c9.203125-18.835938 21.660156-35.898438 36.800782-50.402344 12.46875-12.011719 26.660156-22.097656 42.105468-29.925781 7.070313-3.5625 14.386719-6.625 21.886719-9.167969-3.851563 5.195313-8.179687 10.015625-12.9375 14.398437-6.101563 5.601563-11.429687 10.871094-16.246094 16.160157-29.15625 30.746093-48.28125 69.625-54.832031 111.488281h-32.402344c2.449219-18.226562 7.730469-35.957031 15.65625-52.550781zm46.746094 68.550781c2.214844 65.695312 30.609375 127.773438 78.855469 172.417969l9.511719 8.796875c-63.832032-15.132813-112.503907-90.597656-112.503907-181.214844zm103.199219-194.144531c.222656.074219.445312.121093.664062.191406v367.679687l-14.160156-13.0625c-1.847656-1.703124-3.609375-3.488281-5.394531-5.246093l-1.644532-2.898438c-11.746093-20.96875-20.511718-43.46875-26.050781-66.855469-.035156-.339843-.097656-.675781-.183593-1.007812-3.265626-13.417969-5.550782-27.050781-6.839844-40.800781 0-.152344-.039063-.304688-.0625-.457031.007812-.132813.007812-.269532 0-.40625-1.101563-10.535157-1.65625-21.121094-1.664063-31.710938-.65625-50.738281 12.09375-100.75 36.96875-144.976562 10.507813-18.546876 16.78125-39.191407 18.367188-60.449219zm118.175781 202.144531h-5.511719c-4.078125 0-7.503906 3.066406-7.953125 7.121094-5.398437 48.613281-18.824218 83.816406-45 114.613281 9.871094-19.328125 17.859375-39.5625 23.855469-60.421875.113281-.367188.207031-.742188.28125-1.121094 1.078125-3.503906 2.023437-7.023437 2.816406-10.535156.0625-.175781.109375-.359375.160157-.542969 6.511718-26.410156 9.8125-53.511719 9.839843-80.714843v-24.398438h24v24.398438c-.042969 10.582031-.875 21.144531-2.488281 31.601562zm-37.511719-56v24.398438c-.019531 25.714843-3.117187 51.332031-9.226562 76.304687-.105469.300781-.195313.609375-.261719.921875-.753906 3.382812-1.664062 6.773438-2.710938 10.160156-.105468.328125-.183593.664063-.242187 1.007813-7.960937 27.6875-19.578125 54.195312-34.542969 78.816406 12.570313-44.542969 20.015625-90.371094 22.183594-136.601563.550781-9.886718.800781-20 .800781-31.007812v-24zm-53.753906 229.601562c.214844-.167968.417969-.351562.609375-.546874l6.640625-5.191407c52.421875-41.160156 76.824219-84.183593 85.597656-151.863281h24.90625c-.457031 79.28125-51.328125 144.976562-117.753906 157.601562zm130.464844-173.601562h-23.113281c1.539062-10.464844 2.339843-21.023438 2.402343-31.601562v-24.398438h24v24.398438c-.03125 10.617187-1.132812 21.207031-3.289062 31.601562zm-77.441407-72c-6.117187-27.347656-16.394531-53.597656-30.46875-77.832031-8.066406-14.113281-13.277343-29.679688-15.328124-45.808594.667968 2.445313 1.570312 4.824219 2.695312 7.097656 6.011719 18.816407 17.007812 35.652344 31.824219 48.71875 12.253906 11.019531 23.253906 23.363281 32.800781 36.800781 6.984375 9.769532 13.0625 20.152344 18.167969 31.023438zm-44.222656-69.671875c12.613282 21.738281 21.960938 45.214844 27.734375 69.671875h-14.78125c-4.417969 0-8 3.582031-8 8v32c0 10.679688-.257812 20.527344-.800781 30.167969-2.15625 47.042969-9.945312 93.652343-23.199219 138.839843v-337.449218c.269531 0 .542969-.046875.800781-.085938 1.714844 20.714844 7.945313 40.800782 18.246094 58.855469zm-52.519531-53.945313c-2.085937 16.113282-7.292969 31.664063-15.328125 45.785157-26.324219 46.695312-39.847656 99.511719-39.199219 153.113281 0 10.890625.546875 21.777344 1.648438 32.613281-.003907.539063.046875 1.074219.152343 1.601563v.105468c1.347657 14.253907 3.710938 28.394532 7.070313 42.3125.042969.460938.140625.914063.296875 1.351563 1.199219 4.992187 2.613281 9.847656 4.046875 14.695313-19.125-34.21875-29.179687-72.761719-29.214844-111.960938 0-4.417969-3.582031-8-8-8h-21.671875c6.484375-37.820312 24.050782-72.859375 50.472656-100.6875 4.519532-4.960938 9.503907-9.921875 15.199219-15.144531 14.707031-13.015625 25.65625-29.738281 31.703125-48.421875 1.175782-2.359375 2.121094-4.824219 2.824219-7.363282zm-126.527344 187.617188c0 65.046875 23.734375 122.929688 60.398438 159.480469-57.113281-32.800781-92.347657-93.617188-92.398438-159.480469zm304 24h30.613281c-.382812 55.511719-34.214843 104.441406-85.300781 133.136719 35.308594-35.273438 55.007813-83.226563 54.6875-133.136719zm13.0625-16c1.945313-10.421875 2.929688-21 2.9375-31.601562v-24.398438h24v24.398438c-.011719 6.199218-.515625 12.382812-1.503906 18.496093 0 .136719 0 .28125-.050781.433594-.71875 4.269531-1.664063 8.5-2.832032 12.671875zm15.304688-72h-2.488281c-7-17.296875-16.507813-33.46875-28.214844-48h32.976562v4.480469c0 14.433593-.875 29.03125-2.296875 43.519531zm-54.007813-50.34375c2.945313 2.9375 5.710938 5.984375 8.511719 9.351562 10.410156 12.40625 19.039063 26.203126 25.632813 40.992188h-32.121094c-6.035156-14.210938-13.601563-27.722656-22.566406-40.296875-10.207032-14.382813-21.972657-27.59375-35.082032-39.390625-4.949218-4.460938-9.457031-9.386719-13.464844-14.710938 3.480469 1.191407 7.121094 2.527344 11.289063 4.253907 21.734375 9.257812 41.382813 22.792969 57.777344 39.800781zm-144.296875-143.257812c3.554688-4.109376 8.734375-6.449219 14.167969-6.398438 7.394531.292969 14.316406 3.710938 19.046875 9.398438 10.382813 11.039062 11.496094 27.886718 2.65625 40.195312-4.636719 4.378906-10.929687 6.554688-17.28125 5.984375-6.351563-.574219-12.152344-3.839844-15.933594-8.976563-10.386719-11.042968-11.5-27.890624-2.65625-40.203124zm-73.421875 96.898437c-9.949218 5.371094-19.402344 11.621094-28.242187 18.671875v-33.96875h28.242187zm-116.640625-15.296875h28.238281v35.921875c.011719 22.445313 1.933594 44.847656 5.746094 66.964844-6.148437 13.25-10.777344 27.152343-13.800781 41.441406-13.339844-34.585937-20.183594-71.335937-20.183594-108.40625zm-15.824219 176h23.824219c.007813 62.246094 29.035157 120.929688 78.503907 158.710938-59.289063-31.617188-98-91.65625-102.328126-158.710938zm348.625 158.472656c44.796876-32.296875 73.460938-80.558594 73.796876-134.472656h25.160156c-3.429688 56-42.628906 105.839844-98.957032 134.472656zm79.886719-152.800781c.609375-2.75 1.191407-5.488281 1.597657-8.214844 0-.128906 0-.273437.050781-.410156 1.085937-6.828125 1.644531-13.730469 1.664062-20.648437v-32.398438c0-4.417969-3.582031-8-8-8h-3.609375c1.382813-14.496094 2.25-29.078125 2.25-43.519531v-4.480469h25.285156c-.625 39.960938-7.109374 79.617188-19.246093 117.695312zm0 0"/><path d="m232.113281 36.503906h16v16h-16zm0 0"/></svg>