<svg height="479pt" viewBox="-16 0 479 479.98743" width="479pt" xmlns="http://www.w3.org/2000/svg"><path d="m431.488281 302.722656c-8.441406-30.746094-7.644531-63.300781 2.289063-93.597656 7.777344-27.140625 8.898437-55.753906 3.273437-83.417969-14.074219-73.488281-66.679687-125.7187498-117.511719-116.703125-50.832031 9.015625-80.617187 76-66.546874 149.472656 1.234374 6.429688 2.753906 12.691407 4.5625 18.78125 8.441406 30.75 7.644531 63.304688-2.289063 93.601563-7.777344 27.140625-8.898437 55.75-3.273437 83.417969 14.074218 73.503906 66.679687 125.757812 117.511718 116.71875 50.832032-9.039063 80.617188-76 66.546875-149.472656-1.234375-6.457032-2.730469-12.734376-4.5625-18.800782zm0 0" fill="#ffb531"/><path d="m191.488281 302.722656c-8.441406-30.746094-7.644531-63.300781 2.289063-93.597656 7.777344-27.140625 8.898437-55.753906 3.273437-83.417969-14.074219-73.488281-66.679687-125.7187498-117.511719-116.703125-50.832031 9.015625-80.617187 75.96875-66.546874 149.472656 1.234374 6.429688 2.753906 12.691407 4.5625 18.78125 8.441406 30.75 7.644531 63.304688-2.289063 93.601563-7.777344 27.140625-8.898437 55.75-3.273437 83.417969 14.074218 73.476562 66.679687 125.710937 117.511718 116.695312 50.832032-9.015625 80.617188-76 66.546875-149.472656-1.234375-6.433594-2.730469-12.710938-4.5625-18.777344zm0 0" fill="#ffb531"/><path d="m197.050781 125.722656c-2.160156-11.152344-5.296875-22.09375-9.378906-32.695312-23.648437 103.105468-87.664063 192.414062-177.710937 247.929687.535156 4.40625 1.183593 8.796875 2.03125 13.292969 14.074218 73.503906 66.679687 125.738281 117.511718 116.722656 50.832032-9.015625 80.617188-76 66.546875-149.472656-1.210937-6.332031-2.734375-12.597656-4.570312-18.777344-8.433594-30.75-7.632813-63.300781 2.296875-93.597656 7.773437-27.136719 8.894531-55.742188 3.273437-83.402344zm0 0" fill="#ffa912"/><path d="m85.058594 53.46875c-4.738282-4.449219-11.984375-4.855469-17.183594-.960938-22.496094 17.40625-33.050781 59.664063-24 105.480469 11.054688 55.917969 47.101562 95.886719 80.519531 89.289063 27.871094-5.515625 39.464844-37.890625 42.621094-62.625 3.777344-29.648438.945313-65.808594-14.757813-92.050782-14.824218-24.742187-40.425781-19.351562-61.113281-34.679687-1.96875-1.460937-4-3.0625-6.085937-4.453125zm0 0" fill="#f98500"/><path d="m82.53125 105.585938-15.65625-3.199219c1.171875-5.90625 3.03125-11.65625 5.535156-17.136719l14.488282 6.816406c-1.964844 4.328125-3.433594 8.863282-4.367188 13.519532zm0 0" fill="#ff9419"/><path d="m89.363281 204.835938c-11.15625-15.261719-18.664062-32.878907-21.945312-51.496094-2.242188-11.09375-3.144531-22.414063-2.6875-33.71875l16 .734375c-.40625 10.019531.402343 20.050781 2.398437 29.878906 2.910156 16.191406 9.386719 31.53125 18.960938 44.90625zm0 0" fill="#ff9419"/><path d="m85.058594 237.46875c-4.738282-4.449219-11.984375-4.855469-17.183594-.960938-22.496094 17.40625-33.050781 59.664063-24 105.480469 11.054688 55.917969 47.101562 95.886719 80.519531 89.289063 27.871094-5.515625 39.464844-37.890625 42.621094-62.625 3.777344-29.648438.945313-65.808594-14.757813-92.050782-14.824218-24.742187-40.425781-19.351562-61.113281-34.679687-1.96875-1.460937-4-3.0625-6.085937-4.453125zm0 0" fill="#f98500"/><path d="m82.53125 289.585938-15.65625-3.199219c1.171875-5.90625 3.03125-11.65625 5.535156-17.136719l14.488282 6.816406c-1.964844 4.328125-3.433594 8.863282-4.367188 13.519532zm0 0" fill="#ff9419"/><path d="m89.363281 388.835938c-11.15625-15.261719-18.664062-32.878907-21.945312-51.496094-2.242188-11.09375-3.144531-22.414063-2.6875-33.71875l16 .734375c-.40625 10.019531.402343 20.050781 2.398437 29.878906 2.910156 16.191406 9.386719 31.53125 18.960938 44.90625zm0 0" fill="#ff9419"/><path d="m437.050781 125.722656c-2.160156-11.152344-5.296875-22.09375-9.378906-32.695312-23.648437 103.105468-87.664063 192.414062-177.710937 247.929687.535156 4.40625 1.183593 8.796875 2.03125 13.292969 14.074218 73.503906 66.679687 125.761719 117.511718 116.722656 50.832032-9.042968 80.617188-76 66.546875-149.472656-1.234375-6.433594-2.757812-12.695312-4.570312-18.785156-8.433594-30.75-7.636719-63.300782 2.296875-93.597656 7.773437-27.132813 8.894531-55.738282 3.273437-83.394532zm0 0" fill="#ffa912"/><g fill="#f98500"><path d="m290.738281 295.730469c-4.203125 1.347656-6.523437 5.84375-5.183593 10.050781 1.09375 3.4375 2.285156 6.621094 3.480468 9.789062 2.464844 6.03125 4.375 12.277344 5.703125 18.65625.722657 3.765626 4.015625 6.484376 7.847657 6.488282.511718 0 1.019531-.050782 1.519531-.152344 4.339843-.835938 7.175781-5.035156 6.335937-9.375-1.484375-7.265625-3.625-14.382812-6.398437-21.265625-1.113281-2.925781-2.21875-5.847656-3.203125-9.015625-.632813-2.039062-2.0625-3.734375-3.964844-4.707031-1.898438-.972657-4.113281-1.140625-6.136719-.46875zm0 0"/><path d="m304.523438 174.386719h-.179688c-4.402344.097656-7.898438 3.734375-7.820312 8.136719v3.03125c.148437 8.578124-.796876 17.140624-2.808594 25.480468-.726563 2.777344.09375 5.726563 2.140625 7.734375 2.050781 2.007813 5.019531 2.761719 7.777343 1.980469 2.761719-.78125 4.890626-2.980469 5.585938-5.761719 2.34375-9.621093 3.453125-19.5 3.304688-29.402343v-3.390626c-.105469-4.34375-3.65625-7.808593-8-7.808593zm0 0"/><path d="m288.523438 280.929688h.140624c4.421876-.078126 7.9375-3.722657 7.859376-8.140626v-2.457031c-.15625-8.761719.835937-17.503906 2.941406-26.007812 1.117187-4.277344-1.441406-8.648438-5.714844-9.765625-4.273438-1.117188-8.648438 1.441406-9.765625 5.71875-2.457031 9.824218-3.621094 19.925781-3.460937 30.054687v2.75c.082031 4.359375 3.636718 7.851563 8 7.847657zm0 0"/><path d="m304.746094 355.515625c-4.410156-.246094-8.183594 3.128906-8.433594 7.535156-.429688 9.535157-2.402344 18.9375-5.839844 27.839844-1.519531 4.148437.613282 8.746094 4.761719 10.265625.878906.324219 1.8125.488281 2.75.488281 3.355469-.003906 6.351563-2.101562 7.503906-5.25 3.984375-10.371093 6.277344-21.3125 6.792969-32.40625.128906-2.125-.59375-4.210937-2.007812-5.800781-1.414063-1.589844-3.402344-2.550781-5.527344-2.671875zm0 0"/><path d="m288.296875 99.761719h.496094c4.234375.007812 7.742187-3.285157 8-7.511719.507812-9.539062 2.539062-18.933594 6.023437-27.832031 1.535156-4.144531-.585937-8.75-4.730468-10.28125-4.148438-1.535157-8.75.585937-10.285157 4.730469-4.015625 10.363281-6.371093 21.300781-6.976562 32.398437-.28125 4.410156 3.0625 8.214844 7.472656 8.496094zm0 0"/><path d="m288.867188 114.707031c-4.347657.808594-7.214844 4.992188-6.402344 9.335938 1.496094 7.484375 3.691406 14.808593 6.550781 21.878906 1.050781 2.769531 2.089844 5.546875 3.058594 8.511719 1.503906 4.007812 5.894531 6.117187 9.960937 4.796875 4.070313-1.324219 6.378906-5.613281 5.238282-9.738281-1.046876-3.199219-2.175782-6.214844-3.304688-9.214844-2.53125-6.203125-4.46875-12.632813-5.792969-19.203125-.851562-4.304688-4.988281-7.132813-9.308593-6.367188zm0 0"/><path d="m338.753906 314.660156c-4.234375 1.25-6.652344 5.691406-5.410156 9.925782 1.042969 3.570312 2.179688 6.890624 3.320312 10.210937 2.566407 6.921875 4.519532 14.054687 5.839844 21.320313.652344 3.84375 3.980469 6.660156 7.882813 6.664062.449219-.003906.898437-.042969 1.34375-.113281 4.359375-.734375 7.296875-4.867188 6.558593-9.222657-1.464843-8.125-3.636718-16.105468-6.496093-23.851562-1.0625-3.09375-2.121094-6.183594-3.101563-9.519531-1.25-4.238281-5.699218-6.664063-9.9375-5.414063zm0 0"/><path d="m336.265625 97.8125h.511719c4.226562.007812 7.730468-3.273438 8-7.488281.601562-10.582031 2.757812-21.015625 6.398437-30.96875 1.433594-4.183594-.792969-8.734375-4.972656-10.167969-4.183594-1.433594-8.734375.792969-10.167969 4.976562-4.109375 11.300782-6.554687 23.140626-7.265625 35.144532-.136719 2.121094.574219 4.210937 1.980469 5.808594 1.40625 1.59375 3.390625 2.566406 5.515625 2.695312zm0 0"/><path d="m336.816406 115.683594c-4.359375.703125-7.324218 4.808594-6.621094 9.167968 1.445313 8.414063 3.664063 16.675782 6.628907 24.679688.984375 2.878906 1.96875 5.753906 2.890625 8.800781 1.015625 3.382813 4.128906 5.695313 7.664062 5.695313.78125-.003906 1.558594-.117188 2.3125-.335938 4.230469-1.273437 6.625-5.738281 5.351563-9.96875-.984375-3.261718-2.035157-6.328125-3.082031-9.398437-2.667969-7.144531-4.664063-14.519531-5.96875-22.03125-.710938-4.359375-4.816407-7.316407-9.175782-6.609375zm0 0"/><path d="m352.160156 181.402344c-4.414062.085937-7.925781 3.730468-7.847656 8.144531l.042969 3.679687c.140625 9.410157-.804688 18.808594-2.824219 28-1 4.308594 1.683594 8.605469 5.992188 9.601563.59375.132813 1.203124.199219 1.8125.199219 3.71875-.003906 6.945312-2.570313 7.785156-6.191406 2.285156-10.371094 3.359375-20.96875 3.199218-31.585938l-.039062-4c-.222656-4.34375-3.769531-7.773438-8.121094-7.847656zm0 0"/><path d="m336.289062 296.9375h.121094c4.417969-.0625 7.945313-3.699219 7.878906-8.117188v-2.984374c-.140624-9.632813.859376-19.246094 2.976563-28.640626.730469-2.804687-.113281-5.78125-2.203125-7.789062-2.089844-2.003906-5.101562-2.722656-7.875-1.878906-2.769531.847656-4.867188 3.125-5.480469 5.957031-2.417969 10.605469-3.566406 21.464844-3.417969 32.34375v3.238281c.070313 4.371094 3.632813 7.875 8 7.871094zm0 0"/><path d="m352.363281 380.539062c-4.398437-.214843-8.152343 3.128907-8.449219 7.519532-.519531 10.570312-2.617187 21.003906-6.222656 30.953125-1.425781 4.179687.804688 8.722656 4.980469 10.152343.832031.289063 1.707031.4375 2.585937.429688 3.421876 0 6.460938-2.175781 7.566407-5.414062 4.085937-11.320313 6.460937-23.183594 7.058593-35.199219.25-4.40625-3.117187-8.183594-7.519531-8.441407zm0 0"/><path d="m384.3125 116.980469h.496094c4.234375.007812 7.738281-3.28125 8-7.503907.507812-9.75 2.566406-19.359374 6.105468-28.457031 1.515626-4.152343-.621093-8.746093-4.773437-10.261719-4.148437-1.515624-8.742187.621094-10.257813 4.773438-4.074218 10.542969-6.449218 21.664062-7.042968 32.953125-.28125 4.410156 3.0625 8.210937 7.472656 8.496094zm0 0"/><path d="m394.167969 138.964844c-.785157-4.351563-4.953125-7.238282-9.300781-6.449219-4.351563.789063-7.238282 4.953125-6.449219 9.304687 1.488281 7.703126 3.699219 15.246094 6.609375 22.535157 1.03125 2.769531 2.054687 5.527343 3.007812 8.496093 1.0625 3.3125 4.144532 5.554688 7.621094 5.550782.832031 0 1.65625-.132813 2.449219-.382813 4.191406-1.351562 6.5-5.835937 5.167969-10.03125-1.03125-3.199219-2.136719-6.167969-3.238282-9.152343-2.582031-6.425782-4.542968-13.078126-5.867187-19.871094zm0 0"/><path d="m384.523438 301.78125h.140624c4.421876-.082031 7.9375-3.726562 7.859376-8.144531v-2.503907c-.15625-8.957031.835937-17.890624 2.949218-26.59375 1.105469-4.277343-1.46875-8.644531-5.746094-9.746093-4.28125-1.105469-8.644531 1.46875-9.75 5.746093-2.453124 10.007813-3.613281 20.289063-3.453124 30.59375v2.78125c.074218 4.367188 3.632812 7.867188 8 7.867188zm0 0"/><path d="m386.777344 317.15625c-4.214844 1.324219-6.558594 5.816406-5.230469 10.03125 1.09375 3.496094 2.285156 6.71875 3.480469 9.960938 2.484375 6.183593 4.40625 12.585937 5.734375 19.117187.824219 4.34375 5.011719 7.195313 9.351562 6.371094 4.339844-.824219 7.191407-5.011719 6.367188-9.351563-1.492188-7.414062-3.648438-14.679687-6.445313-21.707031-1.105468-2.976563-2.210937-5.957031-3.203125-9.183594-.632812-2.03125-2.050781-3.726562-3.9375-4.707031-1.886719-.984375-4.089843-1.175781-6.117187-.53125zm0 0"/><path d="m400.523438 193.386719h-.167969c-2.128907.042969-4.152344.933593-5.621094 2.472656s-2.265625 3.601563-2.210937 5.726563l.039062 3.203124c.144531 8.730469-.792969 17.449219-2.800781 25.949219-1.066407 4.292969 1.546875 8.632813 5.839843 9.695313.632813.152344 1.285157.230468 1.9375.234375 3.671876-.003907 6.871094-2.507813 7.757813-6.074219 2.3125-9.792969 3.394531-19.832031 3.226563-29.894531v-3.488281c-.097657-4.347657-3.652344-7.824219-8-7.824219zm0 0"/><path d="m400.738281 378.171875c-4.398437-.21875-8.15625 3.140625-8.433593 7.535156-.441407 9.746094-2.429688 19.359375-5.894532 28.480469-1.492187 4.160156.667969 8.742188 4.828125 10.234375 4.160157 1.496094 8.742188-.667969 10.234375-4.828125 3.980469-10.570312 6.273438-21.699219 6.800782-32.980469.25-4.414062-3.125-8.191406-7.535157-8.441406zm0 0"/></g><path d="m444.90625 124.210938c-14.871094-77.65625-71.824219-132.902344-126.785156-123.078126-21.808594 4.320313-40.910156 17.347657-52.886719 36.078126-21.351563 31.054687-28.871094 76.945312-20.105469 122.777343 1.273438 6.625 2.878906 13.207031 4.761719 19.542969 7.96875 29.246094 7.175781 60.1875-2.28125 88.984375-8.171875 28.378906-9.363281 58.316406-3.472656 87.253906 13.722656 71.648438 63.207031 124.21875 113.984375 124.21875 4.277344 0 8.550781-.375 12.761718-1.128906 21.808594-4.320313 40.910157-17.351563 52.886719-36.078125 21.390625-31.074219 28.910157-76.960938 20.144531-122.792969-1.273437-6.625-2.878906-13.199219-4.761718-19.542969-7.96875-29.246093-7.175782-60.1875 2.28125-88.984374 8.171875-28.378907 9.363281-58.3125 3.472656-87.25zm-21.097656 180.800781c1.746094 5.832031 3.199218 11.894531 4.386718 18.007812 8 41.703125 1.414063 83.078125-17.601562 110.679688-9.585938 15.171875-24.933594 25.789062-42.511719 29.410156-46.457031 8.191406-95-41.25-108.222656-110.320313-5.414063-26.386718-4.359375-53.691406 3.0625-79.585937 10.371094-31.796875 11.175781-65.941406 2.3125-98.191406-1.765625-5.925781-3.226563-11.933594-4.386719-18.007813-8-41.703125-1.414062-83.082031 17.601563-110.679687 9.585937-15.171875 24.933593-25.789063 42.511719-29.410157 3.371093-.605468 6.785156-.914062 10.207031-.925781 43.160156 0 85.761719 47.199219 98.019531 111.246094 5.410156 26.386719 4.355469 53.691406-3.066406 79.585937-10.367188 31.792969-11.171875 65.929688-2.3125 98.175782zm0 0"/><path d="m204.90625 124.210938c-14.871094-77.65625-71.824219-132.902344-126.785156-123.078126-21.808594 4.320313-40.910156 17.347657-52.886719 36.078126-21.351563 31.054687-28.871094 76.945312-20.105469 122.777343 1.273438 6.625 2.878906 13.207031 4.800782 19.542969 7.96875 29.246094 7.175781 60.1875-2.28125 88.984375-8.171876 28.378906-9.363282 58.316406-3.472657 87.253906 13.683594 71.648438 63.167969 124.21875 113.945313 124.21875 4.277344 0 8.550781-.375 12.761718-1.128906 21.808594-4.320313 40.910157-17.351563 52.886719-36.078125 21.390625-31.074219 28.910157-76.960938 20.144531-122.792969-1.273437-6.625-2.878906-13.199219-4.761718-19.542969-7.96875-29.246093-7.175782-60.1875 2.28125-88.984374 8.171875-28.378907 9.363281-58.3125 3.472656-87.25zm-21.097656 180.800781c1.746094 5.832031 3.199218 11.894531 4.386718 18.007812 8 41.703125 1.414063 83.078125-17.601562 110.679688-9.585938 15.171875-24.933594 25.789062-42.511719 29.410156-46.449219 8.191406-95-41.25-108.222656-110.320313-5.417969-26.402343-4.367187-53.71875 3.0625-79.625 10.371094-31.796874 11.175781-65.941406 2.3125-98.191406-1.765625-5.925781-3.226563-11.9375-4.386719-18.007812-8-41.707032-1.414062-83.082032 17.601563-110.679688 9.585937-15.171875 24.933593-25.789062 42.511719-29.410156 3.371093-.589844 6.785156-.890625 10.207031-.886719 43.203125 0 85.761719 47.199219 98.019531 111.246094 5.410156 26.386719 4.355469 53.691406-3.066406 79.585937-10.367188 31.792969-11.171875 65.929688-2.3125 98.175782zm0 0"/><path d="m174.960938 185.667969c2.234374-17.535157 5.167968-62.113281-15.832032-97.175781-10.472656-17.488282-25.878906-22.289063-39.472656-26.519532-8.453125-2.101562-16.480469-5.644531-23.726562-10.472656l-1.503907-1.121094c-1.601562-1.214844-3.265625-2.457031-4.9375-3.566406-7.570312-6.457031-18.632812-6.71875-26.503906-.625-25.597656 19.808594-36.429687 65.359375-26.949219 113.359375 4.46875 24.941406 14.972656 48.414063 30.597656 68.359375-1.285156.644531-2.507812 1.40625-3.648437 2.28125-25.597656 19.808594-36.429687 65.359375-26.949219 113.359375 11.140625 56.375 45.574219 96.441406 80.917969 96.441406 3.023437 0 6.039063-.292969 9.007813-.871093 38.207031-7.570313 47.199218-55.082032 49-69.464844 2.234374-17.535156 5.167968-62.113282-15.832032-97.175782-5.394531-9.121093-13.507812-16.324218-23.199218-20.601562 29.785156-13.054688 37.390624-53.175781 39.03125-66.207031zm-29.597657 95.046875c12.796875 21.351562 17.910157 53.847656 13.6875 86.921875-1.488281 11.703125-8.511719 50.300781-36.226562 55.789062-28.566407 5.664063-61.117188-32.367187-71.125-82.992187-8.210938-41.535156.4375-81.664063 21.039062-97.597656.65625-.644532 1.527344-1.023438 2.449219-1.074219 1.988281.289062 3.859375 1.117187 5.40625 2.402343 1.40625.945313 2.800781 2.007813 4.167969 3.03125l1.601562 1.199219c8.703125 5.902344 18.367188 10.25 28.558594 12.847657 12.917969 4.035156 23.136719 7.226562 30.472656 19.472656zm-22.503906-41.289063c-28.570313 5.683594-61.121094-32.367187-71.128906-82.992187-8.207031-41.535156.4375-81.664063 21.039062-97.597656.660157-.644532 1.527344-1.023438 2.449219-1.074219 1.984375.277343 3.855469 1.09375 5.40625 2.363281 1.410156.941406 2.800781 2.007812 4.167969 3.03125l1.601562 1.199219c8.691407 5.914062 18.34375 10.273437 28.527344 12.886719 12.945313 4 23.160156 7.203124 30.496094 19.472656 12.800781 21.351562 17.910156 53.847656 13.6875 86.921875-1.511719 11.703125-8.535157 50.300781-36.246094 55.789062zm0 0"/><path d="m86.921875 92.035156-14.488281-6.816406c-2.503906 5.476562-4.363282 11.230469-5.535156 17.136719l15.65625 3.265625c.929687-4.683594 2.398437-9.238282 4.367187-13.585938zm0 0"/><path d="m80.714844 120.355469-16-.734375c-.457032 11.304687.445312 22.625 2.6875 33.71875 3.28125 18.617187 10.785156 36.234375 21.941406 51.496094l12.722656-9.695313c-9.574218-13.375-16.050781-28.714844-18.960937-44.90625-1.996094-9.828125-2.796875-19.859375-2.390625-29.878906zm0 0"/><path d="m86.921875 276.035156-14.488281-6.816406c-2.503906 5.476562-4.363282 11.230469-5.535156 17.136719l15.65625 3.265625c.929687-4.683594 2.398437-9.238282 4.367187-13.585938zm0 0"/><path d="m80.714844 304.355469-16-.734375c-.457032 11.304687.445312 22.625 2.6875 33.71875 3.28125 18.617187 10.785156 36.234375 21.941406 51.496094l12.722656-9.695313c-9.574218-13.375-16.050781-28.714844-18.960937-44.90625-1.996094-9.828125-2.796875-19.859375-2.390625-29.878906zm0 0"/><path d="m304.746094 355.515625c-4.410156-.246094-8.183594 3.128906-8.433594 7.535156-.429688 9.535157-2.402344 18.9375-5.839844 27.839844-1.519531 4.148437.613282 8.746094 4.761719 10.265625.878906.324219 1.8125.488281 2.75.488281 3.355469-.003906 6.351563-2.101562 7.503906-5.25 3.984375-10.371093 6.277344-21.3125 6.792969-32.40625.128906-2.125-.59375-4.210937-2.007812-5.800781-1.414063-1.589844-3.402344-2.550781-5.527344-2.671875zm0 0"/><path d="m304.523438 174.386719h-.179688c-4.402344.097656-7.898438 3.734375-7.820312 8.136719v3.03125c.148437 8.578124-.796876 17.140624-2.808594 25.480468-.726563 2.777344.09375 5.726563 2.140625 7.734375 2.050781 2.007813 5.019531 2.761719 7.777343 1.980469 2.761719-.78125 4.890626-2.980469 5.585938-5.761719 2.34375-9.621093 3.453125-19.5 3.304688-29.402343v-3.390626c-.105469-4.34375-3.65625-7.808593-8-7.808593zm0 0"/><path d="m288.691406 280.929688c4.40625-.089844 7.910156-3.734376 7.832032-8.140626v-2.457031c-.15625-8.761719.835937-17.503906 2.941406-26.007812 1.117187-4.277344-1.441406-8.648438-5.714844-9.765625-4.273438-1.117188-8.648438 1.441406-9.765625 5.71875-2.457031 9.824218-3.621094 19.925781-3.460937 30.054687v2.75c.082031 4.359375 3.636718 7.851563 8 7.847657zm0 0"/><path d="m288.867188 114.707031c-4.347657.808594-7.214844 4.992188-6.402344 9.335938 1.496094 7.484375 3.691406 14.808593 6.550781 21.878906 1.050781 2.769531 2.089844 5.546875 3.058594 8.511719 1.503906 4.007812 5.894531 6.117187 9.960937 4.796875 4.070313-1.324219 6.378906-5.613281 5.238282-9.738281-1.046876-3.199219-2.175782-6.214844-3.304688-9.214844-2.53125-6.203125-4.46875-12.632813-5.792969-19.203125-.851562-4.304688-4.988281-7.132813-9.308593-6.367188zm0 0"/><path d="m302.585938 340.714844c.511718 0 1.019531-.050782 1.519531-.152344 4.339843-.835938 7.175781-5.035156 6.335937-9.375-1.484375-7.265625-3.625-14.382812-6.398437-21.265625-1.113281-2.925781-2.21875-5.847656-3.203125-9.015625-1.558594-3.894531-5.867188-5.921875-9.863282-4.644531-3.996093 1.28125-6.324218 5.429687-5.335937 9.507812 1.097656 3.441407 2.289063 6.625 3.480469 9.792969 2.46875 6.03125 4.378906 12.277344 5.703125 18.65625.714843 3.734375 3.960937 6.449219 7.761719 6.496094zm0 0"/><path d="m288.296875 99.761719h.496094c4.234375.007812 7.742187-3.285157 8-7.511719.507812-9.539062 2.539062-18.933594 6.023437-27.832031 1.535156-4.144531-.585937-8.75-4.730468-10.28125-4.148438-1.535157-8.75.585937-10.285157 4.730469-4.015625 10.363281-6.371093 21.300781-6.976562 32.398437-.28125 4.410156 3.0625 8.214844 7.472656 8.496094zm0 0"/><path d="m352.160156 181.402344c-4.414062.085937-7.925781 3.730468-7.847656 8.144531l.042969 3.679687c.140625 9.410157-.804688 18.808594-2.824219 28-1 4.308594 1.683594 8.605469 5.992188 9.601563.59375.132813 1.203124.199219 1.8125.199219 3.71875-.003906 6.945312-2.570313 7.785156-6.191406 2.285156-10.371094 3.359375-20.96875 3.199218-31.585938l-.039062-4c-.222656-4.34375-3.769531-7.773438-8.121094-7.847656zm0 0"/><path d="m352.363281 380.539062c-4.398437-.214843-8.152343 3.128907-8.449219 7.519532-.519531 10.570312-2.617187 21.003906-6.222656 30.953125-1.425781 4.179687.804688 8.722656 4.980469 10.152343.832031.289063 1.707031.4375 2.585937.429688 3.421876 0 6.460938-2.175781 7.566407-5.414062 4.085937-11.320313 6.460937-23.183594 7.058593-35.199219.25-4.40625-3.117187-8.183594-7.519531-8.441407zm0 0"/><path d="m336.410156 296.9375c4.417969-.0625 7.945313-3.699219 7.878906-8.117188v-2.984374c-.140624-9.632813.859376-19.246094 2.976563-28.640626.730469-2.804687-.113281-5.78125-2.203125-7.789062-2.089844-2.003906-5.101562-2.722656-7.875-1.878906-2.769531.847656-4.867188 3.125-5.480469 5.957031-2.417969 10.605469-3.566406 21.464844-3.417969 32.34375v3.238281c.070313 4.371094 3.632813 7.875 8 7.871094zm0 0"/><path d="m350.386719 362.78125c.449219-.003906.898437-.042969 1.34375-.113281 4.359375-.734375 7.296875-4.867188 6.558593-9.222657-1.464843-8.125-3.636718-16.105468-6.496093-23.851562-1.0625-3.09375-2.121094-6.183594-3.101563-9.519531-.746094-2.816407-2.957031-5.003907-5.78125-5.714844-2.824218-.714844-5.8125.164063-7.800781 2.292969-1.988281 2.125-2.664063 5.164062-1.765625 7.933594 1.042969 3.570312 2.179688 6.890624 3.320312 10.210937 2.566407 6.921875 4.519532 14.054687 5.839844 21.320313.652344 3.84375 3.980469 6.660156 7.882813 6.664062zm0 0"/><path d="m336.265625 97.8125h.511719c4.226562.007812 7.730468-3.273438 8-7.488281.601562-10.582031 2.757812-21.015625 6.398437-30.96875 1.433594-4.183594-.792969-8.734375-4.972656-10.167969-4.183594-1.433594-8.734375.792969-10.167969 4.976562-4.109375 11.300782-6.554687 23.140626-7.265625 35.144532-.136719 2.121094.574219 4.210937 1.980469 5.808594 1.40625 1.59375 3.390625 2.566406 5.515625 2.695312zm0 0"/><path d="m336.816406 115.683594c-4.359375.703125-7.324218 4.808594-6.621094 9.167968 1.445313 8.414063 3.664063 16.675782 6.628907 24.679688.984375 2.878906 1.96875 5.753906 2.890625 8.800781 1.015625 3.382813 4.128906 5.695313 7.664062 5.695313.78125-.003906 1.558594-.117188 2.3125-.335938 4.230469-1.273437 6.625-5.738281 5.351563-9.96875-.984375-3.261718-2.035157-6.328125-3.082031-9.398437-2.667969-7.144531-4.664063-14.519531-5.96875-22.03125-.710938-4.359375-4.816407-7.316407-9.175782-6.609375zm0 0"/><path d="m400.738281 378.171875c-4.398437-.21875-8.15625 3.140625-8.433593 7.535156-.441407 9.746094-2.429688 19.359375-5.894532 28.480469-1.492187 4.160156.667969 8.742188 4.828125 10.234375 4.160157 1.496094 8.742188-.667969 10.234375-4.828125 3.980469-10.570312 6.273438-21.699219 6.800782-32.980469.25-4.414062-3.125-8.191406-7.535157-8.441406zm0 0"/><path d="m384.3125 116.980469h.496094c4.234375.007812 7.738281-3.28125 8-7.503907.507812-9.75 2.566406-19.359374 6.105468-28.457031 1.515626-4.152343-.621093-8.746093-4.773437-10.261719-4.148437-1.515624-8.742187.621094-10.257813 4.773438-4.074218 10.542969-6.449218 21.664062-7.042968 32.953125-.28125 4.410156 3.0625 8.210937 7.472656 8.496094zm0 0"/><path d="m400.523438 193.386719h-.167969c-2.128907.042969-4.152344.933593-5.621094 2.472656s-2.265625 3.601563-2.210937 5.726563l.039062 3.203124c.144531 8.730469-.792969 17.449219-2.800781 25.949219-1.066407 4.292969 1.546875 8.632813 5.839843 9.695313.632813.152344 1.285157.230468 1.9375.234375 3.671876-.003907 6.871094-2.507813 7.757813-6.074219 2.3125-9.792969 3.394531-19.832031 3.226563-29.894531v-3.488281c-.097657-4.347657-3.652344-7.824219-8-7.824219zm0 0"/><path d="m398.617188 362.78125c2.386718 0 4.644531-1.0625 6.167968-2.898438 1.519532-1.835937 2.140625-4.257812 1.695313-6.597656-1.492188-7.414062-3.648438-14.679687-6.445313-21.707031-1.105468-2.976563-2.210937-5.957031-3.203125-9.183594-1.324219-4.214843-5.816406-6.554687-10.03125-5.230469-4.214843 1.324219-6.558593 5.816407-5.230469 10.03125 1.09375 3.496094 2.289063 6.71875 3.480469 9.960938 2.484375 6.1875 4.40625 12.585938 5.734375 19.121094.71875 3.761718 4 6.488281 7.832032 6.503906zm0 0"/><path d="m384.867188 132.515625c-2.089844.378906-3.945313 1.570313-5.152344 3.316406-1.210938 1.742188-1.675782 3.898438-1.296875 5.988281 1.488281 7.703126 3.699219 15.246094 6.609375 22.535157 1.03125 2.769531 2.054687 5.527343 3.007812 8.496093 1.0625 3.3125 4.144532 5.554688 7.621094 5.550782.832031 0 1.65625-.132813 2.449219-.382813 4.191406-1.351562 6.5-5.835937 5.167969-10.03125-1.03125-3.199219-2.136719-6.167969-3.238282-9.152343-2.578125-6.410157-4.542968-13.050782-5.867187-19.832032-.367188-2.097656-1.554688-3.960937-3.300781-5.179687-1.746094-1.214844-3.90625-1.6875-6-1.308594zm0 0"/><path d="m384.691406 301.78125c4.40625-.09375 7.910156-3.738281 7.832032-8.144531v-2.503907c-.15625-8.957031.835937-17.890624 2.949218-26.59375 1.105469-4.277343-1.46875-8.644531-5.746094-9.746093-4.28125-1.105469-8.644531 1.46875-9.75 5.746093-2.453124 10.007813-3.613281 20.289063-3.453124 30.59375v2.78125c.074218 4.367188 3.632812 7.867188 8 7.867188zm0 0"/></svg>