<svg height="479pt" viewBox="-47 0 479 479.99379" width="479pt" xmlns="http://www.w3.org/2000/svg"><path d="m274.3125 471.992188c22.6875-.011719 42.710938-14.8125 49.382812-36.496094l31.625-102.703125c14.039063-45.613281 21.175782-93.074219 21.175782-140.800781 0-35.34375-28.652344-64-64-64h-16c-35.34375 0-64 28.65625-64 64v238.183593c0 23.097657 18.722656 41.816407 41.816406 41.816407zm0 0" fill="#d43d3d"/><path d="m222.496094 31.65625c-7.617188 20.542969-10.6875 42.492188-9 64.335938h11c17.675781 0 32 14.328124 32 32v16h-120v-16c0-17.671876 14.328125-32 32-32-.8125-29.75 8.992187-58.820313 27.664062-82zm0 0" fill="#5f9548"/><path d="m110.679688 471.992188c-22.683594-.011719-42.710938-14.8125-49.382813-36.496094l-31.625-102.703125c-14.035156-45.613281-21.171875-93.074219-21.175781-140.800781 0-35.34375 28.65625-64 64-64h16c35.347656 0 64 28.65625 64 64v238.183593c0 23.097657-18.722656 41.816407-41.816406 41.816407zm0 0" fill="#d43d3d"/><path d="m104.496094 175.992188v29.183593c.003906 39.15625 2.992187 78.253907 8.945312 116.953125l13.792969 108.160156c3.601563 23.417969 23.75 40.707032 47.445313 40.703126h29.601562c23.695312.003906 43.847656-17.285157 47.449219-40.703126l19.789062-108.160156c5.964844-38.699218 8.964844-77.796875 8.976563-116.953125v-29.183593c0-26.507813-21.488282-48-48-48h-80c-26.507813 0-48 21.492187-48 48zm0 0" fill="#e94f4f"/><path d="m123.984375 404.792969 3.25 25.511719c3.601563 23.417968 23.75 40.707031 47.445313 40.703124h29.601562c23.695312.003907 43.847656-17.285156 47.449219-40.703124l19.789062-108.160157c5.960938-38.675781 8.960938-77.753906 8.976563-116.886719-24.410156 84.246094-80.503906 155.761719-156.511719 199.535157zm0 0" fill="#e04646"/><path d="m128.496094 199.992188h16v17h-16zm0 0" fill="#f26666"/><path d="m138.097656 326.625-4.480468-31.328125c-3.15625-20.421875-4.867188-41.039063-5.121094-61.703125l16-.175781c.226562 19.941406 1.863281 39.84375 4.890625 59.558593l4.503906 31.410157zm0 0" fill="#f26666"/><path d="m224.496094 23.992188c0 8.835937-7.164063 16-16 16-8.835938 0-16-7.164063-16-16 0-8.835938 7.164062-16 16-16 8.835937 0 16 7.164062 16 16zm0 0" fill="#77ad50"/><path d="m53.648438 437.855469c7.589843 25.109375 30.777343 42.246093 57.007812 42.136719 11.488281-.019532 22.613281-4.019532 31.488281-11.3125 9.507813 6.738281 20.878907 10.34375 32.527344 10.3125h29.648437c13.046876.035156 25.695313-4.492188 35.753907-12.800782 9.238281 8.8125 21.496093 13.75 34.261719 13.800782 26.230468.113281 49.414062-17.019532 57.007812-42.125l31.59375-102.675782c14.320312-46.382812 21.589844-94.652344 21.558594-143.199218.027344-19.101563-7.550782-37.429688-21.058594-50.9375-13.507812-13.507813-31.835938-21.085938-50.941406-21.0625h-16c-11.117188.035156-22.074219 2.664062-32 7.671874-.0625-13.304687-6.785156-25.691406-17.902344-33-6.554688-4.335937-14.238281-6.65625-22.097656-6.671874h-3.199219c-.726563-18.101563 2.183594-36.167969 8.558594-53.125 0-.082032 0-.171876.050781-.25 1.679688-3.289063 2.570312-6.929688 2.589844-10.625.023437-10.738282-7.105469-20.175782-17.441406-23.09375-10.335938-2.914063-21.347657 1.40625-26.941407 10.574218-.054687.082032-.113281.136719-.167969.214844-8.992187 11.480469-15.921874 24.433594-20.480468 38.28125-4.082032 12.550781-6.375 25.613281-6.816406 38.800781-17.671876 3.605469-30.746094 18.59375-31.917969 36.589844-2.136719 1.007813-4.207031 2.144531-6.203125 3.410156-10.433594-5.710937-22.132813-8.730469-34.03125-8.777343h-16c-19.101563-.023438-37.429688 7.554687-50.9375 21.0625-13.507813 13.507812-21.085938 31.835937-21.0625 50.9375-.023438 48.527343 7.242187 96.785156 21.554687 143.152343zm150.671874 25.136719h-29.648437c-19.703125.109374-36.511719-14.234376-39.503906-33.710938l-13.824219-108.367188c-5.878906-38.300781-8.835938-76.996093-8.847656-115.746093v-29.175781c.027344-22.078126 17.921875-39.972657 40-40h80c22.082031.027343 39.972656 17.921874 40 40v29.175781c0 38.671875-2.941406 77.289062-8.800782 115.511719l-19.839843 108.394531c-2.917969 19.558593-19.757813 34.007812-39.535157 33.917969zm108.175782-327c14.859375-.023438 29.117187 5.871093 39.625 16.378906 10.507812 10.503906 16.398437 24.761718 16.375 39.621094.023437 46.933593-7.003906 93.605468-20.847656 138.449218l-31.597657 102.726563c-5.710937 18.261719-22.582031 30.730469-41.714843 30.824219-8.789063-.03125-17.222657-3.472657-23.527344-9.597657 4.5625-6.804687 7.570312-14.535156 8.800781-22.632812l19.847656-108.425781c6.007813-39.101563 9.03125-78.605469 9.039063-118.167969v-29.175781c.007812-13.082032-4.585938-25.75-12.976563-35.789063 6.65625-2.75 13.777344-4.175781 20.976563-4.210937zm-104-120c4.417968 0 8 3.582031 8 8 0 4.417968-3.582032 8-8 8-4.417969 0-8-3.582032-8-8 0-4.417969 3.582031-8 8-8zm-40 88c4.417968 0 8-3.582032 8-8-.167969-13.917969 1.914062-27.777344 6.167968-41.03125 1.847657-5.636719 4.160157-11.109376 6.921876-16.359376 4.503906 5.898438 11.492187 9.367188 18.910156 9.390626.226562 0 .433594-.054688.65625-.0625-3.390625 15.890624-4.632813 32.167968-3.6875 48.390624.175781 4.289063 3.707031 7.675782 8 7.671876h11.03125c4.730468.023437 9.347656 1.425781 13.289062 4.042968 4.988282 3.285156 8.554688 8.332032 9.992188 14.132813-4.96875-1.429688-10.109375-2.160157-15.28125-2.175781h-80c-2.226563.015624-4.453125.160156-6.664063.433593 3.246094-9.773437 12.367188-16.382812 22.664063-16.433593zm-135.640625 48.394531c10.511719-10.515625 24.773437-16.414063 39.640625-16.394531h16c7.199218.035156 14.324218 1.460937 20.976562 4.210937-8.390625 10.039063-12.984375 22.707031-12.976562 35.789063v29.175781c.007812 39.496093 3.019531 78.933593 9.007812 117.96875l13.824219 108.367187c1.445313 9.488282 5.300781 18.441406 11.199219 26.007813-5.773438 4.207031-12.726563 6.476562-19.871094 6.480469-19.132812-.097657-36.003906-12.566407-41.710938-30.832032l-31.609374-102.726562c-13.835938-44.84375-20.859376-91.511719-20.839844-138.441406-.019532-14.851563 5.867187-29.097657 16.359375-39.605469zm0 0"/><path d="m128.496094 199.992188h16v17h-16zm0 0"/><path d="m144.496094 233.394531-16 .199219c.234375 20.667969 1.925781 41.296875 5.066406 61.726562l4.476562 31.328126 15.851563-2.261719-4.503906-31.410157c-3.03125-19.722656-4.664063-39.632812-4.890625-59.582031zm0 0"/></svg>