<svg height="480pt" viewBox="0 0 480.26319 480" width="480pt" xmlns="http://www.w3.org/2000/svg"><path d="m8.261719 440.132812h464v32h-464zm0 0" fill="#3d4d63"/><path d="m452.878906 65.628906c-22.746094-35.796875-62.207031-57.484375-104.617187-57.496094-54.902344.796876-109.425781 9.246094-161.992188 25.109376-48.476562 13.875-101.765625 28.128906-146.550781 51.601562-14.191406 7.597656-24.582031 20.753906-28.6875 36.320312-4.441406 17.015626-2.6875 275.847657-2.769531 318.96875h464v-307.847656c0-23.609375-6.722657-46.730468-19.382813-66.65625zm0 0" fill="#f26666"/><path d="m452.878906 65.628906c-22.746094-35.796875-62.207031-57.484375-104.617187-57.496094-2.847657 0-5.6875.136719-8.527344.191407 1.089844 1.597656 2.207031 3.128906 3.242187 4.75 15.183594 23.894531 23.246094 51.621093 23.246094 79.929687v347.128906h106.039063v-307.847656c0-23.609375-6.722657-46.730468-19.382813-66.65625zm0 0" fill="#e94f4f"/><path d="m472.261719 440.132812h-464c1.699219-16.289062 4.417969-31.847656 17.664062-42.839843 20.746094-17.234375 51.640625-26.402344 76.800781-35 27.417969-9.394531 55.375-17.089844 83.199219-25.050781 52.632813-15.863282 107.21875-24.3125 162.183594-25.109376 68.570313-.003906 124.160156 55.582032 124.152344 124.152344zm0 0" fill="#e04646"/><path d="m401.78125 369.316406c3.847656-12.460937 10.5625-23.839844 19.609375-33.234375-4.425781-3.230469-9.054687-6.171875-13.863281-8.796875-9.632813 10.777344-16.8125 23.519532-21.039063 37.34375l-5.273437 17.207032c-10.351563 30.582031-39.332032 50.929687-71.613282 50.277343-32.28125-.652343-60.417968-22.15625-69.523437-53.132812l-3.285156-9.832031c-4.824219-14.550782-12.632813-27.929688-22.929688-39.28125-6 1.484374-11.980469 3.035156-17.9375 4.65625 11.828125 10.808593 20.675781 24.476562 25.699219 39.6875l3.199219 9.601562c5.804687 19.257812 17.890625 36.015625 34.335937 47.597656-27.6875-2.183594-54.554687-9.199218-72.9375-33.527344-1.792968-2.398437-3.519531-4.800781-5.230468-7.199218-7.273438-12.375-17.855469-22.472656-30.5625-29.152344-7.808594-3.476562-16.105469-5.738281-24.597657-6.703125-7.746093 2.398437-15.464843 4.878906-23.136719 7.511719-10.175781 3.480468-21.289062 7.085937-32.296874 11.253906l28.953124-1.910156c.324219-.015625.648438-.054688.96875-.121094 14.640626-2.871094 29.804688-1.289062 43.535157 4.546875 10.0625 5.589844 18.394531 13.839844 24.085937 23.847656 1.808594 2.535157 3.617188 5.085938 5.515625 7.597657 11.683594 15.398437 27.867188 26.78125 46.308594 32.578124h128.296875c22.847656-10.300781 40.375-29.644531 48.375-53.394531zm0 0" fill="#f26666"/><path d="m454.160156 371.859375c-.945312 1.03125-1.90625 2.054687-2.761718 3.105469-3.65625 4.386718-6.699219 9.25-9.046876 14.453125l-11.03125 24.097656c-6.632812 15.796875-21.929687 26.222656-39.058593 26.617187h39.320312c5.992188-5.675781 10.839844-12.445312 14.28125-19.945312l11.0625-24.167969c1.421875-3.074219 3.175781-5.984375 5.226563-8.679687-2.296875-5.339844-4.96875-10.515625-7.992188-15.480469zm0 0" fill="#f26666"/><path d="m119.277344 417.453125-2.519532-3.648437c-8.261718-12.042969-16.796874-24.488282-31.390624-30.289063-9.292969-3.445313-19.214844-4.871094-29.105469-4.183594-10.871094 4.574219-21.070313 10.605469-30.320313 17.925781-.679687.5625-1.207031 1.179688-1.832031 1.761719l16.152344-2.03125c12.984375-2.746093 26.445312-2.269531 39.203125 1.382813 10.070312 4 16.894531 13.953125 24.117187 24.488281l2.578125 3.734375c3.46875 5.007812 7.554688 9.558594 12.167969 13.539062h65.238281l-.09375-.945312c-28.363281 2.816406-48.945312.144531-64.195312-21.734375zm0 0" fill="#f26666"/><path d="m366.925781 304.132812.113281-.617187c-5.347656-.726563-10.738281-1.101563-16.136718-1.128906-.679688 2.90625-1.496094 6.257812-2.398438 9.761719 5.421875.019531 10.839844.398437 16.214844 1.128906.816406-3.25 1.570312-6.371094 2.207031-9.144532zm0 0" fill="#f26666"/><path d="m273.597656 302.796875c-5.359375.734375-10.710937 1.503906-16.054687 2.398437l.527343 1.777344c.085938.285156.1875.570313.304688.847656.847656 2 2.863281 6.679688 4.984375 11.734376 5.390625-.902344 10.800781-1.6875 16.222656-2.398438-2.472656-6.039062-4.992187-11.929688-5.984375-14.359375zm0 0" fill="#f26666"/><path d="m281.4375 368.042969c8.136719 15.289062 20.136719 24.089843 32.96875 24.089843h.183594c12.679687-.089843 24.425781-8.800781 32.203125-23.960937 7.820312-17.644531 13.832031-36.039063 17.949219-54.894531-5.375-.738282-10.789063-1.121094-16.214844-1.144532-3.71875 16.703126-9.058594 33.003907-15.945313 48.671876-4.984375 9.726562-11.574219 15.328124-18.101562 15.328124h-.074219c-6.710938 0-13.597656-5.671874-18.816406-15.546874-4.363282-9.066407-7.792969-18.550782-10.238282-28.308594-.71875-2.707032-3.199218-8.992188-5.769531-15.203125-5.421875.753906-10.832031 1.539062-16.222656 2.402343 2.792969 6.671876 5.777344 14.015626 6.542969 16.910157 2.742187 10.921875 6.609375 21.53125 11.535156 31.65625zm0 0" fill="#f26666"/><g fill="#f59898"><path d="m472.121094 128.300781h-.179688c-40.703125 1.597657-62.148437 17.796875-82.894531 33.453125-20.742187 15.65625-40.253906 30.378906-79.984375 30.378906-39.726562 0-59.28125-14.761718-80-30.402343-21.878906-16.511719-44.519531-33.597657-89.597656-33.597657-45.082032 0-67.722656 17.085938-89.601563 33.597657-12.351562 10.316406-26.304687 18.554687-41.304687 24.386719-.070313 5.503906-.132813 11.214843-.191406 17.132812l2.320312-.933594c17.804688-6.238281 34.332031-15.648437 48.777344-27.785156 20.703125-15.625 40.269531-30.398438 80-30.398438 39.726562 0 59.277344 14.757813 80 30.398438 21.902344 16.527344 44.542968 33.601562 89.597656 33.601562 45.058594 0 67.730469-17.082031 89.601562-33.601562 19.640626-14.832031 38.191407-28.800781 73.597657-30.238281v-12c0-1.34375-.09375-2.664063-.140625-3.992188zm0 0"/><path d="m219.367188 62.484375c21.921874 16.542969 44.59375 33.648437 89.695312 33.648437 45.105469 0 67.703125-17.074218 89.601562-33.601562 9.671876-7.820312 20.125-14.621094 31.199219-20.289062l2.398438-1.3125c-4.273438-3.910157-8.820313-7.519532-13.597657-10.796876-10.398437 5.714844-20.296874 12.285157-29.601562 19.648438-20.734375 15.605469-40.289062 30.351562-80 30.351562s-59.328125-14.777343-80.054688-30.402343c-9.449218-7.46875-19.507812-14.132813-30.074218-19.917969-4.222656 1.136719-8.453125 2.253906-12.664063 3.457031l-15.070312 4.292969 13.695312 3.144531c12.335938 5.824219 23.914063 13.140625 34.472657 21.777344zm0 0"/><path d="m389.0625 273.730469c-20.695312 15.625-40.253906 30.402343-80 30.402343-39.742188 0-59.28125-14.761718-80-30.402343-21.878906-16.511719-44.519531-33.597657-89.597656-33.597657-45.082032 0-67.722656 17.085938-89.601563 33.597657-12.5 10.445312-26.640625 18.75-41.847656 24.585937v17.136719l2.671875-1.136719c17.804688-6.238281 34.332031-15.648437 48.777344-27.785156 20.703125-15.625 40.269531-30.398438 80-30.398438 39.726562 0 59.277344 14.757813 80 30.398438 21.902344 16.527344 44.542968 33.601562 89.597656 33.601562 45.058594 0 67.730469-17.082031 89.601562-33.601562 19.640626-14.832031 38.191407-28.800781 73.597657-30.238281v-16h-.320313c-40.703125 1.621093-62.148437 17.804687-82.878906 33.4375zm0 0"/><path d="m389.0625 217.730469c-20.695312 15.625-40.253906 30.402343-80 30.402343-39.742188 0-59.28125-14.761718-80-30.402343-21.878906-16.511719-44.519531-33.597657-89.597656-33.597657-45.082032 0-67.722656 17.085938-89.601563 33.597657-12.460937 10.429687-26.566406 18.71875-41.742187 24.527343 0 5.632813-.019532 11.316407-.058594 17.050782l2.625-.992188c17.804688-6.238281 34.332031-15.648437 48.777344-27.785156 20.703125-15.625 40.269531-30.398438 80-30.398438 39.726562 0 59.277344 14.757813 80 30.398438 21.902344 16.527344 44.542968 33.601562 89.597656 33.601562 45.058594 0 67.730469-17.082031 89.601562-33.601562 19.640626-14.832031 38.191407-28.800781 73.597657-30.238281v-16h-.320313c-40.703125 1.621093-62.148437 17.804687-82.878906 33.4375zm0 0"/><path d="m59.464844 118.53125c20.703125-15.625 40.269531-30.398438 80-30.398438 39.726562 0 59.277344 14.757813 80 30.398438 21.902344 16.527344 44.542968 33.601562 89.597656 33.601562 45.058594 0 67.695312-17.082031 89.601562-33.601562 17.71875-13.359375 34.464844-25.992188 63.566407-29.441406h2.265625c-1.964844-5.285156-4.285156-10.433594-6.953125-15.40625-31.609375 4.433594-50.398438 18.398437-68.511719 32.070312-20.71875 15.617188-40.289062 30.402344-80 30.402344s-59.28125-14.761719-80-30.402344c-21.847656-16.535156-44.488281-33.621094-89.566406-33.621094-45.082032 0-67.722656 17.085938-89.601563 33.597657-11.941406 9.953125-25.355469 17.996093-39.761719 23.839843-.292968 4.386719-.558593 10.144532-.796874 17.167969l1.335937-.414062c17.820313-6.234375 34.363281-15.648438 48.824219-27.792969zm0 0"/><path d="m309.0625 40.132812c25.820312.722657 51.207031-6.726562 72.542969-21.28125l7.761719-3.640624c-7.492188-2.636719-15.222657-4.550782-23.078126-5.710938-17.335937 10.121094-37.160156 15.1875-57.226562 14.632812-15.53125.292969-30.957031-2.644531-45.296875-8.625-8.597656 1.441407-17.167969 3.105469-25.710937 4.894532l8.578124 4.570312c19.113282 10.453125 40.648438 15.683594 62.429688 15.160156zm0 0"/><path d="m465.632812 296.796875c-22.449218 2.703125-43.125 13.550781-58.105468 30.488281 4.808594 2.625 9.4375 5.566406 13.863281 8.796875 12.152344-12.941406 28.453125-21.21875 46.074219-23.398437 1.726562-.191406 3.445312-.335938 4.796875-.390625v-16h-.328125c-2.070313.085937-4.175782.261719-6.300782.503906zm0 0"/><path d="m146.144531 296.378906c-2.226562-.160156-4.457031-.246094-6.679687-.246094-45.074219 0-67.722656 17.085938-89.601563 33.597657-12.464843 10.449219-26.589843 18.746093-41.785156 24.546875v16.949218l2.570313-.910156c17.816406-6.230468 34.359374-15.644531 48.816406-27.785156 20.703125-15.625 40.269531-30.398438 80-30.398438 1.832031 0 3.671875.070313 5.511718.199219 18.988282 1.484375 36.933594 9.300781 50.949219 22.199219 5.957031-1.601562 11.9375-3.152344 17.9375-4.65625-17.429687-19.453125-41.679687-31.449219-67.71875-33.496094zm0 0"/></g><path d="m472.261719 440.132812h-166.664063l-32 32h198.664063zm0 0" fill="#39475c"/><path d="m348.261719.132812c-55.648438.742188-110.921875 9.300782-164.191407 25.421876l-11.398437 3.25c-46.527344 13.230468-94.632813 26.925781-136.664063 48.925781-16.164062 8.675781-28.011718 23.664062-32.71875 41.394531-3.2499995 12.445312-3.59375 121.046875-3.113281 280.277344.085938 18.664062.085938 33.082031.085938 40.730468v32c0 4.417969 3.582031 8 8 8h464c4.417969 0 8-3.582031 8-8v-339.839843c.035156-72.945313-59.054688-132.109375-132-132.160157zm62.65625 34.335938c-7.878907 4.800781-15.007813 10.101562-21.902344 15.3125-20.6875 15.605469-40.242187 30.351562-79.953125 30.351562s-59.328125-14.777343-80.054688-30.402343c-6.402343-4.800781-13.039062-9.726563-20.25-14.269531 13.792969-3.5625 27.261719-6.617188 40.410157-9.160157 18.496093 9.542969 39.085937 14.300781 59.894531 13.832031 24.859375.699219 49.339844-6.203124 70.167969-19.785156 11.21875 3.074219 21.902343 7.835938 31.6875 14.121094zm-58.398438-18.199219c-13.828125 5.445313-28.59375 8.121094-43.457031 7.863281-9.546875.066407-19.070312-.964843-28.382812-3.074218 22.386718-3.199219 44.96875-4.84375 67.582031-4.925782 1.433593 0 2.839843.078126 4.265625.136719zm-309.054687 75.660157c40.566406-21.261719 87.871094-34.71875 133.597656-47.742188l9.433594-2.6875c11.710937 5.742188 22.738281 12.777344 32.878906 20.984375 21.914062 16.542969 44.585938 33.648437 89.6875 33.648437 45.105469 0 67.703125-17.074218 89.601562-33.601562 8.242188-6.515625 16.96875-12.398438 26.101563-17.601562 8.265625 7.269531 15.460937 15.671874 21.371094 24.953124 1.0625 1.671876 2.03125 3.394532 3 5.113282-22.199219 5.285156-42.800781 15.828125-60.074219 30.734375-20.71875 15.617187-40.289062 30.402343-80 30.402343s-59.28125-14.761718-80-30.402343c-21.878906-16.511719-44.519531-33.597657-89.597656-33.597657-45.082032 0-67.722656 17.085938-89.601563 33.597657-9.753906 7.914062-20.320312 14.765625-31.519531 20.449219.085938-1.003907.226562-2.003907.421875-2.992188 3.550781-13.386719 12.492187-24.703125 24.699219-31.257812zm110.191406 340.203124c-13.699219-1.324218-26.246094-8.25-34.664062-19.136718l-2.527344-3.199219c-7.59375-11.839844-18.519532-21.164063-31.402344-26.800781-3.324219-1.132813-6.738281-1.984375-10.207031-2.542969 7.433593-2.777344 14.910156-5.320313 22.105469-7.746094l3.476562-1.175781c14.605469-2.835938 29.722656-1.25 43.417969 4.558594 10.0625 5.59375 18.394531 13.84375 24.085937 23.851562 1.808594 2.535156 3.617188 5.085938 5.515625 7.597656 7.574219 10.070313 17.167969 18.445313 28.167969 24.59375zm-137.59375-175.714843c15.699219-6.367188 30.335938-15.097657 43.402344-25.886719 20.703125-15.625 40.269531-30.398438 80-30.398438 39.726562 0 59.277344 14.757813 80 30.398438 21.902344 16.527344 44.542968 33.601562 89.597656 33.601562 45.058594 0 67.730469-17.082031 89.601562-33.601562 18.015626-13.601562 35.296876-26.398438 65.597657-29.527344v39.925782c-35.671875 3.265624-55.855469 18.1875-75.199219 32.800781-20.695312 15.625-40.253906 30.402343-80 30.402343-39.742188 0-59.28125-14.761718-80-30.402343-21.878906-16.511719-44.519531-33.597657-89.597656-33.597657-45.082032 0-67.722656 17.085938-89.601563 33.597657-10.386719 8.472656-21.746093 15.675781-33.839843 21.457031-.015626-12.847656 0-25.886719.039062-38.769531zm443.464844 108.800781c-8.585938-13.457031-19.53125-25.253906-32.3125-34.816406 10.550781-8.984375 23.367187-14.898438 37.046875-17.09375v48.757812c-1.628907.96875-3.210938 2.019532-4.734375 3.144532zm4.734375-68.214844c-19.09375 2.566406-36.894531 11.078125-50.878907 24.328125-13.515624-7.667969-28.289062-12.871093-43.625-15.375 10.132813-5.703125 19.796876-12.199219 28.90625-19.425781 18.015626-13.601562 35.296876-26.398438 65.597657-29.527344zm-117.597657 23.128906c-3.136718 14.035157-7.84375 27.675782-14.039062 40.65625-5.027344 9.742188-11.617188 15.34375-18.144531 15.34375h-.074219c-6.710938 0-13.597656-5.671874-18.816406-15.546874-4.363282-9.066407-7.792969-18.550782-10.238282-28.308594-.695312-2.601563-1.472656-5.105469-2.304687-7.578125 21.085937-2.902344 42.335937-4.425781 63.617187-4.566407zm-330.664062-7.6875c15.722656-6.371093 30.382812-15.109374 43.464844-25.914062 20.703125-15.625 40.269531-30.398438 80-30.398438 39.726562 0 59.277344 14.757813 80 30.398438 12.582031 10.382812 26.59375 18.910156 41.597656 25.3125-17.4375 2.945312-35.3125 6.679688-53.792969 11.359375-16.757812-15.613281-38.320312-25.070313-61.160156-26.824219-2.222656-.160156-4.453125-.246094-6.679687-.246094-45.070313 0-67.71875 17.085938-89.597657 33.597657-10.371093 8.460937-21.714843 15.660156-33.785156 21.441406-.023437-12.175781-.039063-25.230469-.046875-38.726563zm4.800781 78.6875c-1.648437 1.386719-3.199219 2.878907-4.648437 4.472657 0-7.945313-.058594-17.082031-.082032-27.203125 15.695313-6.367188 30.328126-15.089844 43.394532-25.871094 20.703125-15.625 40.269531-30.398438 80-30.398438 1.832031 0 3.671875.070313 5.511718.199219 15.636719 1.203125 30.628907 6.746094 43.292969 16-1.527343.421875-3.015625.800781-4.542969 1.230469l-11.496093 3.273438c-23.734375 6.75-48.28125 13.734374-72.136719 21.894531l-8.246094 2.800781c-24.082031 8.089844-51.375 17.28125-71.03125 33.601562zm155.804688-42.921874 11.503906-3.269532c4.800781-1.386718 9.5625-2.617187 14.304687-3.882812 8.601563 9.621094 15.136719 20.90625 19.199219 33.152344l3.203125 9.601562c5.804688 19.257812 17.890625 36.015625 34.335938 47.597656-27.6875-2.183594-54.554688-9.199218-72.9375-33.527344-1.792969-2.398437-3.519532-4.800781-5.230469-7.199218-7.273437-12.375-17.855469-22.472656-30.5625-29.152344-2.796875-1.230469-5.660156-2.300781-8.582031-3.199219 11.648437-3.535156 23.3125-6.863281 34.765625-10.121093zm-145.597657 55.199218c2.976563-2.417968 6.101563-4.652344 9.359376-6.679687 13.058593-2.417969 26.488281-1.976563 39.359374 1.296875 9.921876 4.71875 18.28125 12.191406 24.074219 21.527344l2.597657 3.320312c2.6875 3.359375 5.683593 6.460938 8.953124 9.257812h-98.046874c.71875-10.972656 5.640624-21.246093 13.734374-28.6875zm209.039063-24.460937-3.289063-9.832031c-3.894531-11.695313-9.71875-22.65625-17.222656-32.433594 16.207032-3.902344 31.988282-7.105469 47.34375-9.601563 1.105469 3.035157 2.128906 6.113281 2.992188 9.378907 2.746094 10.898437 6.613281 21.484374 11.535156 31.589843 8.167969 15.28125 20.167969 24.082031 33 24.082031h.183594c12.679687-.089843 24.425781-8.800781 32.203125-23.960937 7.167969-15.027344 12.566406-30.835937 16.078125-47.113281 13.804687 1.746094 27.179687 5.976562 39.480468 12.480468-7.0625 9.355469-12.433593 19.878907-15.863281 31.089844l-5.273437 17.207032c-10.351563 30.582031-39.332032 50.929687-71.613282 50.277343-32.28125-.652343-60.417968-22.15625-69.523437-53.132812zm156.359375 7.757812 5.34375-17.421875c3.082031-9.878906 7.964844-19.101562 14.402344-27.203125 11.894531 8.628907 22.046875 19.433594 29.917968 31.839844.65625 1.027344 1.234376 2.089844 1.855469 3.136719-2.097656 2.757812-3.9375 5.707031-5.496093 8.800781l-10.964844 22.046875c-7.390625 14.878906-22.589844 24.273438-39.203125 24.226562h-30.023438c15.992188-11.050781 27.988281-26.972656 34.199219-45.394531zm49.304688 28.328125 10.550781-21.039062c4.773437 12.175781 7.453125 25.066406 7.929687 38.136718h-31.390625c5.296875-4.871093 9.683594-10.648437 12.941407-17.066406zm18.550781-230.105468c-35.671875 3.265624-55.855469 18.1875-75.199219 32.800781-20.695312 15.625-40.253906 30.402343-80 30.402343-39.742188 0-59.28125-14.761718-80-30.402343-21.878906-16.511719-44.519531-33.597657-89.597656-33.597657-45.082032 0-67.722656 17.085938-89.601563 33.597657-10.355469 8.441406-21.671875 15.625-33.71875 21.402343.0625-13.496093.144531-26.578124.261719-38.832031 15.570312-6.371093 30.085938-15.058593 43.058594-25.769531 20.703125-15.625 40.269531-30.398438 80-30.398438 39.726562 0 59.277344 14.757813 80 30.398438 21.902344 16.527344 44.542968 33.601562 89.597656 33.601562 45.058594 0 67.730469-17.082031 89.601562-33.601562 18.015626-13.601562 35.296876-26.398438 65.597657-29.527344zm-75.199219-23.199219c-20.695312 15.625-40.253906 30.402343-80 30.402343-39.742188 0-59.28125-14.761718-80-30.402343-21.878906-16.511719-44.519531-33.597657-89.597656-33.597657-45.082032 0-67.722656 17.085938-89.601563 33.597657-10.234375 8.332031-21.398437 15.449219-33.273437 21.210937.203125-15.386718.464844-28.746094.800781-38.992187 15.1875-6.378907 29.363281-14.941407 42.074219-25.417969 20.703125-15.625 40.269531-30.398438 80-30.398438 39.726562 0 59.277344 14.757813 80 30.398438 21.902344 16.527344 44.542968 33.601562 89.597656 33.601562 45.058594 0 67.695312-17.082031 89.601562-33.601562 16.390626-14.34375 36.246094-24.152344 57.597657-28.457031 4.839843 12.421875 7.5 25.582031 7.867187 38.90625-35.578125 3.277343-55.738281 18.183593-75.066406 32.75zm75.199219 302.402343h-448v-16h137.015625c4.621094.539063 9.265625.804688 13.914062.796876 5.75 0 11.558594-.335938 17.335938-.796876h279.734375zm0 0"/></svg>