<svg height="480pt" viewBox="0 -48 480.00004 480" width="480pt" xmlns="http://www.w3.org/2000/svg"><path d="m288 8h-104c-35.347656 0-64 28.652344-64 64v56c0 35.347656 28.652344 64 64 64h76c24.300781 0 44 19.699219 44 44s-19.699219 44-44 44h-52v96h80c101.621094 0 184-82.378906 184-184s-82.378906-184-184-184zm0 0" fill="#ffb531"/><path d="m168 32h64v16h-64zm0 0" fill="#ffcb73"/><path d="m288 352h-48v-16h48c2.542969 0 5.0625-.070312 7.574219-.199219l.851562 16c-2.785156.128907-5.601562.199219-8.425781.199219zm0 0" fill="#ffcb73"/><path d="m346.960938 340.753906-5.921876-14.882812c36.859376-14.734375 66.066407-43.9375 80.800782-80.800782l14.863281 5.90625c-16.363281 40.949219-48.800781 73.398438-89.742187 89.777344zm0 0" fill="#ffcb73"/><path d="m447.785156 200.417969-16-.800781c.125-2.503907.191406-5.050782.191406-7.585938.054688-29.890625-9.265624-59.042969-26.648437-83.359375l13.070313-9.3125c19.316406 27.023437 29.671874 59.425781 29.601562 92.640625 0 2.824219-.070312 5.601562-.214844 8.417969zm0 0" fill="#ffcb73"/><path d="m371.351562 74.648438c-24.308593-17.390626-53.464843-26.710938-83.351562-26.648438h-8v-16h8c33.21875-.066406 65.621094 10.285156 92.648438 29.601562zm0 0" fill="#ffcb73"/><path d="m208 376h-144.800781c-30.484375 0-55.199219-24.714844-55.199219-55.199219-.003906-17.277343 8.078125-33.558593 21.839844-43.996093 13.765625-10.441407 31.621094-13.835938 48.257812-9.171876l129.902344 36.367188zm0 0" fill="#f27900"/><g fill="#f98500"><path d="m208 304h-155.265625c-24.707031.003906-44.738281-20.027344-44.734375-44.734375 0-28.3125 22.953125-51.265625 51.265625-51.265625 8.363281 0 16.605469 2.046875 24 5.960938l124.734375 66.039062zm0 0"/><path d="m88 376h120v-56zm0 0"/><path d="m264 8h-16v184h16zm0 0"/><path d="m280.511719 274.910156 48.289062 96.507813c5.332031-1.207031 10.582031-2.640625 15.742188-4.296875l-51.199219-102.402344c-3.601562 4.171875-7.953125 7.628906-12.832031 10.191406zm0 0"/><path d="m299.199219 216c2.558593 4.988281 4.132812 10.417969 4.640625 16h163.753906c1.160156-5.253906 2.09375-10.585938 2.796875-16zm0 0"/><path d="m412.566406 56.617188-133.125 139.949218c4.851563 2.40625 9.226563 5.679688 12.894532 9.664063l131.542968-138.285157c-3.597656-3.945312-7.382812-7.714843-11.3125-11.328124zm0 0"/></g><path d="m288 0h-104c-39.746094.0429688-71.957031 32.253906-72 72v56c.042969 39.746094 32.253906 71.957031 72 72h76c19.882812 0 36 16.117188 36 36s-16.117188 36-36 36h-50.015625l-122.984375-65.113281c-18.371094-9.722657-40.492188-9.113281-58.296875 1.609375-17.808594 10.71875-28.69921875 29.984375-28.703125 50.769531-.0117188 10.480469 3.117188 20.726563 8.984375 29.414063-5.859375 9.691406-8.96875 20.796874-8.984375 32.121093.0390625 34.886719 28.3125 63.160157 63.199219 63.199219h224.800781c106.039062 0 192-85.960938 192-192s-85.960938-192-192-192zm0 16c43.964844-.035156 86.332031 16.453125 118.710938 46.191406l-121.0625 128.632813c-6.636719-3.785157-14.03125-6.046875-21.648438-6.625v-168.199219zm-160 112v-56c.035156-30.914062 25.085938-55.964844 56-56h64v168h-64c-30.914062-.035156-55.964844-25.085938-56-56zm-68.734375 88c7.054687.007812 14.003906 1.734375 20.246094 5.03125l120.488281 63.769531v11.199219h-147.265625c-20.273437-.035156-36.699219-16.460938-36.734375-36.734375.027344-23.882813 19.382812-43.238281 43.265625-43.265625zm-43.265625 104.800781c.011719-6.882812 1.546875-13.679687 4.496094-19.898437 9.207031 7.191406 20.554687 11.097656 32.238281 11.097656h147.265625v2.902344l-113.777344 53.097656h-23.023437c-26.054688-.027344-47.171875-21.144531-47.199219-47.199219zm184 11.757813v35.441406h-75.945312zm16 35.441406v-80h44c8.390625 0 16.65625-2.042969 24.078125-5.953125l40.992187 81.992187c-12.179687 2.628907-24.609374 3.953126-37.070312 3.960938zm124.878906-8.128906-43.757812-87.527344c9.539062-9.691406 14.886718-22.746094 14.878906-36.34375 0-1.351562-.105469-2.671875-.199219-4h147.558594c-14.246094 60.5-59.242187 109.058594-118.480469 127.871094zm121.441406-143.871094h-154.320312c-2.351562-5.597656-5.667969-10.742188-9.792969-15.199219l119.824219-127.28125c35.265625 38.515625 51.503906 90.757813 44.289062 142.480469zm0 0"/><path d="m168 32h64v16h-64zm0 0"/><path d="m295.574219 335.800781c-2.511719.128907-5.03125.199219-7.574219.199219h-48v16h48c2.824219 0 5.601562-.070312 8.425781-.214844zm0 0"/><path d="m421.878906 245.046875c-14.734375 36.859375-43.9375 66.066406-80.800781 80.800781l5.921875 14.878906c40.941406-16.378906 73.378906-48.824218 89.742188-89.773437zm0 0"/><path d="m405.351562 108.640625c17.382813 24.316406 26.703126 53.46875 26.648438 83.359375 0 2.535156-.0625 5.078125-.191406 7.585938l16 .796874c.144531-2.789062.214844-5.597656.214844-8.414062.070312-33.21875-10.28125-65.617188-29.597657-92.640625zm0 0"/><path d="m371.351562 74.648438 9.296876-13.046876c-27.027344-19.316406-59.429688-29.667968-92.648438-29.601562h-8v16h8c29.886719-.0625 59.042969 9.257812 83.351562 26.648438zm0 0"/></svg>