<svg height="480pt" viewBox="0 0 480 480.02961" width="480pt" xmlns="http://www.w3.org/2000/svg"><path d="m331.453125 330.960938c3.015625-3.503907 5.242187-7.613282 6.519531-12.058594 21.085938-47.441406 27.246094-100.171875 17.664063-151.199219l-30.289063 29.671875c3.484375-29.128906 2.199219-58.632812-3.800781-87.351562l-28.503906 22.839843c-4.578125-27.710937-14.167969-54.351562-28.300781-78.625l-22.402344 28.851563c-12.605469-24.332032-29.757813-46.023438-50.535156-63.890625l-14.503907 32.625c-20.082031-18.773438-43.492187-33.632813-69.023437-43.824219l-5.503906 33.847656c-25.871094-11.617187-53.515626-18.78125-81.769532-21.191406l-.335937-.34375c2.40625 28.300781 9.554687 55.996094 21.144531 81.925781l-33.777344 5.511719c10.15625 25.574219 24.988282 49.023438 43.746094 69.152344l-32.546875 14.546875c17.824219 20.796875 39.472656 37.984375 63.769531 50.628906l-28.800781 22.441406c24.210937 14.160157 50.804687 23.773438 78.472656 28.359375l-22.800781 28.5625c28.667969 6.007813 58.121094 7.292969 87.203125 3.796875l-29.601563 30.355469c50.929688 9.601562 103.578126 3.425781 150.902344-17.699219 4.425782-1.289062 8.519532-3.515625 12-6.535156zm0 0" fill="#5f9548"/><path d="m337.484375 326.398438-66.398437-66.527344c28.703124-57.6875 21.980468-103.566406 21.664062-105.550782l-15.800781 2.488282c2.394531 31.425781-3.753907 62.917968-17.792969 91.136718l-35-35.074218c16.085938-30.804688 21.582031-66.054688 15.640625-100.296875l-15.578125 3.683593c4.683594 28.789063.496094 58.320313-12 84.679688l-35.382812-35.511719c9.703124-26.019531 13.226562-53.933593 10.296874-81.546875l-15.832031 2.273438c2.234375 22.488281-.136719 45.195312-6.976562 66.734375l-34.488281-34.488281c5.714843-16.234376 7.726562-33.542969 5.886718-50.65625l-15.839844 2.265624c1.195313 11.941407.242188 23.996094-2.816406 35.601563l-43.773437-43.890625-11.328125 11.296875 43.800781 43.886719c-11.589844 3.046875-23.628906 4.007812-35.554687 2.839844l-1.109376 7.921874-1.136718 7.917969c3.925781.484375 7.878906.707031 11.832031.675781 13.183594.03125 26.273437-2.203124 38.703125-6.601562l34.488281 34.558594c-21.5 6.828125-44.167969 9.207031-66.617187 6.992187l-2.261719 15.847657c6.085937.75 12.210937 1.101562 18.34375 1.050781 21.519531.042969 42.867187-3.816407 63.007813-11.394531l35.488281 35.5625c-26.292969 12.515624-55.777344 16.703124-84.511719 12l-3.695312 15.566406c8.46875 1.730468 17.105468 2.535156 25.75 2.398437 25.855468-.117187 51.320312-6.308593 74.34375-18.070312l35.039062 35.113281c-28.140625 14.058594-59.570312 20.21875-90.933594 17.824219l-2.503906 15.796875c5.078125.691406 10.203125 1.003906 15.328125.9375 31.324219-.554688 62.105469-8.300782 89.964844-22.640625l66.402343 66.550781zm0 0" fill="#43752e"/><path d="m271.003906 380.054688c-30.867187-9.46875-53.253906-36.238282-57.113281-68.292969l-13.230469-116.9375c-1.605468-14.175781-.105468-28.535157 4.398438-42.074219 18.574218-53.417969 76.429687-82.203125 130.242187-64.796875l59.304688 18.710937c25.8125 7.753907 47.414062 25.574219 59.933593 49.441407 12.515626 23.867187 14.898438 51.773437 6.601563 77.414062-4.535156 13.621094-11.949219 26.105469-21.738281 36.609375l-81.054688 87.199219c-22.316406 23.75-56.28125 32.585937-87.34375 22.726563zm0 0" fill="#e94f4f"/><path d="m213.378906 307.296875.503906 4.464844c3.859376 32.054687 26.246094 58.824219 57.113282 68.292969 31.066406 9.863281 65.03125 1.023437 87.351562-22.726563l81.054688-87.199219c9.789062-10.503906 17.203125-22.988281 21.738281-36.609375 8.445313-25.308593 6.214844-52.960937-6.167969-76.589843-61.839844 95.117187-170.472656 134.398437-241.59375 150.367187zm0 0" fill="#e04646"/><path d="m419.828125 159.199219c18.515625 6.117187 38.523437-3.679688 45.046875-22.054688l-57.640625-18.207031 64.800781-31.738281c-10.027344-18.175781-32.554687-25.285157-51.199218-16.152344l-56.3125 27.570313-29.0625-54.503907c-10.027344-18.179687-32.554688-25.292969-51.199219-16.160156l33.445312 62.75-57.671875-18.191406c-2.800781 8.855469-1.921875 18.46875 2.441406 26.671875 4.367188 8.199218 11.847657 14.296875 20.757813 16.921875l25.601563 8.078125-67.574219 33.082031c10.027343 18.175781 32.554687 25.28125 51.199219 16.148437l56.375-27.566406 29.046874 54.496094c10.027344 18.175781 32.558594 25.285156 51.203126 16.152344l-34.859376-65.390625zm0 0" fill="#68a34f"/><path d="m364.253906 124.75-15.203125-5.046875 11.050781-33.261719c9.625-28.898437 30.453126-52.722656 57.808594-66.121094l5.253906-2.609374 7.128907 14.328124-5.257813 2.609376c-23.527344 11.511718-41.445312 31.992187-49.726562 56.839843zm0 0" fill="#68a34f"/><g fill="#f26666"><path d="m307.613281 244.457031 8.292969-24.953125 15.191406 5.046875-8.292968 24.953125zm0 0"/><path d="m256.40625 228.300781 8.292969-24.953125 15.191406 5.046875-8.292969 24.957031zm0 0"/><path d="m358.828125 260.613281 8.289063-24.949219 15.191406 5.050782-8.289063 24.945312zm0 0"/><path d="m316.644531 302.441406 8.292969-24.957031 15.191406 5.050781-8.292968 24.953125zm0 0"/><path d="m265.429688 286.285156 8.292968-24.953125 15.191406 5.046875-8.292968 24.953125zm0 0"/><path d="m274.464844 344.261719 8.289062-24.953125 15.191406 5.046875-8.289062 24.957031zm0 0"/><path d="m223.53125 395-.742188-.753906"/><path d="m220.554688 392.214844 3.464843 1.9375-.984375-1.402344"/></g><path d="m280.546875 265.734375c-12.910156-34.105469-43.117187-58.667969-79.144531-64.351563l12.480468 110.402344c3.859376 32.054688 26.246094 58.824219 57.113282 68.292969 17.121094 5.335937 35.488281 5.125 52.480468-.597656-.289062-.839844-.441406-1.695313-.753906-2.527344zm0 0" fill="#e04646"/><path d="m272.035156 448c-22.816406 22.816406-56.894531 30.128906-87.0625 18.679688l-111.199218-42.167969c-13.472657-5.109375-25.707032-13.015625-35.898438-23.199219-39.75-39.769531-39.75-104.230469 0-144l43.410156-43.410156c39.773438-39.777344 104.265625-39.777344 144.039063 0 10.183593 10.191406 18.09375 22.425781 23.199219 35.898437l42.167968 111.199219c11.425782 30.144531 4.125 64.191406-18.65625 87zm0 0" fill="#e94f4f"/><path d="m224.597656 386-10.402344-27.441406 35.921876 15.519531 6.320312-14.636719-50.160156-21.679687-9.839844-26.035157 34.640625-12.460937-5.601563-14.984375-34.703124 12.519531-7.695313-20.402343 20.957031-36.878907-14-7.917969-17.117187 30.238282c-8.71875-7.152344-20.632813-9.023438-31.121094-4.878906l-12.160156-36.480469-15.199219 5.121093 13.757812 41.277344-36.558593 36.5625-42.160157-13.042968-4.800781 15.28125 36.640625 11.28125c-4.648437 10.863281-2.726562 23.421874 4.960938 32.398437l-30.5625 16.640625 7.679687 14 38-20.640625 20.242188 7.679687-13.28125 34.320313 14.878906 5.761719 13.363281-34.402344 26.824219 10.167969 20 49.371093 14.8125-6.050781-14.34375-35.574219 26.144531 9.925782c1.386719.492187 2.851563.710937 4.320313.640625l26.960937 27.441406 11.441406-11.28125-27.441406-27.839844c-.078125-1.199219-.320312-2.386719-.71875-3.519531zm0 0" fill="#f26666"/><path d="m1.058594 103.832031c-1.195313 2.125-1.355469 4.675781-.4375 6.9375 9.179687 22.980469 21.976562 44.347657 37.902344 63.285157l-22.550782 10.082031c-2.296875 1.027343-3.976562 3.074219-4.535156 5.527343-.558594 2.453126.070312 5.023438 1.695312 6.945313 9.003907 10.613281 19.023438 20.324219 29.917969 28.992187l9.96875-12.53125c-7.269531-5.777343-14.121093-12.0625-20.503906-18.804687l22.542969-10.082031c2.371094-1.058594 4.078125-3.195313 4.585937-5.738282.507813-2.546874-.25-5.175781-2.03125-7.0625-15.808593-16.890624-28.707031-36.28125-38.183593-57.382812l23.65625-3.855469c2.457031-.402343 4.585937-1.925781 5.757812-4.121093 1.175781-2.195313 1.261719-4.8125.234375-7.078126-9.871094-21.996093-16.382813-45.347656-19.3125-69.273437 24.050781 2.90625 47.519531 9.460937 69.597656 19.441406 2.269531 1.050781 4.902344.976563 7.113281-.195312 2.207032-1.171875 3.742188-3.3125 4.144532-5.78125l3.871094-23.738281c21.074218 9.511718 40.433593 22.4375 57.296874 38.257812 1.886719 1.78125 4.519532 2.535156 7.0625 2.023438 2.542969-.507813 4.683594-2.222657 5.738282-4.589844l10-22.554688c11.65625 11.136719 21.957031 23.605469 30.695312 37.152344l13.472656-8.6875c-11.53125-17.894531-25.59375-34.019531-41.753906-47.871094-1.925781-1.644531-4.515625-2.28125-6.980468-1.714844-2.46875.566407-4.523438 2.269532-5.539063 4.585938l-10.046875 22.542969c-18.898438-15.953125-40.238281-28.769531-63.203125-37.960938-2.253906-.910156-4.800781-.746093-6.921875.445313-2.117188 1.191406-3.582031 3.285156-3.972656 5.683594l-3.824219 23.6875c-23.359375-9.304688-47.929687-15.230469-72.96875-17.597657-2.589844-1-5.519531-.585937-7.730469 1.101563-2.207031 1.683594-3.386718 4.394531-3.109375 7.160156 2.242188 25.707031 8.214844 50.953125 17.730469 74.9375l-23.65625 3.855469c-2.410156.390625-4.515625 1.851562-5.722656 3.976562zm0 0"/><path d="m417.300781 63.839844-38.601562 18.902344c9.335937-20.964844 25.734375-37.984376 46.335937-48.09375l5.257813-2.609376-7.128907-14.328124-5.253906 2.609374c-24.792968 12.199219-44.289062 33.011719-54.851562 58.542969l-20.535156-38.519531c-12.117188-21.917969-39.273438-30.507812-61.792969-19.542969-1.949219.953125-3.425781 2.65625-4.09375 4.722657-.667969 2.066406-.46875 4.3125.550781 6.226562l23.199219 43.515625c-1.535157.039063-3.0625.0625-4.605469.167969l-33.34375-10.5625c-4.171875-1.316406-8.625.960937-10 5.113281-1.914062 5.890625-2.460938 12.136719-1.601562 18.273437-30.5625 15.476563-51.878907 44.640626-57.34375 78.460938l15.785156 2.5625c4.546875-27.953125 21.796875-52.21875 46.703125-65.699219 5.421875 9.632813 14.308593 16.839844 24.855469 20.152344l6.527343 2.058594-49.597656 24.285156c-1.949219.957031-3.425781 2.664063-4.09375 4.726563-.667969 2.066406-.464844 4.3125.554687 6.226562 12.101563 21.945312 39.28125 30.554688 61.808594 19.578125l49.367188-24.167969 25.417968 47.671875c12.109376 21.921875 39.261719 30.523438 61.785157 19.574219 1.949219-.953125 3.425781-2.65625 4.09375-4.722656.671875-2.066406.46875-4.3125-.550781-6.230469l-25.601563-48.109375 6.929687 2.191406c10.699219 3.382813 22.277344 2.625 32.449219-2.121094 9.554688 20.835938 10.882813 44.515626 3.710938 66.289063-4.175781 12.554687-11.011719 24.0625-20.039063 33.734375l-81.035156 87.203125c-9.410156 10.070313-21.390625 17.382813-34.652344 21.140625l4.382813 15.394531c16.0625-4.554687 30.578125-13.40625 41.984375-25.601562l81.03125-87.199219c10.585937-11.34375 18.601562-24.839844 23.503906-39.558594 8.765625-26.644531 6.707031-55.664062-5.734375-80.800781 4.269531-4.445313 7.5-9.78125 9.453125-15.625.675781-2.035156.507812-4.253906-.464844-6.160156-.976562-1.910157-2.675781-3.347657-4.71875-3.992188l-33.121094-10.449219c-1.167968-.949218-2.34375-1.804687-3.519531-2.6875l44.839844-21.984374c1.953125-.953126 3.429687-2.65625 4.097656-4.722657.667969-2.066406.46875-4.3125-.550781-6.226562-12.097656-21.941407-39.261719-30.5625-61.792969-19.609375zm-13.601562 47.902344c-2.9375 1.4375-4.707031 4.519531-4.464844 7.785156.246094 3.261718 2.449219 6.046875 5.570313 7.03125l48.679687 15.351562c-7.335937 9.457032-19.816406 13.296875-31.199219 9.601563l-25.601562-8.070313c-3.097656-.976562-6.480469.015625-8.554688 2.515625-2.078125 2.5-2.4375 6.007813-.910156 8.875l30.402344 57.078125c-13.066406 2.488282-26.25-3.714844-32.664063-15.367187l-29.046875-54.488281c-2.027344-3.804688-6.707031-5.316407-10.578125-3.421876l-56.304687 27.566407c-11.941406 5.804687-26.25 3.410156-35.65625-5.960938l59.050781-28.902343c2.941406-1.4375 4.714844-4.523438 4.46875-7.789063-.242187-3.265625-2.457031-6.054687-5.582031-7.035156l-25.601563-8.070313c-7.132812-2.179687-13.085937-7.144531-16.511719-13.769531-1.882812-3.65625-2.855468-7.710937-2.839843-11.824219l48.976562 15.457032c3.101563.976562 6.488281-.015626 8.5625-2.519532 2.078125-2.503906 2.433594-6.011718.902344-8.882812l-29.007813-54.398438c13.0625-2.472656 26.238282 3.726563 32.664063 15.367188l27.429687 51.464844-6.765624 20.367187 15.199218 5.046875 6.792969-20.4375 53.292969-26.097656c11.941406-5.796875 26.246094-3.40625 35.648437 5.960937zm0 0"/><path d="m307.613281 244.457031 8.292969-24.953125 15.191406 5.046875-8.292968 24.953125zm0 0"/><path d="m256.410156 228.300781 8.289063-24.953125 15.191406 5.046875-8.289063 24.953125zm0 0"/><path d="m358.832031 260.605469 8.289063-24.945313 15.191406 5.046875-8.289062 24.945313zm0 0"/><path d="m316.644531 302.441406 8.292969-24.957031 15.191406 5.050781-8.292968 24.953125zm0 0"/><path d="m292.035156 341.945312 5.882813-17.601562-14.402344-4.800781-11.832031-31.199219 8.871094 2.953125 8.355468-24.898437-15.203125-5.046876-5.710937 17.199219-11.960938-31.664062c-10.632812-28.09375-32.347656-50.585938-60.054687-62.199219l-19.199219-19.199219c9.714844-26.03125 13.246094-53.96875 10.3125-81.601562l-15.832031 2.273437c2.234375 22.5-.140625 45.21875-6.984375 66.769532l-34.449219-34.53125c5.71875-16.238282 7.734375-33.550782 5.894531-50.671876l-15.839844 2.265626c1.195313 11.941406.238282 24.003906-2.824218 35.609374l-43.757813-43.875-11.328125 11.28125 43.785156 43.894532c-11.585937 3.046875-23.621093 4.007812-35.546874 2.839844l-1.109376 7.921874-1.136718 7.917969c3.925781.484375 7.878906.707031 11.832031.675781 13.175781.03125 26.261719-2.199218 38.6875-6.59375l34.472656 34.566407c-21.492187 6.820312-44.148437 9.191406-66.585937 6.976562l-2.261719 15.847657c6.085937.75 12.210937 1.101562 18.34375 1.050781h.839844c-10.21875 5.203125-19.558594 11.976562-27.671875 20.078125l-43.410156 43.398437c-26.371094 26.359375-37.574219 64.292969-29.75 100.75 7.824218 36.457031 33.605468 66.453125 68.472656 79.667969l111.199218 42.175781c33.117188 12.566407 70.527344 4.539063 95.570313-20.511719 25.042969-25.050781 33.0625-62.460937 20.484375-95.574218zm-126.605468-165.21875.054687.066407h-.152344zm100.933593 265.601563c-20.605469 20.566406-51.34375 27.164063-78.574219 16.871094l-111.199218-42.167969c-29.78125-11.296875-51.800782-36.925781-58.484375-68.070312-6.679688-31.140626 2.890625-63.546876 25.417969-86.066407l43.410156-43.40625c22.515625-22.519531 54.917968-32.085937 86.054687-25.402343 31.136719 6.679687 56.761719 28.699218 68.054688 58.472656l42.191406 111.203125c10.292969 27.226562 3.695313 57.960937-16.871094 78.566406zm0 0"/><path d="m256.324219 359.351562-39.433594-16.273437-12.6875-33.476563 26.953125-10.402343-5.753906-14.933594-26.878906 10.398437-8.605469-22.664062c-.613281-1.417969-1.304688-2.796875-2.082031-4.128906l16.152343-28.34375-13.902343-7.925782-13.21875 23.199219c-6.753907-5.207031-15.039063-8.042969-23.566407-8.074219-4.800781.019532-9.554687.925782-14.023437 2.664063l-9.601563-28.863281-15.199219 5.066406 10.925782 32.796875-42.964844 42.976563-32.800781-10.925782-5.054688 15.199219 28.855469 9.597656c-4.8125 12.628907-2.761719 26.847657 5.421875 37.601563l-23.199219 13.222656 7.921875 13.90625 28.359375-16.152344c1.324219.769532 2.695313 1.457032 4.101563 2.0625l22.714843 8.617188-10.363281 26.886718 14.929688 5.753907 10.398437-26.960938 33.449219 12.6875 16.28125 39.441407 14.792969-6.113282-10.546875-25.542968 19.535156 7.414062c4.378906 1.6875 9.226563 1.6875 13.601563 0l20.609374 20.601562 11.3125-11.3125-20.722656-20.71875c1.671875-4.324218 1.714844-9.105468.121094-13.457031l-7.40625-19.542969 25.542969 10.542969zm-43.488281 33.746094-111.199219-42.195312c-3.054688-1.152344-5.832031-2.949219-8.136719-5.261719-9.019531-9.054687-9.019531-23.699219 0-32.753906l43.417969-43.40625c4.328125-4.355469 10.222656-6.796875 16.367187-6.777344 9.621094-.003906 18.246094 5.945313 21.65625 14.945313l42.167969 111.199218c.460937 1.21875.167969 2.59375-.753906 3.511719-.929688.90625-2.300781 1.191406-3.519531.738281zm0 0"/></svg>