<svg height="482pt" viewBox="-1 0 482 482.536" width="482pt" xmlns="http://www.w3.org/2000/svg"><path d="m128.269531 90.535156h96c66.273438 0 120 53.726563 120 120 0 66.273438-53.726562 120-120 120h-96c-66.277343 0-120-53.726562-120-120 0-66.273437 53.722657-120 120-120zm0 0" fill="#e94f4f"/><path d="m305.195312 122.121094c-36 114.949218-197.878906 152.800781-270.039062 164.054687 22.75 28.082031 56.96875 44.386719 93.113281 44.359375h96c49.503907.050782 93.945313-30.332031 111.867188-76.480468 17.917969-46.148438 5.625-98.5625-30.941407-131.933594zm0 0" fill="#e04646"/><path d="m78.667969 147.792969-9.921875-12.527344c4.945312-3.917969 10.257812-7.339844 15.867187-10.226563l7.3125 14.242188c-4.6875 2.398438-9.125 5.25-13.257812 8.511719zm0 0" fill="#f26666"/><path d="m33.867188 227.992188c-5.089844-27.601563 2.15625-56.042969 19.824218-77.847657l12.433594 10.078125c-14.726562 18.164063-20.765625 41.863282-16.519531 64.855469zm0 0" fill="#f26666"/><path d="m168.429688 92.136719c-5.507813-27.578125-3.734376-56.113281 5.148437-82.792969l3.097656-9.3046875 15.199219 5.0585935-3.101562 9.300782c-8 24.019531-9.605469 49.707031-4.664063 74.539062zm0 0" fill="#51803d"/><path d="m176.269531 98.535156c-39.746093-.042968-71.957031-32.253906-72-72h16c0 30.929688 25.070313 56 56 56 30.925781 0 56-25.070312 56-56h16c-.046875 39.746094-32.253906 71.957032-72 72zm0 0" fill="#5f9548"/><path d="m176.269531 98.535156c-22.808593 0-40-30.949218-40-72h16c0 32.058594 12.671875 56 24 56s24-23.941406 24-56h16c0 41.050782-17.195312 72-40 72zm0 0" fill="#5f9548"/><path d="m256.269531 234.535156h96c66.273438 0 120 53.726563 120 120 0 66.273438-53.726562 120-120 120h-96c-66.277343 0-120-53.726562-120-120 0-66.273437 53.722657-120 120-120zm0 0" fill="#d43d3d"/><path d="m352.269531 474.535156h-96c-66.277343 0-120-53.726562-120-120-.011719-46.351562 26.675781-88.566406 68.550781-108.4375 25.253907-11.792968 54.84375-9.472656 77.953126 6.109375 13.015624 8.671875 29.972656 8.671875 42.992187 0 23.105469-15.582031 52.695313-17.902343 77.949219-6.109375 41.878906 19.871094 68.5625 62.085938 68.554687 108.4375 0 66.273438-53.726562 120-120 120zm0 0" fill="#e94f4f"/><path d="m403.714844 246.097656c-3.382813-1.589844-6.882813-2.925781-10.460938-4-8.984375 128.4375-80.984375 200.4375-168.984375 228 10.414063 2.917969 21.179688 4.410156 32 4.4375h96c56.136719.027344 104.792969-38.867187 117.125-93.632812 12.335938-54.765625-14.949219-110.765625-65.679687-134.804688zm0 0" fill="#e04646"/><path d="m288.269531 353.152344c.035157-25.835938-12.816406-49.988282-34.265625-64.390625l-.335937-.226563c-5.726563-3.890625-12.484375-5.980468-19.40625-6-4.730469-.023437-9.402344 1.023438-13.664063 3.066406-36.417968 17.679688-53.464844 60.113282-39.402344 98.070313 12.070313 31.007813 42.105469 51.277344 75.375 50.863281 8.449219-.035156 16.535157-3.429687 22.480469-9.429687 5.945313-6.003907 9.261719-14.121094 9.21875-22.570313zm0 0" fill="#f26666"/><path d="m387.941406 285.601562c-4.265625-2.042968-8.9375-3.089843-13.664062-3.066406-6.933594.019532-13.699219 2.113282-19.433594 6.007813l-.3125.21875c-21.445312 14.40625-34.296875 38.558593-34.261719 64.398437v49.375c-.046875 8.449219 3.269531 16.566406 9.214844 22.570313 5.945313 6 14.03125 9.394531 22.480469 9.429687 33.269531.414063 63.308594-19.855468 75.375-50.863281 14.066406-37.957031-2.980469-80.394531-39.398438-98.070313zm0 0" fill="#f26666"/><g fill="#ffb531"><path d="m224.269531 346.535156h24v16h-24zm0 0"/><path d="m223.113281 321.746094 6.910157-14.421875 21.699218 10.398437-6.910156 14.421875zm0 0"/><path d="m223.109375 387.324219 21.699219-10.402344 6.914062 14.417969-21.699218 10.40625zm0 0"/><path d="m360.269531 346.535156h24v16h-24zm0 0"/><path d="m356.8125 317.71875 21.699219-10.402344 6.914062 14.417969-21.699219 10.40625zm0 0"/><path d="m356.808594 391.34375 6.910156-14.421875 21.703125 10.398437-6.910156 14.421876zm0 0"/></g><path d="m16.269531 210.535156c.09375-61.816406 50.183594-111.902344 112-112h96c61.828125.066406 111.933594 50.171875 112 112h16c-.085937-70.65625-57.34375-127.914062-128-128h-2.847656c16.96875-13.636718 26.839844-34.230468 26.847656-56h-16c-.015625 18.761719-9.421875 36.265625-25.058593 46.632813 6.285156-14.726563 9.371093-30.621094 9.058593-46.632813h-16c0 26.089844-8.394531 46.792969-17.601562 53.601563-3.019531-22.105469-.929688-44.605469 6.113281-65.777344l3.101562-9.304687-15.199218-5.054688-3.09375 9.304688c-7.183594 21.644531-9.703125 44.558593-7.402344 67.246093-9.941406-14.71875-14.828125-32.273437-13.917969-50.015625h-16c-.316406 16.011719 2.769531 31.90625 9.054688 46.632813-15.636719-10.367188-25.042969-27.871094-25.054688-46.632813h-16c.003907 21.769532 9.878907 42.363282 26.847657 56h-2.847657c-70.652343.101563-127.898437 57.351563-128 128 .140625 64.050782 47.484375 118.1875 110.941407 126.863282l2.113281-15.855469c-55.519531-7.601563-96.933594-54.96875-97.054688-111.007813zm0 0"/><path d="m78.667969 147.792969c4.125-3.261719 8.554687-6.113281 13.230469-8.511719l-7.308594-14.242188c-5.609375 2.886719-10.921875 6.308594-15.867188 10.226563zm0 0"/><path d="m53.683594 150.144531c-17.667969 21.804688-24.90625 50.25-19.816406 77.847657l15.738281-2.914063c-4.246094-22.992187 1.792969-46.691406 16.519531-64.855469zm0 0"/><path d="m479.269531 339.273438c-.304687-2.488282-.691406-4.960938-1.136719-7.417969-.257812-1.421875-.472656-2.863281-.800781-4.269531-.683593-3.117188-1.484375-6.1875-2.398437-9.21875-.59375-2.015626-1.289063-4-1.984375-5.953126-.457031-1.308593-.929688-2.605468-1.425781-3.902343-.800782-2.078125-1.597657-4.152344-2.550782-6.183594-.417968-.921875-.878906-1.808594-1.3125-2.71875-1.75-3.664063-3.664062-7.226563-5.746094-10.6875-.71875-1.210937-1.429687-2.402344-2.191406-3.609375-1.054687-1.601562-2.152344-3.199219-3.277344-4.800781-1.128906-1.601563-2.257812-3.078125-3.433593-4.582031-.953125-1.226563-1.871094-2.464844-2.871094-3.648438-2.226563-2.667969-4.554687-5.234375-6.992187-7.695312-.570313-.578126-1.175782-1.113282-1.753907-1.683594-2.207031-2.160156-4.496093-4.238282-6.863281-6.238282-.589844-.496093-1.183594-1-1.785156-1.488281-6.023438-4.914062-12.488282-9.269531-19.308594-13.007812l-.839844-.441407c-1.816406-.964843-3.625-1.964843-5.496094-2.855468-.800781-.367188-1.601562-.597656-2.402343-.941406-16.46875-7.488282-34.34375-11.371094-52.429688-11.394532h-96c-18.109375.011719-36.003906 3.894532-52.488281 11.386719-.800781.34375-1.601562.574219-2.402344.941406-1.871094.890625-3.679687 1.890625-5.496094 2.855469l-.839843.441406c-6.820313 3.738282-13.285157 8.089844-19.3125 13.007813-.597657.488281-1.191407.992187-1.78125 1.488281-2.371094 2-4.65625 4.078125-6.863281 6.238281-.578126.570313-1.1875 1.105469-1.753907 1.679688-2.4375 2.480469-4.769531 5.046875-6.992187 7.699219-1 1.183593-1.917969 2.398437-2.871094 3.648437-1.175781 1.503906-2.328125 3.023437-3.433594 4.582031-1.101562 1.558594-2.222656 3.199219-3.277344 4.800782-.800781 1.183593-1.472656 2.398437-2.195312 3.605468-2.078125 3.457032-3.992188 7.015625-5.734375 10.675782-.441406.910156-.902344 1.8125-1.320313 2.742187-.910156 2.023437-1.742187 4.085937-2.542968 6.167969-.503906 1.296875-.976563 2.601562-1.441406 3.910156-.6875 1.976562-1.382813 3.9375-1.976563 5.953125-.90625 3.035156-1.707031 6.105469-2.398437 9.214844-.304688 1.410156-.519532 2.851562-.800782 4.273437-.449218 2.457032-.800781 4.929688-1.136718 7.417969-.152344 1.277344-.304688 2.550781-.421876 3.847656-.289062 3.78125-.519531 7.582031-.519531 11.421875.082031 70.660156 57.339844 127.917969 128 128h96c70.65625-.082031 127.914063-57.339844 128-128 0-3.839844-.234375-7.640625-.578125-11.414062-.121094-1.296875-.269531-2.570313-.421875-3.847656zm-152.714843-96.738282c-1.742188 1-3.542969 1.890625-5.230469 3.015625-10.324219 6.90625-23.789063 6.90625-34.113281 0-1.6875-1.125-3.488282-2.015625-5.230469-3.015625zm25.714843 224h-96c-61.828125-.066406-111.933593-50.171875-112-112 0-3.367187.214844-6.6875.503907-9.984375.101562-1.125.230468-2.253906.367187-3.375.261719-2.183593.605469-4.335937.992187-6.480469.230469-1.246093.414063-2.503906.679688-3.742187.589844-2.730469 1.296875-5.417969 2.078125-8.066406.53125-1.757813 1.128906-3.488281 1.738281-5.214844.398438-1.144531.800782-2.28125 1.246094-3.398437.714844-1.824219 1.433594-3.640626 2.234375-5.425782.359375-.800781.757813-1.550781 1.125-2.328125 1.546875-3.230469 3.242187-6.382812 5.082031-9.449219.617188-1.03125 1.222656-2.078124 1.871094-3.085937.929688-1.449219 1.914062-2.855469 2.90625-4.257813.992188-1.398437 1.933594-2.636718 2.941406-3.925781.847656-1.097656 1.679688-2.207031 2.570313-3.273437 1.941406-2.304688 4-4.542969 6.085937-6.6875.511719-.527344 1.066406-1.015625 1.601563-1.527344 1.917969-1.863281 3.894531-3.671875 5.941406-5.402344.539063-.445312 1.066406-.894531 1.601563-1.335937 5.273437-4.289063 10.921874-8.097657 16.878906-11.375l.714844-.359375c2.398437-1.28125 4.796874-2.398438 7.285156-3.519532 8.65625-3.722656 17.972656-5.648437 27.394531-5.664062 14.320313.015625 28.316406 4.261719 40.230469 12.207031 15.695312 10.503907 36.175781 10.503907 51.871094 0 20.125-13.496093 45.710937-15.902343 68-6.398437 2.34375 1.054687 4.6875 2.136718 6.945312 3.351562l.710938.359375c5.957031 3.277344 11.609374 7.085938 16.878906 11.375.546875.441407 1.074218.890625 1.601562 1.335938 2.046875 1.730469 4 3.539062 5.945313 5.402343.519531.511719 1.070312 1 1.597656 1.527344 2.121094 2.144532 4.144531 4.382813 6.089844 6.6875.886719 1.0625 1.71875 2.175782 2.566406 3.273438 1.007813 1.285156 1.992187 2.589844 2.945313 3.925781.953124 1.335937 1.976562 2.808594 2.902343 4.257813.648438 1.007812 1.257813 2.054687 1.875 3.085937 1.839844 3.066406 3.53125 6.21875 5.078125 9.449219.367188.800781.800782 1.542968 1.128906 2.328125.800782 1.785156 1.519532 3.601562 2.230469 5.421875.433594 1.121094.847657 2.257812 1.25 3.402344.605469 1.726562 1.207031 3.457031 1.734375 5.214843.800782 2.648438 1.488282 5.335938 2.082032 8.066407.261718 1.238281.445312 2.496093.679687 3.742187.382813 2.144531.726563 4.296875.992187 6.480469.132813 1.121094.261719 2.246094.367188 3.375.289062 3.296875.503906 6.617187.503906 9.984375-.054687 61.855469-50.191406 111.984375-112.046875 112.023437zm0 0"/><path d="m258.140625 281.902344c-12.113281-8.257813-27.65625-9.59375-41-3.519532-40.328125 19.289063-59.203125 66.21875-43.457031 108.058594 13.238281 34.144532 46.269531 56.496094 82.886718 56.09375 22-.101562 39.765626-18 39.699219-40v-49.382812c.042969-28.640625-14.277343-55.394532-38.128906-71.25zm22.128906 120.632812c.070313 13.167969-10.53125 23.902344-23.699219 24-29.910156.421875-56.953124-17.746094-67.871093-45.597656-12.421875-34.089844 2.816406-72.0625 35.359375-88.105469 3.183594-1.523437 6.671875-2.308593 10.203125-2.296875 5.472656.042969 10.804687 1.738282 15.292969 4.863282 19.25 12.90625 30.777343 34.578124 30.714843 57.753906zm0 0"/><path d="m391.402344 278.382812c-13.460938-6.15625-29.171875-4.742187-41.316406 3.722657-23.695313 15.871093-37.886719 42.535156-37.816407 71.054687v49.375c-.066406 22 17.695313 39.898438 39.695313 40 36.617187.402344 69.648437-21.949218 82.886718-56.09375 15.746094-41.835937-3.121093-88.765625-43.449218-108.058594zm28.433594 102.554688c-10.917969 27.851562-37.957032 46.019531-67.871094 45.597656-13.167969-.097656-23.769532-10.832031-23.695313-24v-49.375c-.035156-23.308594 11.621094-45.082031 31.039063-57.976562 4.414062-3.007813 9.625-4.625 14.96875-4.648438 3.523437-.019531 7.007812.757813 10.191406 2.273438 32.558594 16.039062 47.804688 54.03125 35.367188 88.128906zm0 0"/><path d="m224.269531 346.535156h24v16h-24zm0 0"/><path d="m223.113281 321.746094 6.910157-14.421875 21.699218 10.398437-6.910156 14.421875zm0 0"/><path d="m223.109375 387.324219 21.699219-10.402344 6.914062 14.417969-21.699218 10.40625zm0 0"/><path d="m360.269531 346.535156h24v16h-24zm0 0"/><path d="m356.8125 317.71875 21.699219-10.402344 6.914062 14.417969-21.699219 10.40625zm0 0"/><path d="m356.808594 391.34375 6.910156-14.421875 21.703125 10.398437-6.910156 14.421876zm0 0"/></svg>